<?xml version="1.0" standalone="no"?>
<!DOCTYPE svg PUBLIC "-//W3C//DTD SVG 1.1//EN" "http://www.w3.org/Graphics/SVG/1.1/DTD/svg11.dtd" >
<svg xmlns="http://www.w3.org/2000/svg" xmlns:xlink="http://www.w3.org/1999/xlink" version="1.1">
<metadata>
Created by FontForge 20170731 at Thu Sep 23 15:57:55 2021
 By Aleksey,,,
Copyright 2011 (c) Canada Type. All rights reserved.
</metadata>
<defs>
<font id="OrpheusPro" horiz-adv-x="1634" >
  <font-face
    font-family="Proxima Nova"
    font-weight="400"
    font-stretch="normal"
    units-per-em="2048"
    panose-1="2 0 0 0 0 0 0 0 0 0"
    ascent="1587"
    descent="-461"
    x-height="975"
    cap-height="1489"
    bbox="-508 -467 4041 2042"
    underline-thickness="102"
    underline-position="-204"
    unicode-range="U+000D-FB04"
  />
<missing-glyph horiz-adv-x="1228"
d="M1024 0h-819v1485h819v-1485zM934 88v1309h-639v-1309h639z" />
    <glyph glyph-name="ff" unicode="ff" horiz-adv-x="958"
d="M846 6v-10q-90 4 -154 4q-63 0 -153 -4v10q36 7 51.5 18t26 50t10.5 119v739h-348v-739q0 -80 10.5 -119t26 -50t51.5 -18v-10q-90 4 -154 4t-154 -4v10q36 7 51.5 18t26 50t10.5 119v739h-34v6l34 35q0 143 29.5 250t120.5 186q94 80 207 80q120 0 192 -92q27 48 80 94
q94 80 207 80q70 0 113 -31l-86 -110q-59 63 -129 63q-22 0 -40 -6.5t-30.5 -23t-21.5 -33t-15 -49.5t-9 -59t-4.5 -74.5t-2 -82.5t-0.5 -96v-96h125q26 0 33.5 1.5t11.5 8.5h10q0 -15 -2 -56t-2 -71h-8q0 46 -15 61t-69 15h-84v-739q0 -80 10.5 -119t26 -50t51.5 -18z
M279 973h348q0 230 30 332q-36 147 -176 147q-202 0 -202 -403v-76z" />
    <glyph glyph-name="fi" unicode="fi" horiz-adv-x="911"
d="M367 6v-10q-90 4 -154 4t-154 -4v10q36 7 51.5 18t26 50t10.5 119v739h-34v6l34 35q0 203 28.5 320t121.5 198q94 80 207 80q19 0 45 -5t64.5 -22.5t71 -44.5t60 -77t35.5 -115l-121 -43q-6 73 -27 126.5t-50 81t-58 40t-57 12.5q-39 0 -69 -12t-49.5 -28.5t-33.5 -49
t-21 -59t-10.5 -74t-4 -78t-0.5 -86.5v-164h124q27 0 34.5 1.5t11.5 8.5h10q0 -15 -2 -56t-2 -71h-9q0 46 -15 61t-69 15h-83v-739q0 -80 10.5 -119t26 -50t51.5 -18zM852 6v-10q-90 4 -154 4q-63 0 -153 -4v10q36 7 51.5 18t26 50t10.5 119v614q0 59 -10 79.5t-54 31.5v10
q116 8 195 45v-780q0 -80 10.5 -119t26 -50t51.5 -18z" />
    <glyph glyph-name="fl" unicode="fl" horiz-adv-x="925"
d="M856 6v-10q-90 4 -154 4q-63 0 -153 -4v10q36 7 51.5 18t26 50t10.5 119v1122q0 107 -54 161t-126 54q-73 0 -125.5 -75t-52.5 -181v-301h124q27 0 34.5 1.5t11.5 8.5h10q0 -15 -2 -56t-2 -71h-9q0 46 -15 61t-69 15h-83v-739q0 -80 10.5 -119t26 -50t51.5 -18v-10
q-90 4 -154 4t-154 -4v10q36 7 51.5 18t26 50t10.5 119v739h-34v6l34 35q0 203 28.5 321t121.5 197q94 80 207 80q71 0 149 -45q60 12 115 35v-1368q0 -80 10.5 -119t26 -50t51.5 -18z" />
    <glyph glyph-name="ffi" unicode="ffi" horiz-adv-x="1390"
d="M846 6v-10q-90 4 -154 4q-63 0 -153 -4v10q36 7 51.5 18t26 50t10.5 119v739h-348v-739q0 -80 10.5 -119t26 -50t51.5 -18v-10q-90 4 -154 4t-154 -4v10q36 7 51.5 18t26 50t10.5 119v739h-34v6l34 35q0 143 29.5 250t120.5 186q94 80 207 80q120 0 194 -92q29 51 78 94
q94 80 207 80q19 0 45 -5t65 -22.5t71.5 -44.5t60 -77t35.5 -115l-121 -43q-6 73 -27 126.5t-50.5 81t-58.5 40t-57 12.5q-39 0 -69 -12t-49.5 -28.5t-33.5 -49t-21 -59t-10.5 -74t-4 -78t-0.5 -86.5v-164h125q26 0 33.5 1.5t11.5 8.5h10q0 -15 -2 -56t-2 -71h-8
q0 46 -15 61t-69 15h-84v-739q0 -80 10.5 -119t26 -50t51.5 -18zM279 973h348q0 232 30 332q-36 147 -176 147q-202 0 -202 -403v-76zM1331 6v-10q-90 4 -153 4q-64 0 -154 -4v10q36 7 51.5 18t26 50t10.5 119v614q0 60 -10 80t-53 31v10q115 8 194 45v-780q0 -80 10.5 -119
t26 -50t51.5 -18z" />
    <glyph glyph-name="ffl" unicode="ffl" horiz-adv-x="1404"
d="M1335 6v-10q-90 4 -153 4q-64 0 -154 -4v10q36 7 51.5 18t26 50t10.5 119v1122q0 107 -54 161t-126 54q-73 0 -125.5 -75t-52.5 -181v-301h125q26 0 33.5 1.5t11.5 8.5h10q0 -15 -2 -56t-2 -71h-8q0 46 -15 61t-69 15h-84v-739q0 -80 10.5 -119t26 -50t51.5 -18v-10
q-90 4 -154 4q-63 0 -153 -4v10q36 7 51.5 18t26 50t10.5 119v739h-348v-739q0 -80 10.5 -119t26 -50t51.5 -18v-10q-90 4 -154 4t-154 -4v10q36 7 51.5 18t26 50t10.5 119v739h-34v6l34 35q0 143 29.5 250t120.5 186q94 80 207 80q120 0 192 -92q27 48 80 94q94 80 207 80
q72 0 150 -45q58 11 114 35v-1368q0 -80 10.5 -119t26 -50t51.5 -18zM279 973h348q0 230 30 332q-36 147 -176 147q-202 0 -202 -403v-76z" />
    <glyph glyph-name="fb" unicode="fb" horiz-adv-x="1542"
d="M590 55v6q34 19 40.5 63t6.5 220v971q0 107 -54 161t-126 54q-73 0 -125.5 -75t-52.5 -181v-301h124q27 0 34.5 1.5t11.5 8.5h10q0 -15 -2 -56t-2 -71h-9q0 46 -15 61t-69 15h-83v-739q0 -80 10.5 -119t26 -50t51.5 -18v-10q-90 4 -154 4t-154 -4v10q36 7 51.5 18t26 50
t10.5 119v739h-34v6l34 35q0 203 28.5 321t121.5 197q94 80 207 80q71 0 149 -45q60 12 115 35v-674q119 96 262 96q110 0 197 -39t140.5 -105t81.5 -148.5t28 -174.5q0 -79 -20 -156.5t-59.5 -145.5t-94.5 -120.5t-129.5 -83t-159.5 -30.5q-70 0 -130.5 20t-112.5 39.5
t-101 19.5q-51 0 -80 -4zM768 844v-543q0 -145 62 -209.5t178 -64.5q79 0 137.5 35t92.5 98t50.5 141.5t16.5 173.5q0 98 -17.5 180t-53 146.5t-95 100.5t-138.5 36q-130 0 -233 -94z" />
    <glyph glyph-name="fh" unicode="fh" horiz-adv-x="1531"
d="M1485 6v-10q-90 4 -154 4q-63 0 -153 -4v10q36 7 51.5 18t26 50t10.5 119v446q0 74 -14.5 129t-37.5 87.5t-56.5 52.5t-67 27t-74.5 7q-58 0 -126 -22.5t-122 -61.5v-665q0 -80 10.5 -119t26 -50t51.5 -18v-10q-90 4 -154 4q-63 0 -153 -4v10q36 7 51.5 18t26 50
t10.5 119v1122q0 107 -54 161t-126 54q-73 0 -125.5 -75t-52.5 -181v-301h124q27 0 34.5 1.5t11.5 8.5h10q0 -15 -2 -56t-2 -71h-9q0 46 -15 61t-69 15h-83v-739q0 -80 10.5 -119t26 -50t51.5 -18v-10q-90 4 -154 4t-154 -4v10q36 7 51.5 18t26 50t10.5 119v739h-34v6l34 35
q0 203 28.5 321t121.5 197q94 80 207 80q71 0 149 -45q60 12 115 35v-660q132 82 299 82q330 0 330 -334v-456q0 -80 10.5 -119t26 -50t51.5 -18z" />
    <glyph glyph-name="fj" unicode="fj" horiz-adv-x="911"
d="M367 6v-10q-90 4 -154 4t-154 -4v10q36 7 51.5 18t26 50t10.5 119v739h-34v6l34 35q0 203 28.5 320t121.5 198q94 80 207 80q19 0 45 -5t64.5 -22.5t71 -44.5t60 -77t35.5 -115l-121 -43q-6 73 -27 126.5t-50 81t-58 40t-57 12.5q-39 0 -69 -12t-49.5 -28.5t-33.5 -49
t-21 -59t-10.5 -74t-4 -78t-0.5 -86.5v-164h124q27 0 34.5 1.5t11.5 8.5h10q0 -15 -2 -56t-2 -71h-9q0 46 -15 61t-69 15h-83v-739q0 -80 10.5 -119t26 -50t51.5 -18zM483 -459l2 15q102 0 125 93t23 398v760q0 59 -10 79.5t-54 31.5v10q116 8 195 45v-998q0 -62 -3 -108
t-11 -100t-25.5 -91.5t-44.5 -70.5t-69.5 -49.5t-98.5 -16.5q-17 0 -29 2z" />
    <glyph glyph-name="fk" unicode="fk" horiz-adv-x="1417"
d="M1460 6v-10q-160 4 -186 4q-11 0 -121 -4v10q37 4 37 17q0 9 -14 26l-408 459v-315q0 -80 10.5 -119t26 -50t51.5 -18v-10q-90 4 -154 4q-63 0 -153 -4v10q36 7 51.5 18t26 50t10.5 119v1122q0 107 -54 161t-126 54q-73 0 -125.5 -75t-52.5 -181v-301h124q27 0 34.5 1.5
t11.5 8.5h10q0 -15 -2 -56t-2 -71h-9q0 46 -15 61t-69 15h-83v-739q0 -80 10.5 -119t26 -50t51.5 -18v-10q-90 4 -154 4t-154 -4v10q36 7 51.5 18t26 50t10.5 119v739h-34v6l34 35q0 203 28.5 321t121.5 197q94 80 207 80q71 0 149 -45q60 12 115 35v-1026q192 180 272 267
t80 128q0 16 -10.5 24.5t-38.5 12.5v10q94 -4 146 -4q47 0 145 4v-12q-74 -15 -147.5 -72.5t-340.5 -304.5q62 -70 128 -144.5t106 -120.5t83.5 -95.5t69 -77t53 -56t44.5 -42t36 -25.5t34 -16t32 -5z" />
    <glyph glyph-name="ft" unicode="ft" horiz-adv-x="1077"
d="M1059 147l10 -6q-65 -161 -235 -161q-38 0 -64.5 4t-56 18t-48 39.5t-30.5 71.5t-12 110v654q0 39 -7.5 47t-42.5 8h-294v-739q0 -80 10.5 -119t26 -50t51.5 -18v-10q-90 4 -154 4t-154 -4v10q36 7 51.5 18t26 50t10.5 119v739h-34v6l34 35q0 203 28.5 321t121.5 197
q94 80 207 80q69 0 112 -31l-86 -110q-59 63 -129 63q-83 0 -102.5 -92.5t-19.5 -331.5v-96h239q92 0 154.5 62t99.5 206h12q-30 -175 -30 -268h168q82 0 110.5 7.5t50.5 43.5l13 -12q-7 -11 -28 -41t-33.5 -52.5t-22.5 -52.5h-17q4 12 4 23q0 25 -21.5 34t-76.5 9h-147
v-705q0 -105 33 -147.5t112 -42.5q60 0 97 25t63 85z" />
    <glyph glyph-name="Th" unicode="Th" horiz-adv-x="1982"
d="M1935 6v-10q-90 4 -153 4q-64 0 -154 -4v10q36 7 51.5 18t26 50t10.5 119v446q0 74 -14.5 129t-37.5 87.5t-56.5 52.5t-67 27t-74.5 7q-58 0 -125 -22.5t-122 -61.5v-665q0 -80 10.5 -119t26 -50t51.5 -18v-10q-90 4 -154 4t-154 -4v10q36 7 51.5 18t26 50t10.5 119v1253
q-44 -16 -126 -19.5t-314 -3.5v-1230q0 -61 4.5 -96.5t19 -54.5t30.5 -25t49 -11v-10q-86 4 -179 4q-88 0 -178 -4v10q33 5 49 11t30.5 25t19 54.5t4.5 96.5v1230h-91.5t-76.5 -1t-68.5 -2.5t-55 -5t-49 -8t-38 -12t-34.5 -16.5t-26 -22t-24.5 -28.5t-18.5 -35.5h-10
q7 34 31.5 111t38.5 149h10q4 -48 73 -57.5t371 -9.5h303q148 0 234.5 18.5t153.5 57.5v-660q132 82 299 82q329 0 329 -334v-456q0 -80 10.5 -119t26 -50t51.5 -18z" />
    <glyph glyph-name=".notdef" horiz-adv-x="1228"
d="M1024 0h-819v1485h819v-1485zM934 88v1309h-639v-1309h639z" />
    <glyph glyph-name=".null" horiz-adv-x="0"
 />
    <glyph glyph-name="nonmarkingreturn" horiz-adv-x="682"
 />
    <glyph glyph-name="CR" unicode="&#xd;" horiz-adv-x="0"
 />
    <glyph glyph-name="space" unicode=" " horiz-adv-x="512"
 />
    <glyph glyph-name="exclam" unicode="!" horiz-adv-x="448"
d="M229 354h-14q0 32 -18.5 174.5t-37 369t-18.5 464.5q0 123 84 123q86 0 86 -123q0 -238 -20.5 -464.5t-41 -369t-20.5 -174.5zM297 63q0 -30 -22.5 -50.5t-55.5 -20.5q-29 0 -50.5 21t-21.5 50q0 33 21 55.5t51 22.5q34 0 56 -22t22 -56z" />
    <glyph glyph-name="quotedbl" unicode="&#x22;" horiz-adv-x="438"
d="M154 1155h-56q-2 34 -8.5 169.5t-13.5 236.5h102q-7 -100 -14.5 -236t-9.5 -170zM338 1155h-55q-2 35 -9 170.5t-14 235.5h102q-7 -100 -14.5 -236t-9.5 -170z" />
    <glyph glyph-name="numbersign" unicode="#" horiz-adv-x="2471"
d="M2304 266h-594v41h594v-41zM2021 453q-84 0 -152.5 21t-122 64.5t-83 118t-29.5 174.5q0 96 32.5 173t87 124.5t122 72t141.5 24.5q100 0 184.5 -43t139.5 -134.5t55 -216.5q0 -175 -107 -276.5t-268 -101.5zM2013 485q68 0 114.5 26t71 77t34.5 112.5t10 145.5
q0 175 -55 259.5t-183 84.5q-53 0 -92.5 -21t-63.5 -55t-38.5 -84t-19.5 -101t-5 -114q0 -163 51 -246.5t176 -83.5zM1475 -45h-11l-1163 1294v-184q0 -671 11 -822t47 -193q19 -22 73 -41q2 0 5 -1t5 -2v-10q-90 4 -174 4q-76 0 -162 -4v10q55 20 72 38q37 37 49 168
q13 146 13 778v77v453h14l1159 -1289v183q0 682 -13 840q-12 146 -49 186q-18 19 -73 37q-4 1 -6 2v10q90 -4 174 -4t170 4v-10q-57 -19 -75 -35q-38 -34 -51 -156q-15 -142 -15 -739v-123v-471z" />
    <glyph glyph-name="dollar" unicode="$" horiz-adv-x="942"
d="M500 -104h-41v84h-25q-73 0 -162 19t-133 19q-18 0 -30 -2q2 10 2 54q0 23 -5.5 69t-5.5 72q0 72 25 129h10q-4 -36 -4 -51q0 -80 47.5 -140.5t119.5 -89t155 -28.5h6v661q-134 91 -178 129q-137 118 -159 265q-5 32 -5 67q0 155 95 254.5t247 110.5v79h41v-77
q62 -1 146.5 -17t121.5 -16q23 0 35 2q-6 -65 -6 -135q0 -82 2 -113h-13q-23 118 -97 177t-189 59v-590q134 -93 169 -122q143 -118 178 -259q13 -53 13 -111q0 -171 -100 -280.5t-260 -130.5v-88zM500 664v-631q100 15 165.5 85t65.5 189q0 61 -17.5 114t-52 96.5
t-71.5 76.5t-90 70zM459 915v560q-91 -11 -150 -69.5t-59 -160.5q0 -56 15.5 -104t46.5 -88.5t65 -71.5t82 -66z" />
    <glyph glyph-name="percent" unicode="%" horiz-adv-x="1781"
d="M420 0h-64l1006 1571h63zM463 784q-182 0 -285.5 101.5t-103.5 279.5q0 172 110 284t275 112q167 0 275 -112.5t108 -283.5q0 -160 -104.5 -270.5t-274.5 -110.5zM457 803q63 0 109.5 22.5t73 57t43 86.5t21.5 100.5t5 108.5q0 79 -12 140.5t-40 113.5t-80.5 80
t-127.5 28q-244 0 -244 -389q0 -348 252 -348zM1333 -20q-182 0 -285.5 101t-103.5 279q0 172 110 284t275 112q167 0 275 -112.5t108 -283.5q0 -160 -104.5 -270t-274.5 -110zM1327 -2q63 0 109.5 22.5t73 57t43 86.5t21.5 100.5t5 108.5q0 79 -12 140.5t-40 113.5
t-80.5 80t-127.5 28q-244 0 -244 -389q0 -348 252 -348z" />
    <glyph glyph-name="ampersand" unicode="&#x26;" horiz-adv-x="1296"
d="M1319 37v-6q-38 -35 -109 -35q-94 0 -180 35t-180 116q-154 -167 -373 -167q-174 0 -301 105.5t-127 272.5q0 65 27 125t78 111t95 85t107 75q-69 108 -100 193.5t-31 174.5q0 81 25 147.5t66.5 108t92 64t103.5 22.5q45 0 84.5 -13t74.5 -42t56 -82t21 -125
q0 -200 -244 -391l10 -14q45 -72 156.5 -221.5t236.5 -278.5q54 120 54 268q0 85 -24.5 131.5t-82.5 71.5v6q52 0 81.5 23.5t29.5 62.5h6q69 -87 69 -221q0 -194 -104 -371q235 -231 383 -231zM823 172q-126 117 -278 320q-101 131 -166 227q-166 -134 -166 -297
q0 -165 102 -262t244 -97q158 0 264 109zM483 846q156 137 156 346q0 106 -45.5 165.5t-106.5 59.5q-58 0 -97.5 -49t-39.5 -151q0 -77 28.5 -159t104.5 -212z" />
    <glyph glyph-name="quotesingle" unicode="'" horiz-adv-x="253"
d="M154 1155h-56q-2 34 -8.5 169.5t-13.5 236.5h102q-7 -100 -14.5 -236t-9.5 -170z" />
    <glyph glyph-name="parenleft" unicode="(" horiz-adv-x="485"
d="M401 -240h-12q-140 150 -220.5 414.5t-80.5 499.5q0 233 79.5 492t219.5 405h12q-170 -427 -170 -889q0 -466 172 -922z" />
    <glyph glyph-name="parenright" unicode=")" horiz-adv-x="485"
d="M96 -240h-12q172 456 172 922q0 462 -170 889h12q140 -146 219.5 -405t79.5 -492q0 -235 -80.5 -499.5t-220.5 -414.5z" />
    <glyph glyph-name="asterisk" unicode="*" horiz-adv-x="686"
d="M522 958l-80 -49l-82 166l-32 -2l-84 -162l-78 50l125 139l-12 37l-177 45l48 92l141 -96l31 22l-27 160h100l-33 -160l29 -18l150 86l34 -90l-167 -37l-11 -39z" />
    <glyph glyph-name="plus" unicode="+" horiz-adv-x="940"
d="M500 238h-62q2 74 2 352q-278 0 -350 -2v61q148 -4 350 -4q0 278 -2 352h62q-4 -148 -4 -352q202 0 354 4v-61q-76 2 -354 2q0 -204 4 -352z" />
    <glyph glyph-name="comma" unicode="," horiz-adv-x="366"
d="M135 -211l-8 4q82 67 82 172q0 19 -4 35q-13 -8 -31 -8q-32 0 -50 20.5t-18 50.5q0 35 20.5 56.5t49.5 21.5q36 0 63 -32t27 -91q0 -73 -35.5 -134t-95.5 -95z" />
    <glyph glyph-name="hyphen" unicode="-" horiz-adv-x="641"
d="M524 647v-61q-68 2 -205 2q-134 0 -202 -2v61q136 -4 202 -4q69 0 205 4z" />
    <glyph glyph-name="period" unicode="." horiz-adv-x="358"
d="M254 63q0 -30 -22.5 -50.5t-55.5 -20.5q-29 0 -50.5 21t-21.5 50q0 33 21 55.5t51 22.5q34 0 56 -22t22 -56z" />
    <glyph glyph-name="slash" unicode="/" horiz-adv-x="868"
d="M125 -94h-64l682 1665h64z" />
    <glyph glyph-name="zero" unicode="0" horiz-adv-x="1277"
d="M637 -20q-76 0 -149.5 25t-144.5 82t-124.5 141t-86 212.5t-32.5 284.5q0 117 21.5 228.5t66.5 210.5t108 173.5t151.5 118t191.5 43.5t191.5 -43.5t151.5 -118t108 -173.5t66.5 -210.5t21.5 -228.5q0 -156 -32.5 -284.5t-86 -212.5t-125 -141t-146 -82t-151.5 -25z
M637 27q175 0 261.5 177.5t86.5 545.5q0 361 -85 531.5t-263 170.5q-174 0 -259 -171t-85 -531q0 -367 85.5 -545t258.5 -178z" />
    <glyph glyph-name="one" unicode="1" horiz-adv-x="608"
d="M494 6v-10q-86 4 -179 4q-88 0 -178 -4v10q33 5 49 11t30.5 25t19 54.5t4.5 96.5v1107q-54 -46 -170 -122l-11 22q55 37 80.5 55t75 56.5t76 66t53 66.5t37.5 76h10v-1327q0 -61 4.5 -96.5t19 -54.5t30.5 -25t49 -11z" />
    <glyph glyph-name="two" unicode="2" horiz-adv-x="1122"
d="M1026 287h10q0 -27 -21.5 -120t-23.5 -179q-258 12 -645 12q-63 0 -192 -1t-131 -1v10q57 32 118.5 72.5t140.5 102t150.5 128.5t142 153t122 174.5t83 194.5t31.5 211q0 88 -19.5 158.5t-52 115t-78 74.5t-93.5 42t-101 12q-133 0 -229.5 -81.5t-96.5 -215.5
q0 -112 92 -182q-33 -13 -81 -45q-68 82 -68 202q0 170 123 283t317 113q89 0 169.5 -30t145.5 -87.5t103.5 -151.5t38.5 -213q0 -71 -23 -145t-58.5 -139.5t-92.5 -137t-112 -129t-130 -124.5t-133 -114.5t-135 -107.5q114 -1 321.5 -6.5t225.5 -5.5q48 0 75.5 5.5t48 26
t31.5 46.5t27 80z" />
    <glyph glyph-name="three" unicode="3" horiz-adv-x="1071"
d="M201 377l4 -8q-15 -43 -15 -82q0 -124 80.5 -192t208.5 -68q150 0 232 96t82 233q0 168 -95 267t-276 108v14q95 5 165.5 36t110.5 81.5t59 111t19 132.5q0 147 -86 233t-233 86q-116 0 -202.5 -71.5t-86.5 -192.5q0 -76 51 -135q-41 -8 -80 -31q-28 60 -28 140
q0 147 112 255.5t291 108.5q193 0 312.5 -110.5t119.5 -270.5q0 -204 -239 -321q131 -66 193.5 -158t62.5 -217q0 -69 -19.5 -134t-59.5 -120.5t-95 -97.5t-131.5 -66t-165.5 -24q-132 0 -243.5 75.5t-160.5 214.5q40 27 72.5 64.5t40.5 42.5z" />
    <glyph glyph-name="four" unicode="4" horiz-adv-x="1089"
d="M946 6v-10q-86 4 -178 4q-88 0 -178 -4v10q43 7 61.5 18t29.5 49.5t11 119.5v247h-672l-4 9l818 1071h10v-985h14q34 0 48 0.5t36.5 3.5t33 10.5t22 20.5t18.5 34h10q-1 -27 -26.5 -84t-32.5 -90q-29 10 -105 10h-18v-247q0 -81 11 -119.5t29.5 -49.5t61.5 -18zM692 535
v722l-553 -722h553z" />
    <glyph glyph-name="five" unicode="5" horiz-adv-x="1030"
d="M150 334l8 -6q-2 -12 -2 -35q0 -120 88 -193t229 -73q67 0 127.5 22.5t112 68t82 124t30.5 180.5q0 188 -102 297.5t-270 109.5q-169 0 -273 -114h-10q17 124 26 361.5t9 426.5q279 -18 487 -18q74 0 97.5 5.5t41.5 29.5h11q-3 -9 -30 -70t-40 -109l-516 19
q-3 -240 -14 -434q114 49 231 49q216 0 352 -126t136 -360q0 -102 -35.5 -195t-98 -162.5t-153.5 -110.5t-195 -41q-138 0 -252 70t-166 202q29 21 54 48.5t35 33.5z" />
    <glyph glyph-name="six" unicode="6" horiz-adv-x="1132"
d="M326 711h-11q35 133 126.5 203.5t205.5 70.5q81 0 155.5 -33t134 -93t95 -154.5t35.5 -208.5q0 -133 -60 -251t-168.5 -191.5t-238.5 -73.5q-120 0 -217.5 53t-159 143.5t-94.5 206t-33 244.5q0 105 22 208.5t65 202t112 182t156.5 146.5t204.5 99t251 36v-18
q-143 -7 -255 -63t-183 -141.5t-117.5 -202.5t-65 -237.5t-18.5 -254.5q0 -68 9 -139t33 -150.5t60 -140t97.5 -100.5t138.5 -40q65 0 117 32.5t83.5 82t53 114t29.5 123.5t8 115q0 213 -83.5 325t-223.5 112q-83 0 -154 -50t-110 -157z" />
    <glyph glyph-name="seven" unicode="7" horiz-adv-x="1009"
d="M1030 1485v-10q-201 -380 -433.5 -897t-242.5 -641q-39 6 -129 6q23 35 50 87.5t78 162.5t109.5 238.5t176 383t246.5 528.5h-623q-37 0 -54 -0.5t-44 -3t-38.5 -7.5t-28 -15t-23 -25t-13 -36.5t-8.5 -51.5h-10q0 54 7 131t7 113q0 47 -4 72h10q41 -35 91 -35h876z" />
    <glyph glyph-name="eight" unicode="8" horiz-adv-x="1009"
d="M608 784q67 -54 109 -93.5t88.5 -95.5t69 -117t22.5 -128q0 -110 -59 -196.5t-150 -130t-194 -43.5q-96 0 -173.5 27.5t-125 74.5t-72.5 106t-25 125q0 119 83 224.5t247 185.5q-53 44 -85.5 72t-75 73t-65.5 84t-40 90t-17 105q0 161 103.5 258.5t265.5 97.5
q91 0 163.5 -27t118 -72.5t69.5 -103t24 -120.5q0 -112 -74 -219t-207 -177zM461 696q-115 -53 -176.5 -148t-61.5 -224q0 -131 75.5 -214t215.5 -83q115 0 175.5 73.5t60.5 178.5q0 52 -17.5 102t-40.5 87t-67.5 82.5t-75.5 72.5t-88 73zM578 809q102 57 154 154.5
t52 205.5q0 130 -71.5 208.5t-212.5 78.5q-107 0 -168.5 -61.5t-61.5 -167.5q0 -60 20 -113t73.5 -111t84 -85t111.5 -93q13 -11 19 -16z" />
    <glyph glyph-name="nine" unicode="9" horiz-adv-x="1132"
d="M225 -23v19q143 7 255 63t183 141.5t117.5 202.5t65 237.5t18.5 254.5q0 68 -9 139t-33 150t-60 139.5t-97.5 100.5t-138.5 40q-65 0 -117 -32.5t-83.5 -82t-52.5 -114t-29 -123.5t-8 -115q0 -213 83.5 -324.5t223.5 -111.5q83 0 154 50t110 157h10
q-35 -133 -126.5 -203.5t-205.5 -70.5q-81 0 -155.5 33t-133.5 93t-94.5 154.5t-35.5 208.5q0 99 35.5 193t96.5 165t148.5 114.5t185.5 43.5q120 0 217.5 -53t159 -143.5t94.5 -206t33 -244.5q0 -127 -31 -250t-96.5 -236.5t-159 -199.5t-229 -137.5t-295.5 -51.5z" />
    <glyph glyph-name="colon" unicode=":" horiz-adv-x="382"
d="M266 63q0 -30 -22.5 -50.5t-55.5 -20.5q-29 0 -50 21t-21 50q0 33 20.5 55.5t50.5 22.5q34 0 56 -22t22 -56zM266 743q0 -30 -22.5 -50.5t-55.5 -20.5q-29 0 -50 21t-21 50q0 33 20.5 55.5t50.5 22.5q34 0 56 -22t22 -56z" />
    <glyph glyph-name="semicolon" unicode=";" horiz-adv-x="397"
d="M270 743q0 -30 -22 -50.5t-55 -20.5q-29 0 -50.5 21t-21.5 50q0 33 21 55.5t51 22.5q34 0 55.5 -22t21.5 -56zM150 -211l-9 4q82 67 82 172q0 19 -4 35q-13 -8 -31 -8q-32 0 -49.5 20.5t-17.5 50.5q0 36 20 57t49 21q36 0 63.5 -32t27.5 -91q0 -73 -35.5 -134t-95.5 -95z
" />
    <glyph glyph-name="less" unicode="&#x3c;" horiz-adv-x="882"
d="M750 180l-682 414v49l682 418v-49l-588 -396l588 -387v-49z" />
    <glyph glyph-name="equal" unicode="=" horiz-adv-x="1030"
d="M895 780v-61q-80 2 -381 2t-379 -2v61q156 -4 379 -4q221 0 381 4zM895 514v-61q-80 2 -381 2t-379 -2v61q156 -4 379 -4q221 0 381 4z" />
    <glyph glyph-name="greater" unicode="&#x3e;" horiz-adv-x="882"
d="M815 594l-682 -414v49l588 387l-588 396v49l682 -418v-49z" />
    <glyph glyph-name="question" unicode="?" horiz-adv-x="944"
d="M457 334h-17q0 78 16 142.5t42 109.5t57 84.5t62.5 77.5t57.5 79t42 97.5t16 124.5q0 83 -27.5 148.5t-74 104.5t-102.5 59.5t-117 20.5q-73 0 -136 -27.5t-104 -85.5t-41 -136q0 -90 55.5 -157t145.5 -67q41 0 86 9q-26 -36 -36 -56t-13 -49q-141 28 -218 126.5
t-77 221.5q0 108 54 186.5t137 115t181 36.5q78 0 150.5 -25t131.5 -71.5t94.5 -122.5t35.5 -170q0 -77 -22 -142t-57.5 -113t-78 -91.5t-85.5 -87.5t-78.5 -91t-57.5 -111.5t-22 -139.5zM524 63q0 -30 -22.5 -50.5t-55.5 -20.5q-29 0 -50 21t-21 50q0 33 20.5 55.5
t50.5 22.5q34 0 56 -22t22 -56z" />
    <glyph glyph-name="at" unicode="@" horiz-adv-x="1703"
d="M858 -193v-12q-229 0 -401.5 92.5t-264.5 260t-92 387.5q0 152 43.5 279.5t117 216t172.5 150t209 90.5t226 29q152 0 275.5 -37.5t206 -100t138.5 -148t80.5 -177.5t24.5 -192q0 -149 -53 -281.5t-153 -216.5t-224 -84q-54 0 -84 36.5t-30 93.5q-62 -60 -141.5 -95
t-164.5 -35q-124 0 -193 66t-69 160q0 110 90.5 185t239.5 75q64 0 128.5 -18t109.5 -50v287q0 101 -44 152t-143 51q-58 0 -109.5 -27t-88 -87t-39.5 -144h-105q21 135 122.5 215t236.5 80q301 0 301 -267v-479q0 -64 13 -89.5t46 -25.5q71 0 134.5 70.5t101.5 186
t38 241.5q0 89 -20 170.5t-67 158.5t-118.5 133t-182 90t-248.5 34q-104 0 -203 -26t-188 -82t-156 -136t-106.5 -195t-39.5 -251q0 -201 80 -362.5t234 -261t360 -110.5zM1049 233v211q-32 31 -85 48.5t-112 17.5q-104 0 -163.5 -63t-59.5 -146q0 -74 48.5 -127t137.5 -53
q137 0 234 112z" />
    <glyph glyph-name="A" unicode="A" horiz-adv-x="1191"
d="M1184 6v-10q-86 4 -178 4q-93 0 -183 -4v10q90 5 90 72q0 24 -24 106l-121 385h-236q-145 0 -217 -2l-122 -331q-35 -99 -35 -140q0 -79 94 -90v-10q-90 4 -191 4q-53 0 -139 -4v10q57 14 87 34.5t62 75.5t76 173l463 1231h21l430 -1360q32 -101 49.5 -124t73.5 -30z
M750 629l-189 606l-223 -604q66 -2 194 -2h218z" />
    <glyph glyph-name="B" unicode="B" horiz-adv-x="1095"
d="M94 -4v10q34 5 51 11.5t35 24.5t24.5 54.5t6.5 96.5v1099q0 49 -5 81.5t-12 51.5t-23 30t-30.5 15.5t-42.5 8.5v10q90 -4 164 -4q61 0 135.5 2t106.5 2q103 0 183 -28.5t127 -77t71 -107t24 -123.5q0 -114 -68 -200t-214 -124q189 -25 292 -147t103 -279
q0 -115 -47 -206.5t-144 -147t-231 -55.5q-58 0 -158 3t-155 3q-103 0 -193 -4zM414 778h-52v-712q93 -17 156 -17q338 0 338 361q0 368 -442 368zM362 1430v-603q394 0 394 314q0 142 -82.5 223.5t-204.5 81.5q-58 0 -107 -16z" />
    <glyph glyph-name="C" unicode="C" horiz-adv-x="1482"
d="M1391 330h10q-12 -89 -12 -219q-265 -131 -512 -131q-153 0 -284 41.5t-225 114t-160.5 168.5t-99 205.5t-32.5 225.5q0 115 30.5 224.5t94.5 207.5t154.5 171.5t219 117t279.5 43.5q44 0 87 -3t89.5 -10.5t77 -13t82 -18.5t68.5 -17.5t71.5 -20.5t59.5 -17
q-7 -93 -7 -195q0 -20 1 -47t1 -31h-10q-15 157 -156.5 242.5t-355.5 85.5q-98 0 -186 -26.5t-164 -84t-131.5 -141.5t-87 -205.5t-31.5 -269.5q0 -143 38.5 -261.5t102 -198t148 -134.5t174.5 -79.5t184 -24.5q104 0 199.5 30.5t174.5 100.5t108 170z" />
    <glyph glyph-name="D" unicode="D" horiz-adv-x="1595"
d="M88 -4v10q26 4 36.5 6t29.5 6.5t26 10t19 15t16 22t9.5 30.5t7 42t1.5 55v1099q0 40 -3.5 69.5t-14.5 48.5t-19.5 30.5t-30 19.5t-33.5 11t-42 8v10q90 -4 195 -4q68 0 171 1t152 1q423 0 665.5 -200t242.5 -556q0 -121 -29.5 -229.5t-93 -202t-155 -161t-223 -106
t-290.5 -38.5q-51 0 -201.5 3t-214.5 3q-131 0 -221 -4zM385 1415v-1343q164 -29 338 -29q109 0 198.5 20t169.5 69.5t134.5 128t86 201t31.5 281.5q0 147 -36.5 264t-100.5 197t-155.5 133t-198 77t-231.5 24q-136 0 -236 -23z" />
    <glyph glyph-name="E" unicode="E" horiz-adv-x="1009"
d="M930 264h10q-1 -94 -6.5 -163t-5.5 -107q-190 6 -422 6q-326 0 -412 -4v10q73 12 95 47t22 140v1099q0 49 -5 81t-12 51.5t-24.5 30t-33.5 15t-48 9.5v10q82 -4 262 -4q478 0 570 4q0 -5 1 -36t1 -50q0 -112 -13 -168h-10q0 28 -1.5 49.5t-7.5 40t-12 31.5t-20.5 24
t-27 17.5t-38 11.5t-46 7.5t-58.5 4t-69 2t-84 0.5q-127 0 -173 -12v-610h103t82.5 1.5t68 3t51 6.5t40.5 9.5t27.5 15t22 19.5t14 26.5t12 33.5t8.5 42h10q-4 -126 -4 -190q0 -69 4 -209h-10q-7 37 -11 58.5t-16.5 43.5t-21.5 32.5t-37 21t-49 14t-73 7t-94.5 3.5h-126.5
v-665q37 -13 175 -13h108t82.5 3t67 7.5t46 15t37 24t22 36.5t19 50t11.5 67z" />
    <glyph glyph-name="F" unicode="F" horiz-adv-x="958"
d="M475 6v-10q-86 4 -190 4q-89 0 -179 -4v10q33 5 49 11t30.5 25t19 54.5t4.5 96.5v1099q0 49 -5 81t-12 51.5t-24.5 30t-33.5 15t-48 9.5v10q82 -4 262 -4q478 0 570 4q0 -5 1 -36t1 -50q0 -112 -13 -168h-10q0 28 -1.5 49.5t-8 40t-12 31.5t-20.5 24t-27.5 17.5
t-37.5 11.5t-46 7.5t-59 4t-69 2t-84 0.5q-126 0 -172 -12v-600q288 0 347.5 24t74.5 158h11q-5 -158 -5 -215q0 -17 5 -192h-11q-4 33 -7.5 53t-15 39.5t-20.5 29.5t-36.5 19.5t-49.5 13t-73.5 6t-94.5 3t-125 0.5v-557q0 -49 5 -81.5t12 -51.5t23.5 -30t31.5 -15.5
t43 -8.5z" />
    <glyph glyph-name="G" unicode="G" horiz-adv-x="1521"
d="M1221 141v373q0 51 -6 84.5t-12.5 51.5t-25.5 29t-30.5 13.5t-42.5 7.5v11q90 -4 192 -4q80 0 166 4v-11q-41 -8 -57.5 -20t-24.5 -48.5t-8 -117.5v-401q-34 -10 -119.5 -48.5t-174 -61.5t-201.5 -23q-153 0 -284 41.5t-225 114t-160.5 168.5t-99 205.5t-32.5 225.5
q0 152 52 289t148.5 243t246 169t331.5 63q90 0 184 -15t156.5 -32t183.5 -53q-6 -67 -6 -193q0 -66 2 -80h-10q-11 110 -84 186t-179 109t-239 33q-88 0 -172 -23.5t-163.5 -78t-139 -134.5t-95.5 -202.5t-36 -272.5q0 -210 83.5 -375t226 -254t317.5 -89q93 0 186 28.5
t152 87.5z" />
    <glyph glyph-name="H" unicode="H" horiz-adv-x="1501"
d="M1395 6v-10q-86 4 -178 4q-89 0 -179 -4v10q33 5 49 11t30.5 25t19 54.5t4.5 96.5v571q-135 2 -404 2q-252 0 -377 -2v-571q0 -61 4.5 -96.5t19 -54.5t30.5 -25t49 -11v-10q-86 4 -178 4q-89 0 -179 -4v10q33 5 49 11t30.5 25t19 54.5t4.5 96.5v1099q0 61 -4.5 96.5
t-19 54.5t-30.5 25t-49 11v10q90 -4 179 -4q92 0 178 4v-10q-33 -5 -49 -11t-30.5 -25t-19 -54.5t-4.5 -96.5v-465q125 -2 377 -2q269 0 404 2v465q0 61 -4.5 96.5t-19 54.5t-30.5 25t-49 11v10q90 -4 179 -4q92 0 178 4v-10q-33 -5 -49 -11t-30.5 -25t-19 -54.5t-4.5 -96.5
v-1099q0 -61 4.5 -96.5t19 -54.5t30.5 -25t49 -11z" />
    <glyph glyph-name="I" unicode="I" horiz-adv-x="569"
d="M463 6v-10q-86 4 -178 4q-89 0 -179 -4v10q33 5 49 11t30.5 25t19 54.5t4.5 96.5v1099q0 61 -4.5 96.5t-19 54.5t-30.5 25t-49 11v10q90 -4 179 -4q92 0 178 4v-10q-33 -5 -49 -11t-30.5 -25t-19 -54.5t-4.5 -96.5v-1099q0 -61 4.5 -96.5t19 -54.5t30.5 -25t49 -11z" />
    <glyph glyph-name="J" unicode="J" horiz-adv-x="567"
d="M43 -408l-2 11q106 20 137 68t31 188v1433q0 40 -3.5 69.5t-13 49t-18.5 31.5t-26.5 19.5t-30.5 10.5t-37 7v10q90 -4 205 -4q110 0 196 4v-10q-20 -4 -28 -6t-23.5 -7t-21.5 -10t-16.5 -14.5t-14.5 -22.5t-9 -31t-6.5 -42t-1.5 -54v-1255q0 -99 -13 -169.5t-46.5 -131
t-97 -96t-160.5 -48.5z" />
    <glyph glyph-name="K" unicode="K" horiz-adv-x="1173"
d="M1221 6v-10q-86 4 -187 4q-90 0 -180 -4v10q59 5 59 31q0 10 -8 23.5t-17 25t-28 33.5t-29 35l-471 571v-532q0 -61 4.5 -96.5t19 -54.5t30.5 -25t49 -11v-10q-86 4 -178 4q-89 0 -179 -4v10q33 5 49 11t30.5 25t19 54.5t4.5 96.5v1099q0 61 -4.5 96.5t-19 54.5t-30.5 25
t-49 11v10q90 -4 179 -4q92 0 178 4v-10q-33 -5 -49 -11t-30.5 -25t-19 -54.5t-4.5 -96.5v-524l295 328q151 167 207 237t56 105q0 19 -13.5 28.5t-46.5 12.5v10q90 -4 168 -4q96 0 182 4v-10q-83 -16 -193.5 -118.5t-437.5 -446.5q-65 -68 -100 -105l557 -659
q40 -48 55.5 -65.5t41 -40.5t45 -30t45.5 -8z" />
    <glyph glyph-name="L" unicode="L" horiz-adv-x="962"
d="M930 264h10q-1 -94 -6.5 -163t-5.5 -107q-190 6 -422 6q-326 0 -412 -4v10q73 12 95 47t22 140v1099q0 81 -11 119.5t-29.5 49.5t-61.5 18v10q90 -4 178 -4q92 0 178 4v-10q-33 -5 -49 -11t-30.5 -25t-19 -54.5t-4.5 -96.5v-1218q37 -13 175 -13h108t82.5 3t67 7.5t46 15
t37 24t22 36.5t19 50t11.5 67z" />
    <glyph glyph-name="M" unicode="M" horiz-adv-x="1794"
d="M1782 6v-10q-86 4 -178 4q-113 0 -203 -4v10q62 7 83 22.5t21 49.5q0 12 -16 106l-168 973l-455 -1141h-10l-471 1135l-152 -875q-16 -91 -16 -143q0 -57 23 -86t82 -41v-10q-90 4 -203 4q-49 0 -135 -4v10q80 21 115.5 82.5t62.5 210.5l227 1221h10l502 -1227l498 1227
h10l246 -1360q14 -79 38.5 -109t88.5 -45z" />
    <glyph glyph-name="N" unicode="N" horiz-adv-x="1667"
d="M1450 -45h-10l-1164 1294v-184q0 -671 11 -824q12 -150 48 -192q19 -22 74 -40h1l1 -1h2q3 -1 5 -2v-10q-90 4 -174 4q-76 0 -162 -4v10q55 20 72 38q36 37 48 168q13 143 13 770v85v453h14l1160 -1289v183q0 682 -14 842q-12 144 -49 184q-19 19 -73 37q-4 1 -6 2v10
q90 -4 174 -4t170 4v-10q-57 -19 -75 -35q-38 -34 -51 -156q-15 -142 -15 -739v-123v-471z" />
    <glyph glyph-name="O" unicode="O"
d="M811 -20q-165 0 -305.5 64t-232.5 169.5t-143.5 239.5t-51.5 276q0 146 52.5 283.5t146.5 246t237.5 174.5t312.5 66q148 0 282.5 -58.5t232.5 -159t156 -243t58 -303.5q0 -155 -57 -294t-155 -240.5t-237 -161t-296 -59.5zM811 27q118 0 218 43t176 127t119.5 218.5
t43.5 307.5q0 151 -31.5 274.5t-85 207t-125.5 141t-151 83t-164 25.5q-84 0 -161 -25t-147.5 -81t-122 -138t-82 -204t-30.5 -271q0 -180 42.5 -318t117.5 -222t171.5 -126t211.5 -42z" />
    <glyph glyph-name="P" unicode="P" horiz-adv-x="1032"
d="M463 6v-10q-86 4 -178 4q-89 0 -179 -4v10q33 5 49 11t30.5 25t19 54.5t4.5 96.5v1099q0 49 -5 81.5t-12 51.5t-23 30t-30.5 15.5t-42.5 8.5v10q90 -4 164 -4q61 0 134 2t108 2q129 0 226.5 -31t155.5 -87t86.5 -127.5t28.5 -158.5q0 -78 -27.5 -150.5t-78 -130.5
t-130.5 -93t-177 -35q-104 0 -162 47l8 16q52 -28 125 -28q134 0 204 94t70 246q0 181 -86 286t-241 105q-73 0 -144 -21v-1228q0 -61 4.5 -96.5t19 -54.5t30.5 -25t49 -11z" />
    <glyph glyph-name="Q" unicode="Q"
d="M1571 -133l2 -4q-49 -58 -129 -58q-159 0 -373 220q-124 -45 -260 -45q-165 0 -305.5 64t-232.5 169.5t-143.5 239.5t-51.5 276q0 146 52.5 283.5t146.5 246t237.5 174.5t312.5 66q148 0 282.5 -58.5t232.5 -159t156 -243t58 -303.5q0 -199 -90 -368t-247 -271
q120 -132 190 -185q75 -55 123 -56q21 0 39 12zM811 27q118 0 218 43t176 127t119.5 218.5t43.5 307.5q0 151 -31.5 274.5t-85 207t-125.5 141t-151 83t-164 25.5q-84 0 -161 -25t-147.5 -81t-122 -138t-82 -204t-30.5 -271q0 -180 42.5 -318t117.5 -222t171.5 -126
t211.5 -42z" />
    <glyph glyph-name="R" unicode="R" horiz-adv-x="1130"
d="M1135 6v-12q-18 -2 -52 -2q-60 2 -92 6t-72 24t-63.5 44.5t-66 87t-79.5 130.5t-104 195q-3 5 -27.5 54.5t-45.5 82.5t-41 50h-132v-473q0 -61 4.5 -96.5t19 -54.5t30.5 -25t49 -11v-10q-86 4 -178 4q-89 0 -179 -4v10q33 5 49 11t30.5 25t19 54.5t4.5 96.5v1099
q0 103 -19.5 140.5t-78.5 46.5v10q70 -4 196 -4q33 0 113 2t100 2q228 0 356 -113.5t128 -296.5q0 -88 -38 -166t-120 -139t-199 -88q20 -15 77 -118t118.5 -216t143.5 -218t149 -128zM360 709h99q107 0 182 25.5t115.5 74t57.5 107.5t17 137q0 170 -84.5 279.5
t-238.5 109.5q-71 0 -148 -21v-712z" />
    <glyph glyph-name="S" unicode="S" horiz-adv-x="933"
d="M121 340h10q-4 -36 -4 -51q0 -80 47.5 -140.5t119.5 -89t155 -28.5q115 0 196.5 71.5t81.5 204.5q0 83 -34 152t-88 118t-119.5 94t-131 91.5t-119.5 98.5t-88 127t-34 165q0 164 106.5 265.5t272.5 101.5q64 0 150.5 -16.5t121.5 -16.5q23 0 35 2q-6 -65 -6 -135
q0 -82 2 -113h-13q-23 118 -97 177t-189 59q-106 0 -178 -59t-72 -173q0 -62 21 -116t56 -95t81 -78.5t96.5 -72t101 -69.5t96.5 -77.5t81 -90t56 -112t21 -139.5q0 -188 -121 -301.5t-305 -113.5q-73 0 -162 19t-133 19q-19 0 -31 -2q2 10 2 54q0 23 -5 69t-5 72
q0 72 25 129z" />
    <glyph glyph-name="T" unicode="T" horiz-adv-x="1118"
d="M750 6v-10q-86 4 -179 4q-88 0 -178 -4v10q33 5 49 11t30.5 25t19 54.5t4.5 96.5v1214h-91.5t-76.5 -1t-68.5 -2.5t-55 -5t-49 -8t-38 -12t-34.5 -16.5t-26 -22t-24.5 -28.5t-18.5 -35.5h-10q7 34 31.5 111t38.5 149h10q4 -48 74 -58t370 -10q364 0 460.5 7.5t139.5 44.5
h13q-11 -26 -34.5 -106.5t-29.5 -113.5h-12q4 16 4 31q0 25 -14 38.5t-62 22.5t-126.5 12t-219.5 3v-1214q0 -61 4.5 -96.5t19 -54.5t30.5 -25t49 -11z" />
    <glyph glyph-name="U" unicode="U" horiz-adv-x="1400"
d="M1147 532v672q0 72 -4.5 115t-12 71t-27.5 43.5t-40.5 23.5t-60.5 18q-6 1 -9 2v10q90 -4 187 -4q84 0 170 4v-10q-36 -10 -51.5 -15t-36.5 -17.5t-27.5 -27.5t-15 -44.5t-10 -68t-1.5 -98.5v-645q0 -339 -141 -467q-75 -67 -169 -97t-181 -30q-238 0 -373 107
q-88 69 -126 178.5t-38 277.5v762q0 81 -11 119.5t-29.5 49.5t-61.5 18v10q90 -4 178 -4q107 0 193 4v-10q-47 -6 -68.5 -17t-35 -50.5t-13.5 -119.5v-739q0 -161 23 -260t79 -152q114 -108 291 -108q187 0 293 106q129 126 129 393z" />
    <glyph glyph-name="V" unicode="V" horiz-adv-x="1259"
d="M639 -45h-12l-502 1370q-18 48 -34.5 77t-39 44.5t-40.5 21t-54 11.5v10q86 -4 223 -4q111 0 201 4v-10q-59 -6 -84 -24.5t-25 -53.5q0 -28 25 -101l381 -1050l293 846q31 91 43 128.5t23.5 83.5t11.5 72q0 44 -25.5 67t-83.5 32v10q90 -4 223 -4q49 0 135 4v-10
q-55 -16 -91 -52t-76 -117t-97 -241z" />
    <glyph glyph-name="W" unicode="W" horiz-adv-x="1871"
d="M1231 -45h-12l-279 741l-295 -741h-12l-508 1370q-29 78 -56.5 109.5t-84.5 44.5v10q86 -4 196 -4q92 0 182 4v-10q-50 -6 -70 -24.5t-20 -53.5q0 -28 25 -101l387 -1042l219 539l-198 528q-32 82 -65 110.5t-99 43.5v10q86 -4 211 -4q80 0 170 4v-10q-82 -11 -82 -70
q0 -34 28 -109l117 -301l39 97q84 206 84 278q0 91 -102 105v10q90 -4 237 -4q49 0 135 4v-10q-57 -11 -91.5 -37t-82.5 -112t-117 -261l-65 -166l248 -645l317 838q76 200 76 274q0 49 -27 75.5t-86 37.5v6q90 -4 256 -4q50 0 136 4v-6q-65 -19 -91 -38q-60 -44 -131 -205
q-31 -70 -69 -171z" />
    <glyph glyph-name="X" unicode="X" horiz-adv-x="1271"
d="M1319 6v-10q-86 4 -207 4q-141 0 -231 -4v10q55 4 77.5 18t22.5 42q0 39 -51 116l-309 484l-187 -277q-50 -75 -75.5 -115t-50.5 -94t-25 -88q0 -72 92 -86v-10q-90 4 -215 4q-144 0 -230 -4v10q50 7 84 19.5t68 34.5t76 71t88.5 111t124.5 174l215 307l-383 602
q-31 50 -57.5 80t-54.5 45t-46.5 19.5t-54.5 9.5v10q86 -4 223 -4q152 0 242 4v-10q-93 -12 -93 -72q0 -39 41 -104l281 -451l160 244q78 120 113.5 191t35.5 112q0 68 -98 80v10q90 -4 223 -4q103 0 189 4v-10q-39 -12 -56.5 -19.5t-54 -32.5t-71 -64.5t-90 -112.5
t-128.5 -181l-186 -276l397 -633q55 -88 97.5 -116.5t103.5 -37.5z" />
    <glyph glyph-name="Y" unicode="Y" horiz-adv-x="1181"
d="M768 6v-10q-86 4 -178 4q-88 0 -178 -4v10q44 8 62 19t29 49t11 119v307l-412 825q-23 45 -33.5 63.5t-28.5 41t-37.5 32.5t-49.5 17v10q86 -4 205 -4q92 0 182 4v-10q-92 -11 -92 -66q0 -39 39 -113l344 -698l254 494q103 201 116 237t13 72q0 31 -19.5 49t-64.5 25v10
q90 -4 149 -4q70 0 156 4v-10q-61 -13 -88.5 -48t-122.5 -217q-47 -89 -76 -145l-282 -539v-337q0 -81 11 -119t29 -49t62 -19z" />
    <glyph glyph-name="Z" unicode="Z" horiz-adv-x="1220"
d="M1128 262h11q0 -64 -2 -128t-2 -83q0 -34 2 -57q-279 6 -820 6h-288v10l944 1413h-342q-91 0 -132 -0.5t-105 -3t-90 -8t-66.5 -16t-56.5 -25.5t-37 -38.5t-31 -54t-17 -71.5h-10q0 46 5 137t5 146q186 -4 809 -4h285v-10l-946 -1414h356q116 0 170 1t124.5 7t99 18
t62 34.5t48 56t24.5 84.5z" />
    <glyph glyph-name="bracketleft" unicode="[" horiz-adv-x="454"
d="M362 -238h-204v1809h202v-45h-79v-1721h81v-43z" />
    <glyph glyph-name="backslash" unicode="\" horiz-adv-x="868"
d="M807 -94h-64l-682 1665h64z" />
    <glyph glyph-name="bracketright" unicode="]" horiz-adv-x="454"
d="M297 -238h-205v43h82v1721h-80v45h203v-1809z" />
    <glyph glyph-name="asciicircum" unicode="^" horiz-adv-x="790"
d="M750 778h-50l-301 459l-309 -459h-49l332 553h49z" />
    <glyph glyph-name="underscore" unicode="_" horiz-adv-x="993"
d="M877 31v-62q-80 2 -381 2t-379 -2v62q156 -4 379 -4q221 0 381 4z" />
    <glyph glyph-name="grave" unicode="`" horiz-adv-x="681"
d="M559 1085l-22 -18l-332 248l78 82z" />
    <glyph glyph-name="a" unicode="a" horiz-adv-x="909"
d="M883 94l4 -10q-66 -104 -148 -104q-54 0 -84 36t-30 93q-62 -60 -141 -94.5t-165 -34.5q-124 0 -193 65.5t-69 159.5q0 110 90.5 185t239.5 75q64 0 128.5 -18t109.5 -50v346q0 101 -44 152t-143 51q-58 0 -109.5 -27t-88 -87t-39.5 -144h-105q21 135 122.5 215t236.5 80
q301 0 301 -266v-539q0 -64 13 -89.5t46 -25.5q35 0 68 31zM625 150v210q-32 31 -85 48.5t-112 17.5q-104 0 -163.5 -63t-59.5 -146q0 -74 48.5 -127t137.5 -53q136 0 234 113z" />
    <glyph glyph-name="b" unicode="b" horiz-adv-x="1042"
d="M90 55v6q34 19 40.5 63t6.5 220v1051q0 59 -15 79.5t-75 30.5v11q157 10 221 45v-674q119 96 262 96q110 0 197 -39t140.5 -105t81.5 -148.5t28 -174.5q0 -79 -20 -156.5t-59.5 -145.5t-94.5 -120.5t-129.5 -83t-159.5 -30.5q-70 0 -130.5 20t-112.5 39.5t-101 19.5
q-51 0 -80 -4zM268 844v-543q0 -145 62 -209.5t178 -64.5q79 0 137.5 35t92.5 98t50.5 141.5t16.5 173.5q0 98 -17 180t-52.5 146.5t-95 100.5t-138.5 36q-131 0 -234 -94z" />
    <glyph glyph-name="c" unicode="c" horiz-adv-x="962"
d="M883 147l8 -8q-129 -159 -340 -159q-118 0 -212.5 41.5t-153 111.5t-89 156.5t-30.5 181.5q0 102 32.5 192.5t94 162.5t160.5 114.5t222 42.5q142 0 232.5 -57t110.5 -146h-148q-5 31 -17 58.5t-34.5 56t-62.5 45t-93 16.5q-84 0 -149 -39t-102.5 -104t-56.5 -142
t-19 -161q0 -224 103.5 -354.5t278.5 -130.5q152 0 265 122z" />
    <glyph glyph-name="d" unicode="d" horiz-adv-x="1077"
d="M1067 74l6 -11q-58 -83 -158 -83q-63 0 -92.5 27.5t-38.5 88.5q-106 -116 -280 -116q-103 0 -188 40t-138.5 107t-82.5 151.5t-29 176.5q0 149 67.5 271t178.5 189.5t239 67.5q117 0 227 -68v480q0 59 -15 79.5t-75 30.5v11q157 10 221 45v-1287q0 -102 5.5 -149.5
t19.5 -65.5t45 -18q44 0 88 33zM778 215v584q-32 66 -99 104.5t-142 38.5q-127 0 -211 -115.5t-84 -351.5q0 -188 89.5 -307t248.5 -119q29 0 60 7.5t63.5 25t53.5 52t21 81.5z" />
    <glyph glyph-name="e" unicode="e" horiz-adv-x="950"
d="M887 147l8 -8q-129 -159 -340 -159q-119 0 -214.5 42.5t-153.5 113.5t-88.5 159t-30.5 184q0 213 124.5 358.5t311.5 145.5q158 0 267.5 -102t109.5 -260h-643q-5 -50 -5 -70q0 -238 112 -371t292 -133q70 0 129.5 22t120.5 78zM242 662h471q-6 140 -62 217t-151 77
q-94 0 -164.5 -80.5t-93.5 -213.5z" />
    <glyph glyph-name="f" unicode="f" horiz-adv-x="479"
d="M367 6v-10q-90 4 -154 4t-154 -4v10q36 7 51.5 18t26 50t10.5 119v739h-34v6l34 35q0 203 28.5 321t121.5 197q94 80 207 80q69 0 112 -31l-86 -110q-59 63 -129 63q-83 0 -102.5 -92.5t-19.5 -331.5v-96h124q27 0 34.5 1.5t11.5 8.5h10q0 -15 -2 -56t-2 -71h-9
q0 46 -15 61t-69 15h-83v-739q0 -80 10.5 -119t26 -50t51.5 -18z" />
    <glyph glyph-name="g" unicode="g" horiz-adv-x="940"
d="M946 924l-74 -119q-16 63 -59 63q-30 0 -61 -28q59 -81 59 -191q0 -149 -105.5 -237t-259.5 -88q-25 0 -71 4q-94 -30 -94 -113q0 -19 4.5 -33.5t14.5 -25.5t21 -19.5t30 -14.5t35 -9.5t42.5 -7t45.5 -5.5t51.5 -5t54.5 -5q173 -19 251 -90.5t78 -171.5
q0 -116 -116.5 -202.5t-321.5 -86.5q-111 0 -207 28t-159.5 89t-63.5 143q0 81 60.5 148t185.5 106q-69 13 -105.5 43.5t-36.5 91.5q0 59 46 98.5t110 57.5q-109 35 -167 120t-58 189q0 63 23.5 121t67.5 105t115.5 75.5t159.5 28.5q86 0 162.5 -31.5t128.5 -89.5
q86 96 150 96q39 0 63 -34zM367 45q-166 -45 -166 -233q0 -120 76.5 -182t197.5 -62q112 0 188 57t76 178q0 44 -10.5 78.5t-28 58t-43.5 41t-54.5 27.5t-63.5 17t-67.5 10.5t-68.5 6.5q-8 0 -12.5 0.5t-11.5 1t-12 1.5zM440 350q201 0 201 293q0 313 -207 313
q-188 0 -188 -294q0 -163 48 -237.5t146 -74.5z" />
    <glyph glyph-name="h" unicode="h" horiz-adv-x="1042"
d="M995 6v-10q-90 4 -153 4q-64 0 -154 -4v10q36 7 51.5 18t26 50t10.5 119v446q0 74 -14.5 129t-37.5 87.5t-56.5 52.5t-67 27t-74.5 7q-58 0 -125 -22.5t-122 -61.5v-665q0 -80 10.5 -119t26 -50t51.5 -18v-10q-90 4 -154 4t-154 -4v10q36 7 51.5 18t26 50t10.5 119v1202
q0 59 -10 79t-53 31v11q116 8 195 45v-660q132 82 299 82q329 0 329 -334v-456q0 -80 10.5 -119t26 -50t51.5 -18z" />
    <glyph glyph-name="i" unicode="i" horiz-adv-x="432"
d="M373 6v-10q-90 4 -154 4q-63 0 -153 -4v10q36 7 51.5 18t26 50t10.5 119v614q0 59 -10 79.5t-54 31.5v10q116 8 195 45v-780q0 -80 10.5 -119t26 -50t51.5 -18zM303 1204q0 -29 -21 -49t-53 -20q-29 0 -49 20t-20 49q0 32 20 53t49 21q32 0 53 -21t21 -53z" />
    <glyph glyph-name="j" unicode="j" horiz-adv-x="405"
d="M-12 -459l2 15q102 0 124.5 92.5t22.5 398.5v760q0 60 -10 80t-53 31v10q115 8 194 45v-998q0 -62 -3 -108t-11 -100t-25.5 -91.5t-44.5 -70.5t-69.5 -49.5t-98.5 -16.5q-16 0 -28 2zM287 1204q0 -29 -21 -49t-53 -20q-29 0 -49.5 20t-20.5 49q0 32 20 53t50 21
q32 0 53 -21t21 -53z" />
    <glyph glyph-name="k" unicode="k" horiz-adv-x="927"
d="M971 6v-10q-160 4 -187 4q-10 0 -120 -4v10q36 4 36 17q0 9 -14 26l-407 459v-315q0 -80 10.5 -119t26 -50t51.5 -18v-10q-90 4 -154 4t-154 -4v10q36 7 51.5 18t26 50t10.5 119v1202q0 59 -10 79t-53 31v11q116 8 195 45v-1026q192 180 272 267t80 128q0 16 -10.5 24.5
t-38.5 12.5v10q94 -4 145 -4q47 0 145 4v-12q-74 -15 -146.5 -71.5t-340.5 -305.5q62 -70 128 -144.5t106 -120.5t83.5 -95.5t69 -77t53 -56t44.5 -42t36 -25.5t34 -16t32 -5z" />
    <glyph glyph-name="l" unicode="l" horiz-adv-x="446"
d="M377 6v-10q-90 4 -154 4q-63 0 -153 -4v10q36 7 51.5 18t26 50t10.5 119v1202q0 59 -10 79t-54 31v11q116 8 195 45v-1368q0 -80 10.5 -119t26 -50t51.5 -18z" />
    <glyph glyph-name="m" unicode="m" horiz-adv-x="1638"
d="M1591 6v-10q-90 4 -153 4q-64 0 -154 -4v10q36 7 51.5 18t26 50t10.5 119v415q0 334 -225 334q-140 0 -295 -108q37 -75 37 -205v-436q0 -80 10.5 -119t26 -50t51.5 -18v-10q-90 4 -154 4q-63 0 -153 -4v10q36 7 51.5 18t26 50t10.5 119v425q0 81 -14 141.5t-35.5 94.5
t-52.5 54.5t-60 27t-64 6.5q-131 0 -247 -80v-669q0 -80 10.5 -119t26 -50t51.5 -18v-10q-90 4 -154 4q-63 0 -153 -4v10q36 7 51.5 18t26 50t10.5 119v624q0 59 -10 79.5t-54 31.5v10q116 8 195 45v-82q132 82 299 82q183 0 254 -123q176 123 360 123q305 0 305 -365v-425
q0 -80 10.5 -119t26 -50t51.5 -18z" />
    <glyph glyph-name="n" unicode="n" horiz-adv-x="1048"
d="M1001 6v-10q-90 4 -153 4q-64 0 -154 -4v10q36 7 51.5 18t26 50t10.5 119v446q0 74 -14.5 129t-37.5 87.5t-56.5 52.5t-67 27t-74.5 7q-58 0 -125 -22.5t-122 -61.5v-665q0 -80 10.5 -119t26 -50t51.5 -18v-10q-90 4 -154 4q-63 0 -153 -4v10q36 7 51.5 18t26 50
t10.5 119v624q0 59 -10 79.5t-54 31.5v10q116 8 195 45v-82q132 82 299 82q329 0 329 -334v-456q0 -80 10.5 -119t26 -50t51.5 -18z" />
    <glyph glyph-name="o" unicode="o" horiz-adv-x="1120"
d="M567 -12q-233 0 -366 131t-133 360q0 220 141 362t354 142t351.5 -143.5t138.5 -360.5q0 -207 -134 -349t-352 -142zM559 14q80 0 139.5 28.5t94 73t55.5 110.5t28 128.5t7 139.5q0 80 -9 145.5t-32.5 125.5t-60.5 101t-96 65.5t-136 24.5q-311 0 -311 -495q0 -74 8 -135
t30 -120.5t57 -100.5t92.5 -66t133.5 -25z" />
    <glyph glyph-name="p" unicode="p" horiz-adv-x="1112"
d="M365 -455v-10q-90 4 -154 4t-154 -4v10q36 7 51.5 18t26 50t10.5 119v1085q0 59 -15 80t-75 31v10q157 10 221 45v-98q142 98 306 98q138 0 245 -70t162 -185t55 -253q0 -112 -41 -206t-110 -154t-156 -93.5t-182 -33.5q-152 0 -279 84v-340q0 -80 11 -119.5t26.5 -50
t51.5 -17.5zM276 831v-708q100 -92 259 -92q46 0 88.5 10.5t89 40.5t80 77.5t55.5 128t22 185.5q0 123 -42 227t-123.5 168t-186.5 64q-129 0 -242 -101z" />
    <glyph glyph-name="q" unicode="q" horiz-adv-x="1099"
d="M1036 -455v-10q-90 4 -153 4q-64 0 -154 -4v10q36 7 51.5 18t26 50t10.5 119v334q-121 -86 -268 -86q-127 0 -235.5 55.5t-178 168t-69.5 261.5q0 224 145.5 371t372.5 147q65 0 155.5 -22.5t157.5 -22.5q63 0 141 12v-10q-58 -19 -74 -64t-16 -145v-999q0 -80 10.5 -119
t26 -50t51.5 -18zM817 121v493q0 83 -2 120.5t-12.5 87.5t-33 69.5t-64.5 35t-107 15.5q-165 0 -263.5 -126t-98.5 -345q0 -113 30.5 -201t81 -139t110 -76.5t124.5 -25.5q73 0 136 26.5t99 65.5z" />
    <glyph glyph-name="r" unicode="r" horiz-adv-x="641"
d="M373 6v-10q-90 4 -154 4q-63 0 -153 -4v10q36 7 51.5 18t26 50t10.5 119v624q0 59 -10 79.5t-54 31.5v10q116 8 195 45v-94q108 94 204 94q74 0 103 -45.5t29 -124.5h-132q0 107 -75 107q-61 0 -129 -78v-649q0 -80 10.5 -119t26 -50t51.5 -18z" />
    <glyph glyph-name="s" unicode="s" horiz-adv-x="739"
d="M637 748h-10q-17 87 -75.5 147.5t-154.5 60.5q-78 0 -129 -48t-51 -132q0 -48 25 -86.5t64.5 -65.5t87.5 -52t96.5 -54t88 -64t64.5 -89t25 -123q0 -85 -50 -146t-122.5 -88.5t-155.5 -27.5q-135 0 -258 65q5 29 9.5 114t14.5 130h11q-2 -12 -2 -39q0 -68 20.5 -120.5
t73 -87t131.5 -34.5q84 0 136 51.5t52 145.5q0 53 -24.5 95.5t-63.5 70.5t-86.5 53.5t-95 53t-86.5 60t-63.5 82.5t-24.5 113q0 62 29 112t76.5 79t103 44t113.5 15q113 0 233 -35q-6 -30 -6 -65q0 -3 4 -135z" />
    <glyph glyph-name="t" unicode="t" horiz-adv-x="598"
d="M580 147l10 -6q-33 -81 -94 -121t-142 -40q-38 0 -64.5 4t-56 18t-48 39.5t-30.5 71.5t-12 110v625q0 63 -18 82.5t-82 30.5v10q93 0 158.5 76t91.5 194h12q-31 -181 -31 -268h168q82 0 111 7.5t51 43.5l12 -12q-7 -11 -28 -41t-33.5 -52.5t-22.5 -52.5h-16q4 12 4 23
q0 25 -21.5 34t-76.5 9h-148v-705q0 -105 33.5 -147.5t112.5 -42.5q60 0 97 25t63 85z" />
    <glyph glyph-name="u" unicode="u" horiz-adv-x="1069"
d="M1030 94l4 -10q-15 -24 -25.5 -38t-28.5 -31.5t-41.5 -26t-51.5 -8.5q-59 0 -87 44.5t-28 143.5q-54 -88 -139.5 -138t-190.5 -50q-147 0 -228 86.5t-81 267.5v483q0 57 -19 79t-81 32v10q169 11 231 45v-639q0 -163 54.5 -236t175.5 -73q188 0 278 182v600q0 59 -15 80
t-75 31v10q157 10 221 45v-788q0 -32 1 -49t5.5 -41t16 -35t30.5 -11q36 0 74 35z" />
    <glyph glyph-name="v" unicode="v" horiz-adv-x="993"
d="M477 -33h-14l-371 899q-23 57 -44 74t-66 25v10q9 0 68 -1t102 -1q45 0 106.5 1t69.5 1v-10q-49 -6 -70.5 -18t-21.5 -38q0 -24 14 -59l268 -655l232 520q59 128 59 176q0 66 -102 74v10q7 0 57.5 -1t103.5 -1q39 0 87.5 1t58.5 1v-10q-30 -6 -48.5 -15.5t-45 -37.5
t-57.5 -84.5t-72 -149.5z" />
    <glyph glyph-name="w" unicode="w" horiz-adv-x="1503"
d="M975 -33h-14l-228 662l-287 -662h-14l-338 899q-21 57 -43 73.5t-67 25.5v10q9 0 68 -1t102 -1q45 0 106.5 1t69.5 1v-10q-49 -6 -70.5 -18t-21.5 -38q0 -15 14 -59l235 -655l220 507l-56 164q-18 51 -43.5 68.5t-87.5 30.5v10q129 -6 242 -6q48 0 116.5 3t86.5 3v-10
q-44 -10 -77.5 -40t-68.5 -106l199 -624l237 520q60 130 60 174q0 68 -107 76v10q7 0 60 -1t106 -1q39 0 89.5 1t60.5 1v-10q-27 -6 -40 -11t-35.5 -21.5t-41.5 -45t-47.5 -80.5t-63.5 -129z" />
    <glyph glyph-name="x" unicode="x" horiz-adv-x="1030"
d="M1053 8v-10q-8 0 -94 1t-134 1q-58 0 -92.5 -1t-42.5 -1v10q49 6 49 33q0 18 -45 82l-223 307l-129 -172q-1 -1 -21.5 -27.5t-29.5 -40.5t-25 -39t-23 -46t-7 -39q0 -50 67 -58v-10q-7 0 -73 1t-119 1q-39 0 -77 -1t-48 -1v10q50 5 76 19q70 38 225 232q67 83 159 206
l-288 401q-20 28 -40.5 46.5t-43 29t-37.5 14.5t-41 9v10q9 0 109 -2t143 -2q45 0 90.5 2t56.5 2v-10q-51 -7 -77.5 -19.5t-26.5 -38.5q0 -32 28 -69l201 -279l115 152q117 160 117 204q0 41 -52 46v10q7 0 60 -1t106 -1q39 0 90.5 1t61.5 1v-10q-55 -6 -87 -22
q-97 -51 -302 -310q-39 -48 -82 -105l305 -418q24 -33 48.5 -53t53.5 -29t46 -11.5t53 -4.5z" />
    <glyph glyph-name="y" unicode="y" horiz-adv-x="1060"
d="M473 -453v-10q-7 0 -81.5 1t-127.5 1q-39 0 -71.5 -1t-42.5 -1v10q51 4 80.5 21.5t70 78.5t102.5 193l82 172l-376 850q-19 41 -40 63t-37.5 28t-49.5 12v10q9 0 76 -1t110 -1q45 0 106.5 1t69.5 1v-10q-51 -7 -72.5 -18t-21.5 -38q0 -24 16 -63l297 -668l254 533
q60 130 60 176q0 70 -103 78v10q7 0 58 -1t104 -1q39 0 87 1t58 1v-10q-41 -8 -66 -26t-61.5 -76.5t-95.5 -184.5l-393 -838q-74 -158 -74 -219q0 -37 19.5 -51t62.5 -23z" />
    <glyph glyph-name="z" unicode="z" horiz-adv-x="954"
d="M872 272h11q0 -52 -7.5 -138t-7.5 -138q-246 4 -632 4h-189v6l666 920h-226h-117t-86.5 -3.5t-68 -7t-44.5 -16t-34 -23.5t-20 -37.5t-18.5 -50.5t-12.5 -69h-10q6 65 6 145q0 55 -4 113q82 -4 405 -4q305 0 422 4v-10l-669 -920h313q135 0 199.5 19.5t90 64t33.5 141.5z
" />
    <glyph glyph-name="braceleft" unicode="{" horiz-adv-x="452"
d="M373 -231v-7q-42 0 -73.5 5t-54.5 14t-38.5 26t-24.5 35.5t-14 48t-6.5 58t-1.5 71.5v490q0 75 -21 112t-76 54v8q54 21 75.5 81.5t21.5 164.5v399q0 138 41.5 188t171.5 50v-6q-32 -10 -51 -29t-27 -51t-10 -57t-2 -70v-469q0 -29 -0.5 -44.5t-3.5 -40.5t-9.5 -40.5
t-18 -32.5t-30 -28.5t-43.5 -18.5q37 -13 59 -31.5t31.5 -48.5t12 -55.5t2.5 -73.5v-510q0 -40 2 -63.5t10.5 -51.5t27.5 -46.5t50 -30.5z" />
    <glyph glyph-name="bar" unicode="|" horiz-adv-x="391"
d="M238 -461h-82q2 182 2 1008q0 834 -2 1014h82q-5 -450 -5 -1014q0 -553 5 -1008z" />
    <glyph glyph-name="braceright" unicode="}" horiz-adv-x="452"
d="M80 -238v7q31 12 50 30.5t27.5 46.5t10.5 51.5t2 63.5v510q0 48 2 73t11.5 55.5t31.5 49t59 31.5q-37 10 -59.5 30t-31.5 52.5t-11 55.5t-2 67v469q0 45 -2 70t-10 57t-27 51t-51 29v6q130 0 171.5 -50t41.5 -188v-399q0 -104 21 -164.5t75 -81.5v-8q-55 -17 -75.5 -54
t-20.5 -112v-490q0 -43 -1.5 -71.5t-6.5 -58t-14 -48t-24.5 -35.5t-38.5 -26t-54.5 -14t-73.5 -5z" />
    <glyph glyph-name="asciitilde" unicode="~" horiz-adv-x="1001"
d="M938 1307h8q-5 -30 -14.5 -61t-29.5 -67.5t-47 -64.5t-70 -46.5t-95 -18.5q-51 0 -108.5 22t-101 48.5t-101.5 48.5t-111 22q-74 0 -116.5 -30.5t-69.5 -110.5h-8q19 110 88.5 177.5t169.5 67.5q52 0 111 -22t103.5 -48.5t103.5 -48.5t112 -22q66 0 110.5 43.5
t65.5 110.5z" />
    <glyph glyph-name="nbspace" unicode="&#xa0;" horiz-adv-x="512"
 />
    <glyph glyph-name="exclamdown" unicode="&#xa1;" horiz-adv-x="432"
d="M211 741h14q0 -32 18.5 -174t37 -368.5t18.5 -464.5q0 -123 -84 -123q-86 0 -86 123q0 237 20.5 464t41 369t20.5 174zM293 981q0 -30 -22.5 -51t-55.5 -21q-29 0 -50.5 21.5t-21.5 50.5q0 33 21 55.5t51 22.5q34 0 56 -22t22 -56z" />
    <glyph glyph-name="cent" unicode="&#xa2;" horiz-adv-x="1142"
d="M1018 362l10 -10q-140 -181 -379 -184v-168h-47v168q-128 6 -230.5 56t-166 129.5t-96.5 177t-33 204.5q0 109 33.5 208.5t97.5 180.5t166 133.5t229 63.5v164h47v-162q2 0 8 1t9 1q162 0 266 -66t127 -167l-174 6q-5 34 -18 65t-38.5 62.5t-71.5 50t-108 18.5v-1071
q40 -4 66 -4q173 0 303 143zM602 233v1057q-84 -10 -149.5 -58.5t-103.5 -121.5t-57.5 -156.5t-19.5 -173.5q0 -220 87.5 -364.5t242.5 -182.5z" />
    <glyph glyph-name="sterling" unicode="&#xa3;" horiz-adv-x="956"
d="M874 264h11q-1 -94 -7 -163t-6 -107q-190 6 -421 6q-275 0 -361 -4v10q73 12 95 47t22 140v528h-115v47h115v209q0 194 36 312t134 202q94 80 207 80q69 0 112 -31l-86 -110q-59 63 -129 63q-22 0 -40 -6.5t-30.5 -23t-21.5 -33t-15 -49.5t-9 -59t-4.5 -74.5t-2 -82.5
t-0.5 -96v-301h355v-47h-355v-647q37 -13 123 -13h108t82.5 3t67 7.5t46 15t37 24t22 36.5t19 50t11.5 67z" />
    <glyph glyph-name="currency" unicode="&#xa4;" horiz-adv-x="1226"
d="M1006 156l-154 151q-102 -51 -229 -51q-140 0 -246 47l-150 -147l-43 43l135 135q-95 62 -145.5 167.5t-50.5 246.5q0 128 50.5 233t141.5 174l-131 131l43 43l142 -141q114 63 249 63t246 -63l142 141l43 -43l-134 -133q91 -69 142 -173.5t51 -231.5q0 -126 -53 -233.5
t-150 -174.5l144 -141zM621 330q124 0 219.5 57.5t144.5 152t49 208.5q0 185 -117.5 307.5t-298.5 122.5q-182 0 -301.5 -121t-119.5 -309q0 -194 113 -306t311 -112z" />
    <glyph glyph-name="yen" unicode="&#xa5;" horiz-adv-x="1439"
d="M1298 352h-503v-159q0 -81 11 -119t29 -49t62 -19v-10q-86 4 -178 4q-88 0 -178 -4v10q44 8 62 19t29 49t11 119v159h-510v47h510v101l-84 168h-426v47h402l-304 610q-23 45 -33.5 63.5t-28.5 41t-37.5 32.5t-49.5 17v10q86 -4 205 -4q92 0 182 4v-10q-92 -11 -92 -66
q0 -39 39 -113l344 -698l254 494q103 201 116 237q13 37 13 72q0 31 -19.5 49t-64.5 25v10q90 -4 149 -4q70 0 156 4v-10q-61 -13 -88.5 -48t-122.5 -217q-47 -89 -76 -145l-186 -354h407v-47h-432l-71 -138v-131h503v-47z" />
    <glyph glyph-name="brokenbar" unicode="&#xa6;" horiz-adv-x="403"
d="M244 -461h-82q2 158 2 871h76q0 -563 4 -871zM240 743h-76q0 671 -2 818h82q-4 -282 -4 -818z" />
    <glyph glyph-name="section" unicode="&#xa7;" horiz-adv-x="909"
d="M129 295h10q-2 -12 -2 -39q0 -68 20.5 -120.5t73 -87t131.5 -34.5q84 0 136.5 51.5t52.5 145.5q0 53 -24.5 97.5t-64 76.5t-87 62t-94.5 61.5t-86.5 67.5t-64 88.5t-24.5 115.5q0 105 73.5 167t182.5 77q-133 100 -133 244q0 62 29 112t76.5 79t103 44t113.5 15
q113 0 233 -35q-6 -30 -6 -66q0 -3 4 -135h-10q-17 87 -75 148t-154 61q-78 0 -129.5 -48t-51.5 -132q0 -48 25 -89t64.5 -71.5t88 -60t96.5 -63t87.5 -72t64.5 -95t25 -125.5q0 -100 -64.5 -164t-164.5 -88q106 -99 106 -235q0 -85 -50 -146t-122.5 -88.5t-155.5 -27.5
q-135 0 -258 65q5 28 10 113.5t15 130.5zM551 512q57 18 90 65.5t33 120.5q0 38 -13 71t-31 57t-49.5 49.5t-57 42t-66 42t-64.5 41.5q-68 -8 -110.5 -55t-42.5 -123q0 -43 18.5 -79.5t54 -66.5t71.5 -53.5t85.5 -55t81.5 -56.5z" />
    <glyph glyph-name="dieresis" unicode="&#xa8;" horiz-adv-x="610"
d="M248 1157q0 -28 -22.5 -50t-51.5 -22t-50.5 22t-21.5 50t21.5 50t50.5 22t51.5 -22t22.5 -50zM436 1085q-29 0 -51.5 22t-22.5 50t22.5 50t51.5 22q28 0 50 -22t22 -50t-22 -50t-50 -22z" />
    <glyph glyph-name="copyright" unicode="&#xa9;" horiz-adv-x="1796"
d="M1716 752q0 -167 -65 -318.5t-174.5 -261t-261 -174t-318.5 -64.5t-318.5 64.5t-260.5 174t-173.5 261t-64.5 318.5t64.5 318.5t173.5 261t260.5 174.5t318.5 65t318.5 -65t261 -174.5t174.5 -261t65 -318.5zM1645 752q0 153 -59 291t-159 238t-238.5 159t-291.5 59
t-291 -59t-237.5 -159t-158 -238t-58.5 -291t58.5 -291t158 -237.5t237.5 -158.5t291 -59t291.5 59t238.5 158.5t159 237.5t59 291zM1284 492h19q-9 -57 -9 -173q-183 -92 -358 -92q-133 0 -241.5 44.5t-176.5 119.5t-104.5 168.5t-36.5 194.5q0 80 21.5 156t66.5 144
t108 119t152.5 81t194.5 30q35 0 74 -4t64.5 -7.5t70 -14t56.5 -13.5t61 -17l48 -14q-6 -49 -6 -114q0 -59 2 -96h-16q-10 111 -104.5 170t-243.5 59q-77 0 -146 -31t-123.5 -90t-86 -153t-31.5 -211q0 -112 38.5 -203.5t100.5 -147t134 -85t146 -29.5q73 0 137.5 21.5
t116.5 70t72 117.5z" />
    <glyph glyph-name="ordfeminine" unicode="&#xaa;" horiz-adv-x="866"
d="M737 467h-594v41h594v-41zM776 739l2 -6q-20 -33 -52.5 -57.5t-70.5 -24.5q-42 0 -70 29t-28 72q-108 -101 -235 -101q-98 0 -150.5 54t-52.5 141q0 99 69 160t185 61q108 0 184 -51v215q0 78 -34 116.5t-111 38.5q-70 0 -125 -49.5t-58 -138.5h-100q17 106 97 166.5
t200 60.5q37 0 70 -4.5t67.5 -18.5t59 -35.5t40 -59t15.5 -86.5v-416q0 -50 9.5 -69t35.5 -19q28 0 53 22zM557 793v184q-55 49 -151 49q-68 0 -110 -50.5t-42 -119.5q0 -63 33.5 -106t89.5 -43q101 0 180 86z" />
    <glyph glyph-name="guillemotleft" unicode="&#xab;" horiz-adv-x="839"
d="M397 188l-342 273v55l342 272v-55l-235 -244l235 -245v-56zM725 188l-342 273v55l342 272v-55l-236 -244l236 -245v-56z" />
    <glyph glyph-name="logicalnot" unicode="&#xac;" horiz-adv-x="1052"
d="M918 238h-62q2 74 2 350q-78 2 -326 2q-300 0 -378 -2v61q156 -4 378 -4q221 0 381 4q0 -216 5 -411z" />
    <glyph glyph-name="uni00AD" unicode="&#xad;" horiz-adv-x="641"
d="M524 647v-61q-68 2 -205 2q-134 0 -202 -2v61q136 -4 202 -4q69 0 205 4z" />
    <glyph glyph-name="registered" unicode="&#xae;" horiz-adv-x="1796"
d="M1716 752q0 -167 -65 -318.5t-174.5 -261t-261 -174t-318.5 -64.5t-318.5 64.5t-260.5 174t-173.5 261t-64.5 318.5t64.5 318.5t173.5 261t260.5 174.5t318.5 65t318.5 -65t261 -174.5t174.5 -261t65 -318.5zM1645 752q0 153 -59 291t-159 238t-238.5 159t-291.5 59
t-291 -59t-237.5 -159t-158 -238t-58.5 -291t58.5 -291t158 -237.5t237.5 -158.5t291 -59t291.5 59t238.5 158.5t159 237.5t59 291zM1329 225v-8q-14 -2 -59 -2q-43 2 -66.5 4.5t-52 18t-46 33t-48.5 63t-57.5 94.5t-75.5 141q-59 115 -82 136h-76v-340q0 -59 8 -86.5
t21 -35.5t45 -14v-10q-13 0 -57.5 1t-71.5 1q-30 0 -84 -1t-68 -1v10q32 6 45.5 14t22 36t8.5 86v788q0 74 -15 101.5t-57 33.5v12q51 -2 164 -2q24 0 81.5 1t72.5 1q166 0 259 -82t93 -214q0 -100 -66 -178.5t-192 -106.5q15 -12 56.5 -87t86 -157t104 -157.5t107.5 -92.5z
M766 756h72q134 0 191.5 63.5t57.5 165.5q0 108 -58.5 184t-156.5 76q-56 0 -106 -14v-475z" />
    <glyph glyph-name="macron" unicode="&#xaf;" horiz-adv-x="681"
d="M621 1188v-62q-94 2 -281 2t-279 -2v62q184 -4 279 -4q93 0 281 4z" />
    <glyph glyph-name="degree" unicode="&#xb0;" horiz-adv-x="643"
d="M580 1176q0 -107 -76 -181.5t-182 -74.5t-182.5 74.5t-76.5 181.5t76 182.5t183 75.5t182.5 -75.5t75.5 -182.5zM512 1176q0 80 -55 135t-135 55t-135.5 -55.5t-55.5 -134.5t56 -134t135 -55q78 0 134 55t56 134z" />
    <glyph glyph-name="plusminus" unicode="&#xb1;" horiz-adv-x="1046"
d="M553 311h-61q2 74 2 353q-279 0 -351 -2v61q148 -4 351 -4q0 278 -2 352h61q-4 -148 -4 -352q202 0 354 4v-61q-76 2 -354 2q0 -205 4 -353zM903 223v-61q-80 2 -381 2t-379 -2v61q156 -4 379 -4q221 0 381 4z" />
    <glyph glyph-name="acute" unicode="&#xb4;" horiz-adv-x="681"
d="M559 1317l-332 -248l-22 18l276 312z" />
    <glyph glyph-name="mu" unicode="&#xb5;" horiz-adv-x="1179"
d="M1092 94l4 -10q-20 -32 -35 -50.5t-45.5 -36t-67.5 -17.5q-59 0 -86.5 44.5t-27.5 143.5q-46 -81 -135 -134.5t-181 -53.5q-135 0 -205 143q0 -73 7.5 -239.5t7.5 -202.5q0 -33 -2 -54.5t-9 -44.5t-23 -34t-40 -11q-26 0 -42.5 11t-24.5 33t-10.5 44.5t-2.5 55.5
q0 49 3.5 116t7 148.5t7 310t3.5 561.5q0 56 -19.5 78.5t-81.5 32.5v10q170 11 232 45v-639q0 -164 54.5 -236.5t174.5 -72.5q189 0 279 182v600q0 59 -15.5 80t-75.5 31v10q158 10 222 45v-788q0 -32 1 -49t5.5 -41t16 -35t30.5 -11q36 0 74 35z" />
    <glyph glyph-name="paragraph" unicode="&#xb6;" horiz-adv-x="1419"
d="M1276 8v-10q-86 4 -170 4q-76 0 -166 -4v10q43 7 61.5 18t29.5 49.5t11 119.5v954q0 114 -18 155.5t-68 41.5q-53 0 -74.5 -42.5t-21.5 -154.5v-1210q0 -61 4.5 -96.5t19 -54.5t30.5 -25t49 -11v-10q-90 4 -179 4q-92 0 -178 -4v10q33 5 49 11t30.5 25t19 54.5t4.5 96.5
v1388q-70 21 -144 21q-155 0 -241 -105.5t-86 -286.5q0 -152 70 -246t204 -94q71 0 125 29l8 -16q-58 -47 -162 -47q-97 0 -177 35t-130.5 93t-78 130.5t-27.5 150.5q0 87 28.5 158.5t86.5 127.5t155.5 87t226.5 31q1 0 153.5 -2t385.5 -2q84 0 170 4v-11q-27 -4 -40.5 -8.5
t-28 -15t-20 -30t-9.5 -51.5t-4 -81v-1003q0 -81 11 -119.5t29.5 -49.5t61.5 -18z" />
    <glyph glyph-name="periodcentered" unicode="&#xb7;" horiz-adv-x="382"
d="M266 743q0 -30 -22.5 -50.5t-55.5 -20.5q-29 0 -50 21t-21 50q0 33 20.5 55.5t50.5 22.5q34 0 56 -22t22 -56z" />
    <glyph glyph-name="cedilla" unicode="&#xb8;" horiz-adv-x="507"
d="M102 -297h7q34 -57 108 -57q44 0 75.5 27t31.5 75q0 39 -26 67.5t-65 28.5q-46 0 -86 -37h-4l95 203h26l-47 -127q24 8 51 8q57 0 97.5 -39t40.5 -102q0 -68 -49 -108.5t-113 -40.5q-51 0 -91 26t-51 76z" />
    <glyph glyph-name="ordmasculine" unicode="&#xba;" horiz-adv-x="956"
d="M770 467h-594v41h594v-41zM487 653q-84 0 -152.5 21t-122 65t-83 118.5t-29.5 174.5q0 96 32.5 173t87 124t122 71.5t141.5 24.5t141.5 -25.5t121 -73t85 -124t31.5 -170.5q0 -175 -107 -277t-268 -102zM479 686q68 0 114.5 26t71 77t34.5 112.5t10 145.5
q0 175 -55 259.5t-183 84.5q-53 0 -92.5 -21t-63.5 -55t-38.5 -84t-19.5 -101t-5 -114q0 -163 51 -246.5t176 -83.5z" />
    <glyph glyph-name="guillemotright" unicode="&#xbb;" horiz-adv-x="839"
d="M457 461l-342 -273v56l235 245l-235 244v55l342 -272v-55zM784 461l-342 -273v56l236 245l-236 244v55l342 -272v-55z" />
    <glyph glyph-name="questiondown" unicode="&#xbf;" horiz-adv-x="927"
d="M487 713h17q0 -78 -16 -142.5t-42 -109.5t-57 -84.5t-62.5 -77.5t-57.5 -79t-42 -97.5t-16 -124.5q0 -83 27.5 -148.5t74 -105t102.5 -60t117 -20.5q114 0 197.5 67t83.5 183q0 89 -55.5 156t-145.5 67q-46 0 -86 -8q27 37 36.5 56.5t12.5 47.5q141 -28 218 -126.5
t77 -221.5q0 -108 -54 -186.5t-137 -115t-181 -36.5q-78 0 -150.5 25t-131.5 72t-94.5 123t-35.5 170q0 77 22 142t57.5 113t78 91.5t85.5 87.5t78.5 91t57.5 111.5t22 139.5zM498 905q-34 0 -56 22t-22 56q0 30 22.5 51t55.5 21q29 0 50 -21.5t21 -50.5q0 -33 -20.5 -55.5
t-50.5 -22.5z" />
    <glyph glyph-name="Agrave" unicode="&#xc0;" horiz-adv-x="1191"
d="M1184 6v-10q-86 4 -178 4q-93 0 -183 -4v10q90 5 90 72q0 24 -24 106l-121 385h-236q-145 0 -217 -2l-122 -331q-35 -99 -35 -140q0 -79 94 -90v-10q-90 4 -191 4q-53 0 -139 -4v10q57 14 87 34.5t62 75.5t76 173l463 1231h21l430 -1360q32 -101 49.5 -124t73.5 -30z
M750 629l-189 606l-223 -604q66 -2 194 -2h218zM731 1597l-22 -18l-332 248l78 82z" />
    <glyph glyph-name="Aacute" unicode="&#xc1;" horiz-adv-x="1191"
d="M1184 6v-10q-86 4 -178 4q-93 0 -183 -4v10q90 5 90 72q0 24 -24 106l-121 385h-236q-145 0 -217 -2l-122 -331q-35 -99 -35 -140q0 -79 94 -90v-10q-90 4 -191 4q-53 0 -139 -4v10q57 14 87 34.5t62 75.5t76 173l463 1231h21l430 -1360q32 -101 49.5 -124t73.5 -30z
M750 629l-189 606l-223 -604q66 -2 194 -2h218zM813 1829l-332 -248l-22 18l276 312z" />
    <glyph glyph-name="Acircumflex" unicode="&#xc2;" horiz-adv-x="1191"
d="M1184 6v-10q-86 4 -178 4q-93 0 -183 -4v10q90 5 90 72q0 24 -24 106l-121 385h-236q-145 0 -217 -2l-122 -331q-35 -99 -35 -140q0 -79 94 -90v-10q-90 4 -191 4q-53 0 -139 -4v10q57 14 87 34.5t62 75.5t76 173l463 1231h21l430 -1360q32 -101 49.5 -124t73.5 -30z
M750 629l-189 606l-223 -604q66 -2 194 -2h218zM924 1569h-56l-245 235l-244 -235h-55l272 342h55z" />
    <glyph glyph-name="Atilde" unicode="&#xc3;" horiz-adv-x="1191"
d="M1184 6v-10q-86 4 -178 4q-93 0 -183 -4v10q90 5 90 72q0 24 -24 106l-121 385h-236q-145 0 -217 -2l-122 -331q-35 -99 -35 -140q0 -79 94 -90v-10q-90 4 -191 4q-53 0 -139 -4v10q57 14 87 34.5t62 75.5t76 173l463 1231h21l430 -1360q32 -101 49.5 -124t73.5 -30z
M750 629l-189 606l-223 -604q66 -2 194 -2h218zM903 1776h19q-3 -21 -11 -44t-23 -47.5t-35 -43.5t-49.5 -31.5t-64.5 -12.5q-51 0 -139.5 47.5t-140.5 47.5q-46 0 -68 -20t-41 -75h-20q12 74 59 122t113 48q51 0 141.5 -47t142.5 -47q44 0 74 29.5t43 73.5z" />
    <glyph glyph-name="Adieresis" unicode="&#xc4;" horiz-adv-x="1191"
d="M438 1448q0 -28 -22 -50t-51 -22t-50.5 22t-21.5 50t21.5 50t50.5 22t51 -22t22 -50zM872 1376q-29 0 -51 22t-22 50t22 50t51 22q28 0 50 -22t22 -50t-22 -50t-50 -22zM1184 6v-10q-86 4 -178 4q-93 0 -183 -4v10q90 5 90 72q0 24 -24 106l-121 385h-236q-145 0 -217 -2
l-122 -331q-35 -99 -35 -140q0 -79 94 -90v-10q-90 4 -191 4q-53 0 -139 -4v10q57 14 87 34.5t62 75.5t76 173l463 1231h21l430 -1360q32 -101 49.5 -124t73.5 -30zM750 629l-189 606l-223 -604q66 -2 194 -2h218z" />
    <glyph glyph-name="Aring" unicode="&#xc5;" horiz-adv-x="1191"
d="M1184 6v-10q-86 4 -178 4q-93 0 -183 -4v10q90 5 90 72q0 24 -24 106l-121 385h-236q-145 0 -217 -2l-122 -331q-35 -99 -35 -140q0 -79 94 -90v-10q-90 4 -191 4q-53 0 -139 -4v10q57 14 87 34.5t62 75.5t76 173l463 1231h21l430 -1360q32 -101 49.5 -124t73.5 -30z
M750 629l-189 606l-223 -604q66 -2 194 -2h218zM791 1731q0 -70 -51 -120t-122 -50q-70 0 -119.5 49.5t-49.5 120.5t50 120.5t122 49.5q69 0 119.5 -50t50.5 -120zM735 1731q0 46 -33.5 79t-80.5 33t-81 -33t-34 -79t33 -79.5t79 -33.5q49 0 83 33.5t34 79.5z" />
    <glyph glyph-name="AE" unicode="&#xc6;" horiz-adv-x="1806"
d="M1726 264h11q-1 -94 -7 -163t-6 -107q-190 6 -421 6q-326 0 -412 -4v10q73 12 95 47t22 140v376h-248q-162 0 -242 -2l-227 -331q-56 -81 -70 -108.5t-14 -61.5q0 -52 69 -60l-2 -10q-90 4 -190 4q-107 0 -150 -4l3 10q62 14 98.5 34.5t85.5 75.5t131 173l752 1085
q-8 59 -32.5 77t-86.5 28v10q66 -4 262 -4q477 0 569 4q0 -5 1 -36t1 -50q0 -116 -12 -168h-10q0 28 -1.5 49.5t-8 40t-12 31.5t-20.5 24t-27.5 17.5t-37.5 11.5t-46 7.5t-59 4t-69 2t-84 0.5q-125 0 -172 -12v-610q111 0 162 0.5t108 6.5t75 13t40 28t28 43.5t15 65.5h10
q-4 -126 -4 -190q0 -69 4 -209h-10q-5 30 -8.5 48t-12 38t-13.5 30.5t-22 22.5t-28 17t-40 11t-50.5 7.5t-67.5 3.5t-82.5 2h-103.5v-665q37 -13 174 -13h108t82.5 3t67 7.5t46 15t37 24t22 36.5t19 50t11.5 67zM1008 629v655l-447 -653q66 -2 199 -2h248z" />
    <glyph glyph-name="Ccedilla" unicode="&#xc7;" horiz-adv-x="1486"
d="M1393 330h10q-12 -89 -12 -219q-259 -128 -502 -131l-35 -97q24 8 51 8q57 0 97 -39t40 -102q0 -68 -48.5 -108.5t-112.5 -40.5q-51 0 -91 26t-51 76h6q34 -57 109 -57q44 0 75.5 27t31.5 75q0 39 -26 67.5t-65 28.5q-46 0 -86 -37h-4l80 173q-149 2 -277 45t-220 115
t-157 167.5t-96.5 204t-31.5 223.5t30.5 224.5t94.5 207.5t154.5 171.5t219 117t279.5 43.5q44 0 87 -3t89.5 -10.5t77 -13t82 -18.5t68.5 -17.5t71.5 -20.5t59.5 -17q-7 -93 -7 -195q0 -20 1 -47t1 -31h-10q-15 157 -156.5 242.5t-355.5 85.5q-98 0 -186 -26.5t-164 -84
t-131.5 -141.5t-87 -205.5t-31.5 -269.5q0 -143 38.5 -261.5t102 -198t148 -134.5t174.5 -79.5t184 -24.5q104 0 199.5 30.5t174.5 100.5t108 170z" />
    <glyph glyph-name="Egrave" unicode="&#xc8;" horiz-adv-x="1009"
d="M930 264h10q-1 -94 -6.5 -163t-5.5 -107q-190 6 -422 6q-326 0 -412 -4v10q73 12 95 47t22 140v1099q0 49 -5 81t-12 51.5t-24.5 30t-33.5 15t-48 9.5v10q82 -4 262 -4q478 0 570 4q0 -5 1 -36t1 -50q0 -112 -13 -168h-10q0 28 -1.5 49.5t-7.5 40t-12 31.5t-20.5 24
t-27 17.5t-38 11.5t-46 7.5t-58.5 4t-69 2t-84 0.5q-127 0 -173 -12v-610h103t82.5 1.5t68 3t51 6.5t40.5 9.5t27.5 15t22 19.5t14 26.5t12 33.5t8.5 42h10q-4 -126 -4 -190q0 -69 4 -209h-10q-7 37 -11 58.5t-16.5 43.5t-21.5 32.5t-37 21t-49 14t-73 7t-94.5 3.5h-126.5
v-665q37 -13 175 -13h108t82.5 3t67 7.5t46 15t37 24t22 36.5t19 50t11.5 67zM670 1597l-23 -18l-332 248l78 82z" />
    <glyph glyph-name="Eacute" unicode="&#xc9;" horiz-adv-x="1009"
d="M930 264h10q-1 -94 -6.5 -163t-5.5 -107q-190 6 -422 6q-326 0 -412 -4v10q73 12 95 47t22 140v1099q0 49 -5 81t-12 51.5t-24.5 30t-33.5 15t-48 9.5v10q82 -4 262 -4q478 0 570 4q0 -5 1 -36t1 -50q0 -112 -13 -168h-10q0 28 -1.5 49.5t-7.5 40t-12 31.5t-20.5 24
t-27 17.5t-38 11.5t-46 7.5t-58.5 4t-69 2t-84 0.5q-127 0 -173 -12v-610h103t82.5 1.5t68 3t51 6.5t40.5 9.5t27.5 15t22 19.5t14 26.5t12 33.5t8.5 42h10q-4 -126 -4 -190q0 -69 4 -209h-10q-7 37 -11 58.5t-16.5 43.5t-21.5 32.5t-37 21t-49 14t-73 7t-94.5 3.5h-126.5
v-665q37 -13 175 -13h108t82.5 3t67 7.5t46 15t37 24t22 36.5t19 50t11.5 67zM793 1829l-332 -248l-23 18l277 312z" />
    <glyph glyph-name="Ecircumflex" unicode="&#xca;" horiz-adv-x="1009"
d="M930 264h10q-1 -94 -6.5 -163t-5.5 -107q-190 6 -422 6q-326 0 -412 -4v10q73 12 95 47t22 140v1099q0 49 -5 81t-12 51.5t-24.5 30t-33.5 15t-48 9.5v10q82 -4 262 -4q478 0 570 4q0 -5 1 -36t1 -50q0 -112 -13 -168h-10q0 28 -1.5 49.5t-7.5 40t-12 31.5t-20.5 24
t-27 17.5t-38 11.5t-46 7.5t-58.5 4t-69 2t-84 0.5q-127 0 -173 -12v-610h103t82.5 1.5t68 3t51 6.5t40.5 9.5t27.5 15t22 19.5t14 26.5t12 33.5t8.5 42h10q-4 -126 -4 -190q0 -69 4 -209h-10q-7 37 -11 58.5t-16.5 43.5t-21.5 32.5t-37 21t-49 14t-73 7t-94.5 3.5h-126.5
v-665q37 -13 175 -13h108t82.5 3t67 7.5t46 15t37 24t22 36.5t19 50t11.5 67zM874 1597h-55l-246 236l-243 -236h-56l273 342h55z" />
    <glyph glyph-name="Edieresis" unicode="&#xcb;" horiz-adv-x="1009"
d="M930 264h10q-1 -94 -6.5 -163t-5.5 -107q-190 6 -422 6q-326 0 -412 -4v10q73 12 95 47t22 140v1099q0 49 -5 81t-12 51.5t-24.5 30t-33.5 15t-48 9.5v10q82 -4 262 -4q478 0 570 4q0 -5 1 -36t1 -50q0 -112 -13 -168h-10q0 28 -1.5 49.5t-7.5 40t-12 31.5t-20.5 24
t-27 17.5t-38 11.5t-46 7.5t-58.5 4t-69 2t-84 0.5q-127 0 -173 -12v-610h103t82.5 1.5t68 3t51 6.5t40.5 9.5t27.5 15t22 19.5t14 26.5t12 33.5t8.5 42h10q-4 -126 -4 -190q0 -69 4 -209h-10q-7 37 -11 58.5t-16.5 43.5t-21.5 32.5t-37 21t-49 14t-73 7t-94.5 3.5h-126.5
v-665q37 -13 175 -13h108t82.5 3t67 7.5t46 15t37 24t22 36.5t19 50t11.5 67zM494 1669q0 -28 -22.5 -50t-51.5 -22t-50.5 22t-21.5 50t21.5 50t50.5 22t51.5 -22t22.5 -50zM682 1597q-29 0 -51.5 22t-22.5 50t22.5 50t51.5 22q28 0 50 -22t22 -50t-22 -50t-50 -22z" />
    <glyph glyph-name="Igrave" unicode="&#xcc;" horiz-adv-x="569"
d="M463 6v-10q-86 4 -178 4q-89 0 -179 -4v10q33 5 49 11t30.5 25t19 54.5t4.5 96.5v1099q0 61 -4.5 96.5t-19 54.5t-30.5 25t-49 11v10q90 -4 179 -4q92 0 178 4v-10q-33 -5 -49 -11t-30.5 -25t-19 -54.5t-4.5 -96.5v-1099q0 -61 4.5 -96.5t19 -54.5t30.5 -25t49 -11z
M360 1597l-22 -18l-332 248l78 82z" />
    <glyph glyph-name="Iacute" unicode="&#xcd;" horiz-adv-x="569"
d="M463 6v-10q-86 4 -178 4q-89 0 -179 -4v10q33 5 49 11t30.5 25t19 54.5t4.5 96.5v1099q0 61 -4.5 96.5t-19 54.5t-30.5 25t-49 11v10q90 -4 179 -4q92 0 178 4v-10q-33 -5 -49 -11t-30.5 -25t-19 -54.5t-4.5 -96.5v-1099q0 -61 4.5 -96.5t19 -54.5t30.5 -25t49 -11z
M569 1829l-331 -248l-23 18l277 312z" />
    <glyph glyph-name="Icircumflex" unicode="&#xce;" horiz-adv-x="569"
d="M463 6v-10q-86 4 -178 4q-89 0 -179 -4v10q33 5 49 11t30.5 25t19 54.5t4.5 96.5v1099q0 61 -4.5 96.5t-19 54.5t-30.5 25t-49 11v10q90 -4 179 -4q92 0 178 4v-10q-33 -5 -49 -11t-30.5 -25t-19 -54.5t-4.5 -96.5v-1099q0 -61 4.5 -96.5t19 -54.5t30.5 -25t49 -11z
M586 1597h-56l-245 236l-244 -236h-55l272 342h55z" />
    <glyph glyph-name="Idieresis" unicode="&#xcf;" horiz-adv-x="569"
d="M463 6v-10q-86 4 -178 4q-89 0 -179 -4v10q33 5 49 11t30.5 25t19 54.5t4.5 96.5v1099q0 61 -4.5 96.5t-19 54.5t-30.5 25t-49 11v10q90 -4 179 -4q92 0 178 4v-10q-33 -5 -49 -11t-30.5 -25t-19 -54.5t-4.5 -96.5v-1099q0 -61 4.5 -96.5t19 -54.5t30.5 -25t49 -11z
M227 1669q0 -28 -22 -50t-51 -22t-50.5 22t-21.5 50t21.5 50t50.5 22t51 -22t22 -50zM416 1597q-29 0 -51.5 22t-22.5 50t22.5 50t51.5 22q28 0 49.5 -22t21.5 -50t-21.5 -50t-49.5 -22z" />
    <glyph glyph-name="Eth" unicode="&#xd0;" horiz-adv-x="1572"
d="M66 -4v10q26 4 36.5 6t29.5 6.5t26 10t19 15t16 22t9.5 30.5t7 42t1.5 55v520q-18 0 -51 -1t-49 -1v61q33 -2 100 -2v522q0 40 -3.5 69.5t-14.5 48.5t-19.5 30.5t-30 19.5t-33.5 11t-42 8v10q90 -4 194 -4q68 0 171.5 1t152.5 1q423 0 665 -200t242 -556
q0 -121 -29.5 -229.5t-93 -202t-155 -161t-223 -106t-290.5 -38.5q-51 0 -201 3t-214 3q-131 0 -221 -4zM764 772v-61q-109 2 -328 2h-74v-641q164 -29 338 -29q90 0 167 14.5t148.5 46t126 85.5t95.5 130t62.5 183.5t21.5 240.5q0 147 -36.5 264t-101 197t-156 133t-198 77
t-231.5 24q-136 0 -236 -23v-647h74q110 0 328 4z" />
    <glyph glyph-name="Ntilde" unicode="&#xd1;" horiz-adv-x="1667"
d="M1450 -45h-10l-1164 1294v-184q0 -671 11 -824q12 -150 48 -192q19 -22 74 -40h1l1 -1h2q3 -1 5 -2v-10q-90 4 -174 4q-76 0 -162 -4v10q55 20 72 38q36 37 48 168q13 143 13 770v85v453h14l1160 -1289v183q0 682 -14 842q-12 144 -49 184q-19 19 -73 37q-4 1 -6 2v10
q90 -4 174 -4t170 4v-10q-57 -19 -75 -35q-38 -34 -51 -156q-15 -142 -15 -739v-123v-471zM1110 1776h18q-4 -28 -16 -56.5t-33 -57.5t-55.5 -47t-77.5 -18q-51 0 -139.5 47.5t-140.5 47.5q-46 0 -68 -20t-41 -75h-20q12 74 59 122t113 48q51 0 141.5 -47t142.5 -47
q44 0 74 29.5t43 73.5z" />
    <glyph glyph-name="Ograve" unicode="&#xd2;"
d="M811 -20q-165 0 -305.5 64t-232.5 169.5t-143.5 239.5t-51.5 276q0 146 52.5 283.5t146.5 246t237.5 174.5t312.5 66q148 0 282.5 -58.5t232.5 -159t156 -243t58 -303.5q0 -155 -57 -294t-155 -240.5t-237 -161t-296 -59.5zM811 27q118 0 218 43t176 127t119.5 218.5
t43.5 307.5q0 151 -31.5 274.5t-85 207t-125.5 141t-151 83t-164 25.5q-84 0 -161 -25t-147.5 -81t-122 -138t-82 -204t-30.5 -271q0 -180 42.5 -318t117.5 -222t171.5 -126t211.5 -42zM993 1597l-22 -18l-332 248l78 82z" />
    <glyph glyph-name="Oacute" unicode="&#xd3;"
d="M811 -20q-165 0 -305.5 64t-232.5 169.5t-143.5 239.5t-51.5 276q0 146 52.5 283.5t146.5 246t237.5 174.5t312.5 66q148 0 282.5 -58.5t232.5 -159t156 -243t58 -303.5q0 -155 -57 -294t-155 -240.5t-237 -161t-296 -59.5zM811 27q118 0 218 43t176 127t119.5 218.5
t43.5 307.5q0 151 -31.5 274.5t-85 207t-125.5 141t-151 83t-164 25.5q-84 0 -161 -25t-147.5 -81t-122 -138t-82 -204t-30.5 -271q0 -180 42.5 -318t117.5 -222t171.5 -126t211.5 -42zM993 1829l-331 -248l-23 18l276 312z" />
    <glyph glyph-name="Ocircumflex" unicode="&#xd4;"
d="M811 -20q-165 0 -305.5 64t-232.5 169.5t-143.5 239.5t-51.5 276q0 146 52.5 283.5t146.5 246t237.5 174.5t312.5 66q148 0 282.5 -58.5t232.5 -159t156 -243t58 -303.5q0 -155 -57 -294t-155 -240.5t-237 -161t-296 -59.5zM811 27q118 0 218 43t176 127t119.5 218.5
t43.5 307.5q0 151 -31.5 274.5t-85 207t-125.5 141t-151 83t-164 25.5q-84 0 -161 -25t-147.5 -81t-122 -138t-82 -204t-30.5 -271q0 -180 42.5 -318t117.5 -222t171.5 -126t211.5 -42zM1116 1573h-55l-246 235l-244 -235h-55l272 342h56z" />
    <glyph glyph-name="Otilde" unicode="&#xd5;"
d="M811 -20q-165 0 -305.5 64t-232.5 169.5t-143.5 239.5t-51.5 276q0 146 52.5 283.5t146.5 246t237.5 174.5t312.5 66q148 0 282.5 -58.5t232.5 -159t156 -243t58 -303.5q0 -155 -57 -294t-155 -240.5t-237 -161t-296 -59.5zM811 27q118 0 218 43t176 127t119.5 218.5
t43.5 307.5q0 151 -31.5 274.5t-85 207t-125.5 141t-151 83t-164 25.5q-84 0 -161 -25t-147.5 -81t-122 -138t-82 -204t-30.5 -271q0 -180 42.5 -318t117.5 -222t171.5 -126t211.5 -42zM1094 1776h18q-4 -28 -16 -56.5t-33 -57.5t-55.5 -47t-77.5 -18q-51 0 -140 47.5
t-141 47.5q-46 0 -67.5 -19.5t-40.5 -75.5h-21q12 74 59 122t113 48q51 0 142 -47t143 -47q44 0 74 29.5t43 73.5z" />
    <glyph glyph-name="Odieresis" unicode="&#xd6;"
d="M289 1419q0 -28 -22.5 -49.5t-51.5 -21.5t-50.5 21.5t-21.5 49.5t21.5 50t50.5 22t51.5 -22t22.5 -50zM1419 1348q-29 0 -51 21.5t-22 49.5t22 50t51 22q28 0 50 -22t22 -50t-22 -49.5t-50 -21.5zM811 -20q-165 0 -305.5 64t-232.5 169.5t-143.5 239.5t-51.5 276
q0 146 52.5 283.5t146.5 246t237.5 174.5t312.5 66q148 0 282.5 -58.5t232.5 -159t156 -243t58 -303.5q0 -155 -57 -294t-155 -240.5t-237 -161t-296 -59.5zM811 27q118 0 218 43t176 127t119.5 218.5t43.5 307.5q0 151 -31.5 274.5t-85 207t-125.5 141t-151 83t-164 25.5
q-84 0 -161 -25t-147.5 -81t-122 -138t-82 -204t-30.5 -271q0 -180 42.5 -318t117.5 -222t171.5 -126t211.5 -42z" />
    <glyph glyph-name="multiply" unicode="&#xd7;" horiz-adv-x="847"
d="M672 328l-250 252l-246 -252l-43 43l250 245l-250 248l43 43l246 -250l248 250l43 -43l-252 -246q158 -158 254 -247z" />
    <glyph glyph-name="Oslash" unicode="&#xd8;"
d="M508 -94h-64l58 139q-131 60 -228 168t-146.5 241t-49.5 275q0 146 52.5 283.5t146.5 246t237.5 174.5t312.5 66q129 0 250 -45l49 117h64l-57 -139q192 -91 307.5 -276.5t115.5 -420.5q0 -155 -57 -294t-155 -240.5t-237 -161t-296 -59.5q-132 0 -256 43zM526 106
l527 1287q-113 61 -242 61q-84 0 -161 -25t-147.5 -81t-122 -138t-82 -204t-30.5 -271q0 -235 68 -392t190 -237zM1104 1362l-526 -1284q105 -51 233 -51q118 0 218 43t176 127t119.5 218.5t43.5 307.5q0 233 -71.5 393.5t-192.5 245.5z" />
    <glyph glyph-name="Ugrave" unicode="&#xd9;" horiz-adv-x="1400"
d="M1147 532v672q0 72 -4.5 115t-12 71t-27.5 43.5t-40.5 23.5t-60.5 18q-6 1 -9 2v10q90 -4 187 -4q84 0 170 4v-10q-36 -10 -51.5 -15t-36.5 -17.5t-27.5 -27.5t-15 -44.5t-10 -68t-1.5 -98.5v-645q0 -339 -141 -467q-75 -67 -169 -97t-181 -30q-238 0 -373 107
q-88 69 -126 178.5t-38 277.5v762q0 81 -11 119.5t-29.5 49.5t-61.5 18v10q90 -4 178 -4q107 0 193 4v-10q-47 -6 -68.5 -17t-35 -50.5t-13.5 -119.5v-739q0 -161 23 -260t79 -152q114 -108 291 -108q187 0 293 106q129 126 129 393zM809 1597l-23 -18l-331 248l77 82z" />
    <glyph glyph-name="Uacute" unicode="&#xda;" horiz-adv-x="1400"
d="M1147 532v672q0 72 -4.5 115t-12 71t-27.5 43.5t-40.5 23.5t-60.5 18q-6 1 -9 2v10q90 -4 187 -4q84 0 170 4v-10q-36 -10 -51.5 -15t-36.5 -17.5t-27.5 -27.5t-15 -44.5t-10 -68t-1.5 -98.5v-645q0 -339 -141 -467q-75 -67 -169 -97t-181 -30q-238 0 -373 107
q-88 69 -126 178.5t-38 277.5v762q0 81 -11 119.5t-29.5 49.5t-61.5 18v10q90 -4 178 -4q107 0 193 4v-10q-47 -6 -68.5 -17t-35 -50.5t-13.5 -119.5v-739q0 -161 23 -260t79 -152q114 -108 291 -108q187 0 293 106q129 126 129 393zM993 1829l-331 -248l-23 18l276 312z
" />
    <glyph glyph-name="Ucircumflex" unicode="&#xdb;" horiz-adv-x="1400"
d="M1147 532v672q0 72 -4.5 115t-12 71t-27.5 43.5t-40.5 23.5t-60.5 18q-6 1 -9 2v10q90 -4 187 -4q84 0 170 4v-10q-36 -10 -51.5 -15t-36.5 -17.5t-27.5 -27.5t-15 -44.5t-10 -68t-1.5 -98.5v-645q0 -339 -141 -467q-75 -67 -169 -97t-181 -30q-238 0 -373 107
q-88 69 -126 178.5t-38 277.5v762q0 81 -11 119.5t-29.5 49.5t-61.5 18v10q90 -4 178 -4q107 0 193 4v-10q-47 -6 -68.5 -17t-35 -50.5t-13.5 -119.5v-739q0 -161 23 -260t79 -152q114 -108 291 -108q187 0 293 106q129 126 129 393zM1030 1571h-55l-246 235l-244 -235h-55
l272 342h56z" />
    <glyph glyph-name="Udieresis" unicode="&#xdc;" horiz-adv-x="1400"
d="M1147 532v672q0 72 -4.5 115t-12 71t-27.5 43.5t-40.5 23.5t-60.5 18q-6 1 -9 2v10q90 -4 187 -4q84 0 170 4v-10q-36 -10 -51.5 -15t-36.5 -17.5t-27.5 -27.5t-15 -44.5t-10 -68t-1.5 -98.5v-645q0 -339 -141 -467q-75 -67 -169 -97t-181 -30q-238 0 -373 107
q-88 69 -126 178.5t-38 277.5v762q0 81 -11 119.5t-29.5 49.5t-61.5 18v10q90 -4 178 -4q107 0 193 4v-10q-47 -6 -68.5 -17t-35 -50.5t-13.5 -119.5v-739q0 -161 23 -260t79 -152q114 -108 291 -108q187 0 293 106q129 126 129 393zM678 1300q0 -28 -22.5 -49.5
t-51.5 -21.5t-50.5 21.5t-21.5 49.5t21.5 50t50.5 22t51.5 -22t22.5 -50zM866 1229q-29 0 -51 21.5t-22 49.5t22 50t51 22q28 0 50 -22t22 -50t-22 -49.5t-50 -21.5z" />
    <glyph glyph-name="Yacute" unicode="&#xdd;" horiz-adv-x="1181"
d="M901 1829l-332 -248l-22 18l276 312zM768 6v-10q-86 4 -178 4q-88 0 -178 -4v10q44 8 62 19t29 49t11 119v307l-412 825q-23 45 -33.5 63.5t-28.5 41t-37.5 32.5t-49.5 17v10q86 -4 205 -4q92 0 182 4v-10q-92 -11 -92 -66q0 -39 39 -113l344 -698l254 494
q103 201 116 237t13 72q0 31 -19.5 49t-64.5 25v10q90 -4 149 -4q70 0 156 4v-10q-61 -13 -88.5 -48t-122.5 -217q-47 -89 -76 -145l-282 -539v-337q0 -81 11 -119t29 -49t62 -19z" />
    <glyph glyph-name="Thorn" unicode="&#xde;" horiz-adv-x="1030"
d="M463 6v-10q-86 4 -178 4q-89 0 -179 -4v10q33 5 49 11t30.5 25t19 54.5t4.5 96.5v1099q0 61 -4.5 96.5t-19 54.5t-30.5 25t-49 11v10q90 -4 179 -4q92 0 178 4v-10q-33 -5 -49 -11t-30.5 -25t-19 -54.5t-4.5 -96.5v-155q119 14 142 14q129 0 226.5 -31t155.5 -86.5
t86.5 -127t28.5 -158.5q0 -78 -27.5 -150.5t-78 -131t-130.5 -93.5t-177 -35q-104 0 -162 47l8 16q52 -28 125 -28q134 0 204 94t70 246q0 181 -86 286t-241 105q-73 0 -144 -21v-890q0 -61 4.5 -96.5t19 -54.5t30.5 -25t49 -11z" />
    <glyph glyph-name="germandbls" unicode="&#xdf;" horiz-adv-x="1003"
d="M367 6v-10q-90 4 -154 4t-154 -4v10q36 7 51.5 18t26 50t10.5 119v737h-34v6l34 35q0 63 3 115.5t12.5 116t26 113.5t45.5 99t68 81.5t96.5 52.5t129.5 20q104 0 176 -67t72 -185q0 -63 -24.5 -122.5t-60 -105.5t-70.5 -89.5t-59.5 -91.5t-24.5 -93q0 -46 24 -86t62 -71
t84 -61t92 -63t84 -70t62 -88.5t24 -111.5q0 -120 -78.5 -202t-210.5 -82q-41 0 -106.5 15t-131.5 50q5 28 10 113.5t15 130.5h10q-2 -12 -2 -39q0 -105 51 -173.5t154 -68.5q73 0 111 62.5t38 148.5q0 43 -20 83.5t-52 73t-71 65t-78 67.5t-71 73t-52 88t-20 107
q0 41 18.5 86.5t45 90.5t53 95.5t45 121t18.5 147.5q0 217 -131 217q-37 0 -69.5 -14t-63.5 -47.5t-53 -85.5t-35.5 -133.5t-13.5 -184.5v-876q0 -80 10.5 -119t26 -50t51.5 -18z" />
    <glyph glyph-name="agrave" unicode="&#xe0;" horiz-adv-x="909"
d="M883 94l4 -10q-66 -104 -148 -104q-54 0 -84 36t-30 93q-62 -60 -141 -94.5t-165 -34.5q-124 0 -193 65.5t-69 159.5q0 110 90.5 185t239.5 75q64 0 128.5 -18t109.5 -50v346q0 101 -44 152t-143 51q-58 0 -109.5 -27t-88 -87t-39.5 -144h-105q21 135 122.5 215t236.5 80
q301 0 301 -266v-539q0 -64 13 -89.5t46 -25.5q35 0 68 31zM625 150v210q-32 31 -85 48.5t-112 17.5q-104 0 -163.5 -63t-59.5 -146q0 -74 48.5 -127t137.5 -53q136 0 234 113zM561 1085l-22 -18l-332 248l78 82z" />
    <glyph glyph-name="aacute" unicode="&#xe1;" horiz-adv-x="909"
d="M883 94l4 -10q-66 -104 -148 -104q-54 0 -84 36t-30 93q-62 -60 -141 -94.5t-165 -34.5q-124 0 -193 65.5t-69 159.5q0 110 90.5 185t239.5 75q64 0 128.5 -18t109.5 -50v346q0 101 -44 152t-143 51q-58 0 -109.5 -27t-88 -87t-39.5 -144h-105q21 135 122.5 215t236.5 80
q301 0 301 -266v-539q0 -64 13 -89.5t46 -25.5q35 0 68 31zM625 150v210q-32 31 -85 48.5t-112 17.5q-104 0 -163.5 -63t-59.5 -146q0 -74 48.5 -127t137.5 -53q136 0 234 113zM686 1317l-332 -248l-22 18l276 312z" />
    <glyph glyph-name="acircumflex" unicode="&#xe2;" horiz-adv-x="909"
d="M883 94l4 -10q-66 -104 -148 -104q-54 0 -84 36t-30 93q-62 -60 -141 -94.5t-165 -34.5q-124 0 -193 65.5t-69 159.5q0 110 90.5 185t239.5 75q64 0 128.5 -18t109.5 -50v346q0 101 -44 152t-143 51q-58 0 -109.5 -27t-88 -87t-39.5 -144h-105q21 135 122.5 215t236.5 80
q301 0 301 -266v-539q0 -64 13 -89.5t46 -25.5q35 0 68 31zM625 150v210q-32 31 -85 48.5t-112 17.5q-104 0 -163.5 -63t-59.5 -146q0 -74 48.5 -127t137.5 -53q136 0 234 113zM743 1085h-55l-246 236l-243 -236h-56l273 342h55z" />
    <glyph glyph-name="atilde" unicode="&#xe3;" horiz-adv-x="909"
d="M883 94l4 -10q-66 -104 -148 -104q-54 0 -84 36t-30 93q-62 -60 -141 -94.5t-165 -34.5q-124 0 -193 65.5t-69 159.5q0 110 90.5 185t239.5 75q64 0 128.5 -18t109.5 -50v346q0 101 -44 152t-143 51q-58 0 -109.5 -27t-88 -87t-39.5 -144h-105q21 135 122.5 215t236.5 80
q301 0 301 -266v-539q0 -64 13 -89.5t46 -25.5q35 0 68 31zM625 150v210q-32 31 -85 48.5t-112 17.5q-104 0 -163.5 -63t-59.5 -146q0 -74 48.5 -127t137.5 -53q136 0 234 113zM721 1264h18q-4 -28 -16 -56.5t-33 -57.5t-55.5 -47t-77.5 -18q-51 0 -140 47.5t-141 47.5
q-46 0 -67.5 -19.5t-40.5 -75.5h-21q12 74 59 122t113 48q51 0 142 -47t143 -47q44 0 74 29.5t43 73.5z" />
    <glyph glyph-name="adieresis" unicode="&#xe4;" horiz-adv-x="909"
d="M883 94l4 -10q-66 -104 -148 -104q-54 0 -84 36t-30 93q-62 -60 -141 -94.5t-165 -34.5q-124 0 -193 65.5t-69 159.5q0 110 90.5 185t239.5 75q64 0 128.5 -18t109.5 -50v346q0 101 -44 152t-143 51q-58 0 -109.5 -27t-88 -87t-39.5 -144h-105q21 135 122.5 215t236.5 80
q301 0 301 -266v-539q0 -64 13 -89.5t46 -25.5q35 0 68 31zM625 150v210q-32 31 -85 48.5t-112 17.5q-104 0 -163.5 -63t-59.5 -146q0 -74 48.5 -127t137.5 -53q136 0 234 113zM385 1157q0 -28 -22.5 -50t-51.5 -22t-50 22t-21 50t21 50t50 22t51.5 -22t22.5 -50zM573 1085
q-29 0 -51 22t-22 50t22 50t51 22q28 0 50 -22t22 -50t-22 -50t-50 -22z" />
    <glyph glyph-name="aring" unicode="&#xe5;" horiz-adv-x="909"
d="M883 94l4 -10q-66 -104 -148 -104q-54 0 -84 36t-30 93q-62 -60 -141 -94.5t-165 -34.5q-124 0 -193 65.5t-69 159.5q0 110 90.5 185t239.5 75q64 0 128.5 -18t109.5 -50v346q0 101 -44 152t-143 51q-58 0 -109.5 -27t-88 -87t-39.5 -144h-105q21 135 122.5 215t236.5 80
q301 0 301 -266v-539q0 -64 13 -89.5t46 -25.5q35 0 68 31zM625 150v210q-32 31 -85 48.5t-112 17.5q-104 0 -163.5 -63t-59.5 -146q0 -74 48.5 -127t137.5 -53q136 0 234 113zM618 1219q0 -70 -50.5 -120t-121.5 -50q-70 0 -120 49.5t-50 120.5t50.5 120.5t122.5 49.5
q69 0 119 -50t50 -120zM563 1219q0 46 -33.5 79t-80.5 33t-81 -33t-34 -79t33 -79.5t79 -33.5q49 0 83 33.5t34 79.5z" />
    <glyph glyph-name="ae" unicode="&#xe6;" horiz-adv-x="1501"
d="M1438 147l8 -8q-129 -159 -340 -159q-140 0 -242 54.5t-162 149.5q-174 -204 -383 -204q-124 0 -193 65.5t-69 159.5q0 110 90.5 185t239.5 75q147 0 238 -70q-7 89 -7 156q0 33 3.5 97t3.5 95q0 101 -44 152t-143 51q-58 0 -109.5 -27t-88 -87t-39.5 -144h-105
q21 135 122.5 215t236.5 80q233 0 284 -160q58 75 139.5 117.5t176.5 42.5q158 0 267.5 -102t109.5 -260h-644q-4 -40 -4 -70q0 -238 112 -371t292 -133q70 0 129.5 22t120.5 78zM686 211q-43 80 -55 143q-53 45 -98.5 58.5t-104.5 13.5q-104 0 -163.5 -63t-59.5 -146
q0 -74 48.5 -127t137.5 -53q159 0 295 174zM793 662h471q-6 140 -62 217t-151 77q-94 0 -164.5 -80.5t-93.5 -213.5z" />
    <glyph glyph-name="ccedilla" unicode="&#xe7;" horiz-adv-x="964"
d="M885 147l8 -8q-129 -159 -340 -159l-35 -97q24 8 51 8q57 0 97.5 -39t40.5 -102q0 -68 -49 -108.5t-113 -40.5q-51 0 -91 26t-51 76h7q34 -57 108 -57q44 0 75.5 27t31.5 75q0 39 -25.5 67.5t-64.5 28.5q-46 0 -86 -37h-5l80 173q-90 4 -165 33t-128 76t-90.5 108.5
t-55 130.5t-17.5 143q0 102 32.5 193t94 162.5t161 114t222.5 42.5q142 0 232 -57t110 -146h-148q-5 31 -17 58.5t-34.5 56t-62.5 45t-93 16.5q-84 0 -149 -39t-102.5 -104t-56.5 -142t-19 -161q0 -224 104 -354.5t279 -130.5q151 0 264 122z" />
    <glyph glyph-name="egrave" unicode="&#xe8;" horiz-adv-x="950"
d="M887 147l8 -8q-129 -159 -340 -159q-119 0 -214.5 42.5t-153.5 113.5t-88.5 159t-30.5 184q0 213 124.5 358.5t311.5 145.5q158 0 267.5 -102t109.5 -260h-643q-5 -50 -5 -70q0 -238 112 -371t292 -133q70 0 129.5 22t120.5 78zM242 662h471q-6 140 -62 217t-151 77
q-94 0 -164.5 -80.5t-93.5 -213.5zM631 1085l-23 -18l-332 248l78 82z" />
    <glyph glyph-name="eacute" unicode="&#xe9;" horiz-adv-x="950"
d="M887 147l8 -8q-129 -159 -340 -159q-119 0 -214.5 42.5t-153.5 113.5t-88.5 159t-30.5 184q0 213 124.5 358.5t311.5 145.5q158 0 267.5 -102t109.5 -260h-643q-5 -50 -5 -70q0 -238 112 -371t292 -133q70 0 129.5 22t120.5 78zM242 662h471q-6 140 -62 217t-151 77
q-94 0 -164.5 -80.5t-93.5 -213.5zM735 1317l-332 -248l-22 18l276 312z" />
    <glyph glyph-name="ecircumflex" unicode="&#xea;" horiz-adv-x="950"
d="M887 147l8 -8q-129 -159 -340 -159q-119 0 -214.5 42.5t-153.5 113.5t-88.5 159t-30.5 184q0 213 124.5 358.5t311.5 145.5q158 0 267.5 -102t109.5 -260h-643q-5 -50 -5 -70q0 -238 112 -371t292 -133q70 0 129.5 22t120.5 78zM242 662h471q-6 140 -62 217t-151 77
q-94 0 -164.5 -80.5t-93.5 -213.5zM809 1085h-55l-246 236l-244 -236h-55l272 342h56z" />
    <glyph glyph-name="edieresis" unicode="&#xeb;" horiz-adv-x="950"
d="M887 147l8 -8q-129 -159 -340 -159q-119 0 -214.5 42.5t-153.5 113.5t-88.5 159t-30.5 184q0 213 124.5 358.5t311.5 145.5q158 0 267.5 -102t109.5 -260h-643q-5 -50 -5 -70q0 -238 112 -371t292 -133q70 0 129.5 22t120.5 78zM242 662h471q-6 140 -62 217t-151 77
q-94 0 -164.5 -80.5t-93.5 -213.5zM438 1157q0 -28 -22 -50t-51 -22t-50.5 22t-21.5 50t21.5 50t50.5 22t51 -22t22 -50zM627 1085q-29 0 -51.5 22t-22.5 50t22.5 50t51.5 22q28 0 49.5 -22t21.5 -50t-21.5 -50t-49.5 -22z" />
    <glyph glyph-name="igrave" unicode="&#xec;" horiz-adv-x="432"
d="M373 6v-10q-90 4 -154 4q-63 0 -153 -4v10q36 7 51.5 18t26 50t10.5 119v614q0 59 -10 79.5t-54 31.5v10q116 8 195 45v-780q0 -80 10.5 -119t26 -50t51.5 -18zM336 1085l-23 -18l-331 248l77 82z" />
    <glyph glyph-name="iacute" unicode="&#xed;" horiz-adv-x="432"
d="M373 6v-10q-90 4 -154 4q-63 0 -153 -4v10q36 7 51.5 18t26 50t10.5 119v614q0 59 -10 79.5t-54 31.5v10q116 8 195 45v-780q0 -80 10.5 -119t26 -50t51.5 -18zM438 1317l-332 -248l-22 18l276 312z" />
    <glyph glyph-name="icircumflex" unicode="&#xee;" horiz-adv-x="432"
d="M373 6v-10q-90 4 -154 4q-63 0 -153 -4v10q36 7 51.5 18t26 50t10.5 119v614q0 59 -10 79.5t-54 31.5v10q116 8 195 45v-780q0 -80 10.5 -119t26 -50t51.5 -18zM520 1085h-55l-246 236l-244 -236h-55l273 342h55z" />
    <glyph glyph-name="idieresis" unicode="&#xef;" horiz-adv-x="432"
d="M373 6v-10q-90 4 -154 4q-63 0 -153 -4v10q36 7 51.5 18t26 50t10.5 119v614q0 59 -10 79.5t-54 31.5v10q116 8 195 45v-780q0 -80 10.5 -119t26 -50t51.5 -18zM162 1157q0 -28 -22.5 -50t-51.5 -22t-50.5 22t-21.5 50t21.5 50t50.5 22t51.5 -22t22.5 -50zM350 1085
q-29 0 -51.5 22t-22.5 50t22.5 50t51.5 22q28 0 50 -22t22 -50t-22 -50t-50 -22z" />
    <glyph glyph-name="eth" unicode="&#xf0;" horiz-adv-x="1159"
d="M838 1464l-127 -108q177 -127 269.5 -338.5t92.5 -437.5q0 -120 -31.5 -225.5t-92.5 -188t-159.5 -130.5t-222.5 -48q-233 0 -366 131t-133 360q0 220 141 362t354 142q153 0 283 -90q-58 264 -197 412l-119 -101l-26 31l117 98q-152 136 -381 150v18q249 -3 436 -121
l139 115zM864 780q-111 174 -313 174q-155 0 -234 -118t-79 -375q0 -74 8 -135t30 -120.5t57 -100.5t92.5 -66t133.5 -25q80 0 139.5 28.5t94 73t55.5 110.5t28 128.5t7 139.5q0 156 -19 286z" />
    <glyph glyph-name="ntilde" unicode="&#xf1;" horiz-adv-x="1048"
d="M1001 6v-10q-90 4 -153 4q-64 0 -154 -4v10q36 7 51.5 18t26 50t10.5 119v446q0 74 -14.5 129t-37.5 87.5t-56.5 52.5t-67 27t-74.5 7q-58 0 -125 -22.5t-122 -61.5v-665q0 -80 10.5 -119t26 -50t51.5 -18v-10q-90 4 -154 4q-63 0 -153 -4v10q36 7 51.5 18t26 50
t10.5 119v624q0 59 -10 79.5t-54 31.5v10q116 8 195 45v-82q132 82 299 82q329 0 329 -334v-456q0 -80 10.5 -119t26 -50t51.5 -18zM793 1264h18q-4 -28 -16 -56.5t-33 -57.5t-55.5 -47t-77.5 -18q-51 0 -140 47.5t-141 47.5q-46 0 -67.5 -19.5t-40.5 -75.5h-21
q12 74 59 122t113 48q51 0 142 -47t143 -47q44 0 74 29.5t43 73.5z" />
    <glyph glyph-name="ograve" unicode="&#xf2;" horiz-adv-x="1120"
d="M567 -12q-233 0 -366 131t-133 360q0 220 141 362t354 142t351.5 -143.5t138.5 -360.5q0 -207 -134 -349t-352 -142zM559 14q80 0 139.5 28.5t94 73t55.5 110.5t28 128.5t7 139.5q0 80 -9 145.5t-32.5 125.5t-60.5 101t-96 65.5t-136 24.5q-311 0 -311 -495q0 -74 8 -135
t30 -120.5t57 -100.5t92.5 -66t133.5 -25zM653 1085l-22 -18l-332 248l78 82z" />
    <glyph glyph-name="oacute" unicode="&#xf3;" horiz-adv-x="1120"
d="M567 -12q-233 0 -366 131t-133 360q0 220 141 362t354 142t351.5 -143.5t138.5 -360.5q0 -207 -134 -349t-352 -142zM559 14q80 0 139.5 28.5t94 73t55.5 110.5t28 128.5t7 139.5q0 80 -9 145.5t-32.5 125.5t-60.5 101t-96 65.5t-136 24.5q-311 0 -311 -495q0 -74 8 -135
t30 -120.5t57 -100.5t92.5 -66t133.5 -25zM815 1317l-332 -248l-22 18l276 312z" />
    <glyph glyph-name="ocircumflex" unicode="&#xf4;" horiz-adv-x="1120"
d="M567 -12q-233 0 -366 131t-133 360q0 220 141 362t354 142t351.5 -143.5t138.5 -360.5q0 -207 -134 -349t-352 -142zM559 14q80 0 139.5 28.5t94 73t55.5 110.5t28 128.5t7 139.5q0 80 -9 145.5t-32.5 125.5t-60.5 101t-96 65.5t-136 24.5q-311 0 -311 -495q0 -74 8 -135
t30 -120.5t57 -100.5t92.5 -66t133.5 -25zM860 1085h-55l-246 236l-244 -236h-55l272 342h56z" />
    <glyph glyph-name="otilde" unicode="&#xf5;" horiz-adv-x="1120"
d="M567 -12q-233 0 -366 131t-133 360q0 220 141 362t354 142t351.5 -143.5t138.5 -360.5q0 -207 -134 -349t-352 -142zM559 14q80 0 139.5 28.5t94 73t55.5 110.5t28 128.5t7 139.5q0 80 -9 145.5t-32.5 125.5t-60.5 101t-96 65.5t-136 24.5q-311 0 -311 -495q0 -74 8 -135
t30 -120.5t57 -100.5t92.5 -66t133.5 -25zM838 1264h18q-4 -28 -16 -56.5t-33 -57.5t-55.5 -47t-77.5 -18q-51 0 -140 47.5t-141 47.5q-46 0 -67.5 -19.5t-40.5 -75.5h-21q12 74 59 122t113 48q51 0 142 -47t143 -47q44 0 74 29.5t43 73.5z" />
    <glyph glyph-name="odieresis" unicode="&#xf6;" horiz-adv-x="1120"
d="M567 -12q-233 0 -366 131t-133 360q0 220 141 362t354 142t351.5 -143.5t138.5 -360.5q0 -207 -134 -349t-352 -142zM559 14q80 0 139.5 28.5t94 73t55.5 110.5t28 128.5t7 139.5q0 80 -9 145.5t-32.5 125.5t-60.5 101t-96 65.5t-136 24.5q-311 0 -311 -495q0 -74 8 -135
t30 -120.5t57 -100.5t92.5 -66t133.5 -25zM502 1157q0 -28 -22.5 -50t-51.5 -22t-50.5 22t-21.5 50t21.5 50t50.5 22t51.5 -22t22.5 -50zM690 1085q-29 0 -51.5 22t-22.5 50t22.5 50t51.5 22q28 0 50 -22t22 -50t-22 -50t-50 -22z" />
    <glyph glyph-name="divide" unicode="&#xf7;" horiz-adv-x="1030"
d="M590 356q0 -30 -22.5 -50.5t-55.5 -20.5q-29 0 -50.5 21t-21.5 50q0 33 21 55.5t51 22.5q34 0 56 -22t22 -56zM590 872q0 -30 -22.5 -50.5t-55.5 -20.5q-29 0 -50.5 21t-21.5 50q0 33 21 55.5t51 22.5q34 0 56 -22t22 -56zM895 649v-61q-80 2 -381 2t-379 -2v61
q156 -4 379 -4q221 0 381 4z" />
    <glyph glyph-name="oslash" unicode="&#xf8;" horiz-adv-x="1120"
d="M350 -113h-63l57 140q-133 53 -204.5 169.5t-71.5 282.5q0 220 141 362t354 142q79 0 162 -27l45 111h64l-54 -131q126 -61 199.5 -182t73.5 -275q0 -207 -134 -349t-352 -142q-83 0 -168 20zM362 74l349 846q-67 36 -162 36q-311 0 -311 -495q0 -283 124 -387zM760 887
l-346 -844q63 -29 145 -29q80 0 139.5 28.5t94 73t55.5 110.5t28 128.5t7 139.5q0 286 -123 393z" />
    <glyph glyph-name="ugrave" unicode="&#xf9;" horiz-adv-x="1069"
d="M1030 94l4 -10q-15 -24 -25.5 -38t-28.5 -31.5t-41.5 -26t-51.5 -8.5q-59 0 -87 44.5t-28 143.5q-54 -88 -139.5 -138t-190.5 -50q-147 0 -228 86.5t-81 267.5v483q0 57 -19 79t-81 32v10q169 11 231 45v-639q0 -163 54.5 -236t175.5 -73q188 0 278 182v600q0 59 -15 80
t-75 31v10q157 10 221 45v-788q0 -32 1 -49t5.5 -41t16 -35t30.5 -11q36 0 74 35zM600 1085l-22 -18l-332 248l78 82z" />
    <glyph glyph-name="uacute" unicode="&#xfa;" horiz-adv-x="1069"
d="M1030 94l4 -10q-15 -24 -25.5 -38t-28.5 -31.5t-41.5 -26t-51.5 -8.5q-59 0 -87 44.5t-28 143.5q-54 -88 -139.5 -138t-190.5 -50q-147 0 -228 86.5t-81 267.5v483q0 57 -19 79t-81 32v10q169 11 231 45v-639q0 -163 54.5 -236t175.5 -73q188 0 278 182v600q0 59 -15 80
t-75 31v10q157 10 221 45v-788q0 -32 1 -49t5.5 -41t16 -35t30.5 -11q36 0 74 35zM776 1317l-332 -248l-22 18l276 312z" />
    <glyph glyph-name="ucircumflex" unicode="&#xfb;" horiz-adv-x="1069"
d="M1030 94l4 -10q-15 -24 -25.5 -38t-28.5 -31.5t-41.5 -26t-51.5 -8.5q-59 0 -87 44.5t-28 143.5q-54 -88 -139.5 -138t-190.5 -50q-147 0 -228 86.5t-81 267.5v483q0 57 -19 79t-81 32v10q169 11 231 45v-639q0 -163 54.5 -236t175.5 -73q188 0 278 182v600q0 59 -15 80
t-75 31v10q157 10 221 45v-788q0 -32 1 -49t5.5 -41t16 -35t30.5 -11q36 0 74 35zM801 1085h-56l-245 236l-244 -236h-55l272 342h55z" />
    <glyph glyph-name="udieresis" unicode="&#xfc;" horiz-adv-x="1069"
d="M1030 94l4 -10q-15 -24 -25.5 -38t-28.5 -31.5t-41.5 -26t-51.5 -8.5q-59 0 -87 44.5t-28 143.5q-54 -88 -139.5 -138t-190.5 -50q-147 0 -228 86.5t-81 267.5v483q0 57 -19 79t-81 32v10q169 11 231 45v-639q0 -163 54.5 -236t175.5 -73q188 0 278 182v600q0 59 -15 80
t-75 31v10q157 10 221 45v-788q0 -32 1 -49t5.5 -41t16 -35t30.5 -11q36 0 74 35zM465 1157q0 -28 -22.5 -50t-51.5 -22t-50.5 22t-21.5 50t21.5 50t50.5 22t51.5 -22t22.5 -50zM653 1085q-29 0 -51 22t-22 50t22 50t51 22q28 0 50 -22t22 -50t-22 -50t-50 -22z" />
    <glyph glyph-name="yacute" unicode="&#xfd;" horiz-adv-x="1060"
d="M473 -453v-10q-7 0 -81.5 1t-127.5 1q-39 0 -71.5 -1t-42.5 -1v10q51 4 80.5 21.5t70 78.5t102.5 193l82 172l-376 850q-19 41 -40 63t-37.5 28t-49.5 12v10q9 0 76 -1t110 -1q45 0 106.5 1t69.5 1v-10q-51 -7 -72.5 -18t-21.5 -38q0 -24 16 -63l297 -668l254 533
q60 130 60 176q0 70 -103 78v10q7 0 58 -1t104 -1q39 0 87 1t58 1v-10q-41 -8 -66 -26t-61.5 -76.5t-95.5 -184.5l-393 -838q-74 -158 -74 -219q0 -37 19.5 -51t62.5 -23zM854 1317l-332 -248l-22 18l276 312z" />
    <glyph glyph-name="thorn" unicode="&#xfe;" horiz-adv-x="1103"
d="M356 -455v-10q-90 4 -153 4q-64 0 -154 -4v10q36 7 51.5 18t26 50t10.5 119v1665q0 59 -15 79.5t-75 30.5v11q157 10 221 45v-678q142 98 305 98q138 0 245 -70t162.5 -185t55.5 -253q0 -112 -41 -206t-110 -154t-156 -93.5t-182 -33.5q-152 0 -279 84v-340
q0 -80 10.5 -119t26 -50t51.5 -18zM268 831v-708q100 -92 258 -92q46 0 88.5 10.5t89 40.5t80.5 77.5t56 128t22 185.5q0 123 -42 227t-123.5 168t-186.5 64q-129 0 -242 -101z" />
    <glyph glyph-name="ydieresis" unicode="&#xff;" horiz-adv-x="1060"
d="M473 -453v-10q-7 0 -81.5 1t-127.5 1q-39 0 -71.5 -1t-42.5 -1v10q51 4 80.5 21.5t70 78.5t102.5 193l82 172l-376 850q-19 41 -40 63t-37.5 28t-49.5 12v10q9 0 76 -1t110 -1q45 0 106.5 1t69.5 1v-10q-51 -7 -72.5 -18t-21.5 -38q0 -24 16 -63l297 -668l254 533
q60 130 60 176q0 70 -103 78v10q7 0 58 -1t104 -1q39 0 87 1t58 1v-10q-41 -8 -66 -26t-61.5 -76.5t-95.5 -184.5l-393 -838q-74 -158 -74 -219q0 -37 19.5 -51t62.5 -23zM508 1157q0 -28 -22.5 -50t-51.5 -22t-50.5 22t-21.5 50t21.5 50t50.5 22t51.5 -22t22.5 -50z
M696 1085q-29 0 -51 22t-22 50t22 50t51 22q28 0 50 -22t22 -50t-22 -50t-50 -22z" />
    <glyph glyph-name="Amacron" unicode="&#x100;" horiz-adv-x="1191"
d="M1184 6v-10q-86 4 -178 4q-93 0 -183 -4v10q90 5 90 72q0 24 -24 106l-121 385h-236q-145 0 -217 -2l-122 -331q-35 -99 -35 -140q0 -79 94 -90v-10q-90 4 -191 4q-53 0 -139 -4v10q57 14 87 34.5t62 75.5t76 173l463 1231h21l430 -1360q32 -101 49.5 -124t73.5 -30z
M750 629l-189 606l-223 -604q66 -2 194 -2h218zM901 1700v-62q-94 2 -280 2q-187 0 -279 -2v62q184 -4 279 -4q92 0 280 4z" />
    <glyph glyph-name="amacron" unicode="&#x101;" horiz-adv-x="909"
d="M883 94l4 -10q-66 -104 -148 -104q-54 0 -84 36t-30 93q-62 -60 -141 -94.5t-165 -34.5q-124 0 -193 65.5t-69 159.5q0 110 90.5 185t239.5 75q64 0 128.5 -18t109.5 -50v346q0 101 -44 152t-143 51q-58 0 -109.5 -27t-88 -87t-39.5 -144h-105q21 135 122.5 215t236.5 80
q301 0 301 -266v-539q0 -64 13 -89.5t46 -25.5q35 0 68 31zM625 150v210q-32 31 -85 48.5t-112 17.5q-104 0 -163.5 -63t-59.5 -146q0 -74 48.5 -127t137.5 -53q136 0 234 113zM727 1188v-62q-94 2 -281 2q-186 0 -278 -2v62q184 -4 278 -4q93 0 281 4z" />
    <glyph glyph-name="Abreve" unicode="&#x102;" horiz-adv-x="1191"
d="M1184 6v-10q-86 4 -178 4q-93 0 -183 -4v10q90 5 90 72q0 24 -24 106l-121 385h-236q-145 0 -217 -2l-122 -331q-35 -99 -35 -140q0 -79 94 -90v-10q-90 4 -191 4q-53 0 -139 -4v10q57 14 87 34.5t62 75.5t76 173l463 1231h21l430 -1360q32 -101 49.5 -124t73.5 -30z
M750 629l-189 606l-223 -604q66 -2 194 -2h218zM844 1870h45q0 -102 -73.5 -187.5t-192.5 -85.5q-82 0 -145 43t-93.5 104.5t-30.5 125.5h45q18 -97 71 -147t151 -50q101 0 147.5 47t75.5 150z" />
    <glyph glyph-name="abreve" unicode="&#x103;" horiz-adv-x="909"
d="M883 94l4 -10q-66 -104 -148 -104q-54 0 -84 36t-30 93q-62 -60 -141 -94.5t-165 -34.5q-124 0 -193 65.5t-69 159.5q0 110 90.5 185t239.5 75q64 0 128.5 -18t109.5 -50v346q0 101 -44 152t-143 51q-58 0 -109.5 -27t-88 -87t-39.5 -144h-105q21 135 122.5 215t236.5 80
q301 0 301 -266v-539q0 -64 13 -89.5t46 -25.5q35 0 68 31zM625 150v210q-32 31 -85 48.5t-112 17.5q-104 0 -163.5 -63t-59.5 -146q0 -74 48.5 -127t137.5 -53q136 0 234 113zM670 1358h45q0 -102 -73.5 -187.5t-192.5 -85.5q-82 0 -145 43t-93.5 104.5t-30.5 125.5h45
q18 -97 70.5 -147t150.5 -50q101 0 148 47t76 150z" />
    <glyph glyph-name="Aogonek" unicode="&#x104;" horiz-adv-x="1187"
d="M1067 -360l2 -27q-55 -27 -129 -27q-71 0 -119.5 30.5t-48.5 90.5q0 65 60.5 145.5t160.5 147.5q-88 0 -170 -4v10q90 5 90 72q0 24 -24 106l-121 385h-453l-122 -333q-35 -99 -35 -140q0 -79 94 -90v-10q-90 4 -191 4q-53 0 -139 -4v10q57 14 87 34.5t62 75.5t76 173
l463 1231h21l430 -1360q32 -101 49.5 -124t73.5 -30v-10q-74 4 -148 4q-88 -75 -134 -144.5t-46 -123.5q0 -103 123 -103q31 0 88 11zM750 631l-189 604l-223 -604h412z" />
    <glyph glyph-name="aogonek" unicode="&#x105;" horiz-adv-x="907"
d="M836 -365l2 -26q-56 -27 -129 -27q-71 0 -119.5 30.5t-48.5 90.5t53.5 135.5t142.5 141.5q-53 0 -82.5 36t-29.5 93q-62 -60 -141 -94.5t-165 -34.5q-124 0 -193 65.5t-69 159.5q0 110 90.5 185t239.5 75q64 0 128.5 -18t109.5 -50v346q0 101 -44 152t-143 51
q-58 0 -109.5 -27t-88 -87t-39.5 -144h-105q21 135 122.5 215t236.5 80q301 0 301 -266v-539q0 -64 13 -89.5t46 -25.5q35 0 68 31l4 -10q-39 -60 -78 -84q-184 -156 -184 -272q0 -103 123 -103q36 0 88 10zM625 150v210q-32 31 -85 48.5t-112 17.5q-104 0 -163.5 -63
t-59.5 -146q0 -74 48.5 -127t137.5 -53q136 0 234 113z" />
    <glyph glyph-name="Cacute" unicode="&#x106;" horiz-adv-x="1482"
d="M1391 330h10q-12 -89 -12 -219q-265 -131 -512 -131q-153 0 -284 41.5t-225 114t-160.5 168.5t-99 205.5t-32.5 225.5q0 115 30.5 224.5t94.5 207.5t154.5 171.5t219 117t279.5 43.5q44 0 87 -3t89.5 -10.5t77 -13t82 -18.5t68.5 -17.5t71.5 -20.5t59.5 -17
q-7 -93 -7 -195q0 -20 1 -47t1 -31h-10q-15 157 -156.5 242.5t-355.5 85.5q-98 0 -186 -26.5t-164 -84t-131.5 -141.5t-87 -205.5t-31.5 -269.5q0 -143 38.5 -261.5t102 -198t148 -134.5t174.5 -79.5t184 -24.5q104 0 199.5 30.5t174.5 100.5t108 170zM1069 1829l-332 -248
l-22 18l276 312z" />
    <glyph glyph-name="cacute" unicode="&#x107;" horiz-adv-x="962"
d="M883 147l8 -8q-129 -159 -340 -159q-118 0 -212.5 41.5t-153 111.5t-89 156.5t-30.5 181.5q0 102 32.5 192.5t94 162.5t160.5 114.5t222 42.5q142 0 232.5 -57t110.5 -146h-148q-5 31 -17 58.5t-34.5 56t-62.5 45t-93 16.5q-84 0 -149 -39t-102.5 -104t-56.5 -142
t-19 -161q0 -224 103.5 -354.5t278.5 -130.5q152 0 265 122zM754 1317l-332 -248l-23 18l277 312z" />
    <glyph glyph-name="Ccircumflex" unicode="&#x108;" horiz-adv-x="1482"
d="M1391 330h10q-12 -89 -12 -219q-265 -131 -512 -131q-153 0 -284 41.5t-225 114t-160.5 168.5t-99 205.5t-32.5 225.5q0 115 30.5 224.5t94.5 207.5t154.5 171.5t219 117t279.5 43.5q44 0 87 -3t89.5 -10.5t77 -13t82 -18.5t68.5 -17.5t71.5 -20.5t59.5 -17
q-7 -93 -7 -195q0 -20 1 -47t1 -31h-10q-15 157 -156.5 242.5t-355.5 85.5q-98 0 -186 -26.5t-164 -84t-131.5 -141.5t-87 -205.5t-31.5 -269.5q0 -143 38.5 -261.5t102 -198t148 -134.5t174.5 -79.5t184 -24.5q104 0 199.5 30.5t174.5 100.5t108 170zM1130 1597h-55
l-246 236l-243 -236h-56l273 342h55z" />
    <glyph glyph-name="ccircumflex" unicode="&#x109;" horiz-adv-x="962"
d="M883 147l8 -8q-129 -159 -340 -159q-118 0 -212.5 41.5t-153 111.5t-89 156.5t-30.5 181.5q0 102 32.5 192.5t94 162.5t160.5 114.5t222 42.5q142 0 232.5 -57t110.5 -146h-148q-5 31 -17 58.5t-34.5 56t-62.5 45t-93 16.5q-84 0 -149 -39t-102.5 -104t-56.5 -142
t-19 -161q0 -224 103.5 -354.5t278.5 -130.5q152 0 265 122zM815 1085h-55l-246 236l-244 -236h-55l272 342h56z" />
    <glyph glyph-name="Cdotaccent" unicode="&#x10a;" horiz-adv-x="1482"
d="M1391 330h10q-12 -89 -12 -219q-265 -131 -512 -131q-153 0 -284 41.5t-225 114t-160.5 168.5t-99 205.5t-32.5 225.5q0 115 30.5 224.5t94.5 207.5t154.5 171.5t219 117t279.5 43.5q44 0 87 -3t89.5 -10.5t77 -13t82 -18.5t68.5 -17.5t71.5 -20.5t59.5 -17
q-7 -93 -7 -195q0 -20 1 -47t1 -31h-10q-15 157 -156.5 242.5t-355.5 85.5q-98 0 -186 -26.5t-164 -84t-131.5 -141.5t-87 -205.5t-31.5 -269.5q0 -143 38.5 -261.5t102 -198t148 -134.5t174.5 -79.5t184 -24.5q104 0 199.5 30.5t174.5 100.5t108 170zM903 1669
q0 -28 -22.5 -50t-51.5 -22t-50 22t-21 50t21 50t50 22t51.5 -22t22.5 -50z" />
    <glyph glyph-name="cdotaccent" unicode="&#x10b;" horiz-adv-x="962"
d="M883 147l8 -8q-129 -159 -340 -159q-118 0 -212.5 41.5t-153 111.5t-89 156.5t-30.5 181.5q0 102 32.5 192.5t94 162.5t160.5 114.5t222 42.5q142 0 232.5 -57t110.5 -146h-148q-5 31 -17 58.5t-34.5 56t-62.5 45t-93 16.5q-84 0 -149 -39t-102.5 -104t-56.5 -142
t-19 -161q0 -224 103.5 -354.5t278.5 -130.5q152 0 265 122zM610 1157q0 -28 -22 -50t-51 -22t-50.5 22t-21.5 50t21.5 50t50.5 22t51 -22t22 -50z" />
    <glyph glyph-name="Ccaron" unicode="&#x10c;" horiz-adv-x="1482"
d="M1391 330h10q-12 -89 -12 -219q-265 -131 -512 -131q-153 0 -284 41.5t-225 114t-160.5 168.5t-99 205.5t-32.5 225.5q0 115 30.5 224.5t94.5 207.5t154.5 171.5t219 117t279.5 43.5q44 0 87 -3t89.5 -10.5t77 -13t82 -18.5t68.5 -17.5t71.5 -20.5t59.5 -17
q-7 -93 -7 -195q0 -20 1 -47t1 -31h-10q-15 157 -156.5 242.5t-355.5 85.5q-98 0 -186 -26.5t-164 -84t-131.5 -141.5t-87 -205.5t-31.5 -269.5q0 -143 38.5 -261.5t102 -198t148 -134.5t174.5 -79.5t184 -24.5q104 0 199.5 30.5t174.5 100.5t108 170zM870 1597h-55
l-272 342h55l244 -235l245 235h56z" />
    <glyph glyph-name="ccaron" unicode="&#x10d;" horiz-adv-x="962"
d="M883 147l8 -8q-129 -159 -340 -159q-118 0 -212.5 41.5t-153 111.5t-89 156.5t-30.5 181.5q0 102 32.5 192.5t94 162.5t160.5 114.5t222 42.5q142 0 232.5 -57t110.5 -146h-148q-5 31 -17 58.5t-34.5 56t-62.5 45t-93 16.5q-84 0 -149 -39t-102.5 -104t-56.5 -142
t-19 -161q0 -224 103.5 -354.5t278.5 -130.5q152 0 265 122zM524 1085h-55l-272 342h55l244 -235l245 235h56z" />
    <glyph glyph-name="Dcaron" unicode="&#x10e;" horiz-adv-x="1595"
d="M88 -4v10q26 4 36.5 6t29.5 6.5t26 10t19 15t16 22t9.5 30.5t7 42t1.5 55v1099q0 40 -3.5 69.5t-14.5 48.5t-19.5 30.5t-30 19.5t-33.5 11t-42 8v10q90 -4 195 -4q68 0 171 1t152 1q423 0 665.5 -200t242.5 -556q0 -121 -29.5 -229.5t-93 -202t-155 -161t-223 -106
t-290.5 -38.5q-51 0 -201.5 3t-214.5 3q-131 0 -221 -4zM385 1415v-1343q164 -29 338 -29q109 0 198.5 20t169.5 69.5t134.5 128t86 201t31.5 281.5q0 147 -36.5 264t-100.5 197t-155.5 133t-198 77t-231.5 24q-136 0 -236 -23zM788 1597h-55l-272 342h55l244 -235l246 235
h55z" />
    <glyph glyph-name="dcaron" unicode="&#x10f;" horiz-adv-x="1077"
d="M1067 74l6 -11q-58 -83 -158 -83q-63 0 -92.5 27.5t-38.5 88.5q-106 -116 -280 -116q-103 0 -188 40t-138.5 107t-82.5 151.5t-29 176.5q0 149 67.5 271t178.5 189.5t239 67.5q117 0 227 -68v480q0 59 -15 79.5t-75 30.5v11q157 10 221 45v-1287q0 -102 5.5 -149.5
t19.5 -65.5t45 -18q44 0 88 33zM778 215v584q-32 66 -99 104.5t-142 38.5q-127 0 -211 -115.5t-84 -351.5q0 -188 89.5 -307t248.5 -119q29 0 60 7.5t63.5 25t53.5 52t21 81.5zM1030 1135l-8 4q82 67 82 172q0 19 -4 35q-15 -9 -31 -9q-32 0 -50 21t-18 51q0 35 20.5 56.5
t49.5 21.5q36 0 63 -32t27 -91q0 -73 -35.5 -134t-95.5 -95z" />
    <glyph glyph-name="Dcroat" unicode="&#x110;" horiz-adv-x="1572"
d="M66 -4v10q26 4 36.5 6t29.5 6.5t26 10t19 15t16 22t9.5 30.5t7 42t1.5 55v520q-18 0 -51 -1t-49 -1v61q33 -2 100 -2v522q0 40 -3.5 69.5t-14.5 48.5t-19.5 30.5t-30 19.5t-33.5 11t-42 8v10q90 -4 194 -4q68 0 171.5 1t152.5 1q423 0 665 -200t242 -556
q0 -121 -29.5 -229.5t-93 -202t-155 -161t-223 -106t-290.5 -38.5q-51 0 -201 3t-214 3q-131 0 -221 -4zM764 772v-61q-109 2 -328 2h-74v-641q164 -29 338 -29q90 0 167 14.5t148.5 46t126 85.5t95.5 130t62.5 183.5t21.5 240.5q0 147 -36.5 264t-101 197t-156 133t-198 77
t-231.5 24q-136 0 -236 -23v-647h74q110 0 328 4z" />
    <glyph glyph-name="dcroat" unicode="&#x111;" horiz-adv-x="1077"
d="M1067 74l6 -11q-58 -83 -158 -83q-63 0 -92.5 27.5t-38.5 88.5q-106 -116 -280 -116q-103 0 -188 40t-138.5 107t-82.5 151.5t-29 176.5q0 149 67.5 271t178.5 189.5t239 67.5q117 0 227 -68v312h-76q-231 0 -346 -2v61q230 -4 346 -4h76v113q0 59 -15 79.5t-75 30.5v11
q157 10 221 45v-279l142 4v-61q-23 0 -71 1t-71 1v-953q0 -102 5.5 -149.5t19.5 -65.5t45 -18q44 0 88 33zM778 215v584q-32 66 -99 104.5t-142 38.5q-127 0 -211 -115.5t-84 -351.5q0 -188 89.5 -307t248.5 -119q29 0 60 7.5t63.5 25t53.5 52t21 81.5z" />
    <glyph glyph-name="Emacron" unicode="&#x112;" horiz-adv-x="1009"
d="M930 264h10q-1 -94 -6.5 -163t-5.5 -107q-190 6 -422 6q-326 0 -412 -4v10q73 12 95 47t22 140v1099q0 49 -5 81t-12 51.5t-24.5 30t-33.5 15t-48 9.5v10q82 -4 262 -4q478 0 570 4q0 -5 1 -36t1 -50q0 -112 -13 -168h-10q0 28 -1.5 49.5t-7.5 40t-12 31.5t-20.5 24
t-27 17.5t-38 11.5t-46 7.5t-58.5 4t-69 2t-84 0.5q-127 0 -173 -12v-610h103t82.5 1.5t68 3t51 6.5t40.5 9.5t27.5 15t22 19.5t14 26.5t12 33.5t8.5 42h10q-4 -126 -4 -190q0 -69 4 -209h-10q-7 37 -11 58.5t-16.5 43.5t-21.5 32.5t-37 21t-49 14t-73 7t-94.5 3.5h-126.5
v-665q37 -13 175 -13h108t82.5 3t67 7.5t46 15t37 24t22 36.5t19 50t11.5 67zM829 1700v-62q-94 2 -280 2q-187 0 -279 -2v62q184 -4 279 -4q92 0 280 4z" />
    <glyph glyph-name="emacron" unicode="&#x113;" horiz-adv-x="950"
d="M887 147l8 -8q-129 -159 -340 -159q-119 0 -214.5 42.5t-153.5 113.5t-88.5 159t-30.5 184q0 213 124.5 358.5t311.5 145.5q158 0 267.5 -102t109.5 -260h-643q-5 -50 -5 -70q0 -238 112 -371t292 -133q70 0 129.5 22t120.5 78zM242 662h471q-6 140 -62 217t-151 77
q-94 0 -164.5 -80.5t-93.5 -213.5zM774 1188v-62q-94 2 -280 2q-187 0 -279 -2v62q184 -4 279 -4q92 0 280 4z" />
    <glyph glyph-name="Ebreve" unicode="&#x114;" horiz-adv-x="1009"
d="M930 264h10q-1 -94 -6.5 -163t-5.5 -107q-190 6 -422 6q-326 0 -412 -4v10q73 12 95 47t22 140v1099q0 49 -5 81t-12 51.5t-24.5 30t-33.5 15t-48 9.5v10q82 -4 262 -4q478 0 570 4q0 -5 1 -36t1 -50q0 -112 -13 -168h-10q0 28 -1.5 49.5t-7.5 40t-12 31.5t-20.5 24
t-27 17.5t-38 11.5t-46 7.5t-58.5 4t-69 2t-84 0.5q-127 0 -173 -12v-610h103t82.5 1.5t68 3t51 6.5t40.5 9.5t27.5 15t22 19.5t14 26.5t12 33.5t8.5 42h10q-4 -126 -4 -190q0 -69 4 -209h-10q-7 37 -11 58.5t-16.5 43.5t-21.5 32.5t-37 21t-49 14t-73 7t-94.5 3.5h-126.5
v-665q37 -13 175 -13h108t82.5 3t67 7.5t46 15t37 24t22 36.5t19 50t11.5 67zM786 1870h45q0 -102 -73.5 -187.5t-192.5 -85.5q-82 0 -145 43.5t-93 104.5t-30 125h45q18 -97 70.5 -147t150.5 -50q101 0 147.5 47t75.5 150z" />
    <glyph glyph-name="ebreve" unicode="&#x115;" horiz-adv-x="950"
d="M887 147l8 -8q-129 -159 -340 -159q-119 0 -214.5 42.5t-153.5 113.5t-88.5 159t-30.5 184q0 213 124.5 358.5t311.5 145.5q158 0 267.5 -102t109.5 -260h-643q-5 -50 -5 -70q0 -238 112 -371t292 -133q70 0 129.5 22t120.5 78zM242 662h471q-6 140 -62 217t-151 77
q-94 0 -164.5 -80.5t-93.5 -213.5zM719 1358h45q0 -102 -73.5 -187.5t-192.5 -85.5q-82 0 -145 43t-93.5 104.5t-30.5 125.5h45q18 -97 71 -147t151 -50q101 0 147.5 47t75.5 150z" />
    <glyph glyph-name="Edotaccent" unicode="&#x116;" horiz-adv-x="1009"
d="M930 264h10q-1 -94 -6.5 -163t-5.5 -107q-190 6 -422 6q-326 0 -412 -4v10q73 12 95 47t22 140v1099q0 49 -5 81t-12 51.5t-24.5 30t-33.5 15t-48 9.5v10q82 -4 262 -4q478 0 570 4q0 -5 1 -36t1 -50q0 -112 -13 -168h-10q0 28 -1.5 49.5t-7.5 40t-12 31.5t-20.5 24
t-27 17.5t-38 11.5t-46 7.5t-58.5 4t-69 2t-84 0.5q-127 0 -173 -12v-610h103t82.5 1.5t68 3t51 6.5t40.5 9.5t27.5 15t22 19.5t14 26.5t12 33.5t8.5 42h10q-4 -126 -4 -190q0 -69 4 -209h-10q-7 37 -11 58.5t-16.5 43.5t-21.5 32.5t-37 21t-49 14t-73 7t-94.5 3.5h-126.5
v-665q37 -13 175 -13h108t82.5 3t67 7.5t46 15t37 24t22 36.5t19 50t11.5 67zM664 1669q0 -28 -22.5 -50t-51.5 -22t-50.5 22t-21.5 50t21.5 50t50.5 22t51.5 -22t22.5 -50z" />
    <glyph glyph-name="edotaccent" unicode="&#x117;" horiz-adv-x="950"
d="M887 147l8 -8q-129 -159 -340 -159q-119 0 -214.5 42.5t-153.5 113.5t-88.5 159t-30.5 184q0 213 124.5 358.5t311.5 145.5q158 0 267.5 -102t109.5 -260h-643q-5 -50 -5 -70q0 -238 112 -371t292 -133q70 0 129.5 22t120.5 78zM242 662h471q-6 140 -62 217t-151 77
q-94 0 -164.5 -80.5t-93.5 -213.5zM578 1157q0 -28 -22.5 -50t-51.5 -22t-50.5 22t-21.5 50t21.5 50t50.5 22t51.5 -22t22.5 -50z" />
    <glyph glyph-name="Eogonek" unicode="&#x118;" horiz-adv-x="1009"
d="M856 -362l2 -27q-56 -27 -129 -27q-71 0 -119.5 30.5t-48.5 90.5q0 65 60.5 145.5t160.5 147.5q-86 2 -276 2q-326 0 -412 -4v10q73 12 95 47t22 140v1099q0 49 -5 81t-12 51.5t-24.5 30t-33.5 15t-48 9.5v10q82 -4 262 -4q478 0 570 4q0 -5 1 -36t1 -50q0 -112 -13 -168
h-10q0 28 -1.5 49.5t-7.5 40t-12 31.5t-20.5 24t-27 17.5t-38 11.5t-46 7.5t-58.5 4t-69 2t-84 0.5q-127 0 -173 -12v-610h103t82.5 1.5t68 3t51 6.5t40.5 9.5t27.5 15t22 19.5t14 26.5t12 33.5t8.5 42h10q-4 -126 -4 -190q0 -69 4 -209h-10q-7 37 -11 58.5t-16.5 43.5
t-21.5 32.5t-37 21t-49 14t-73 7t-94.5 3.5h-126.5v-665q37 -13 175 -13h108t82.5 3t67 7.5t46 15t37 24t22 36.5t19 50t11.5 67h10q-1 -94 -6.5 -163t-5.5 -107l-103 4q-88 -75 -134 -144.5t-46 -123.5q0 -103 123 -103q31 0 88 11z" />
    <glyph glyph-name="eogonek" unicode="&#x119;" horiz-adv-x="952"
d="M793 -334l2 -26q-55 -27 -129 -27q-71 0 -119.5 30.5t-48.5 90.5q0 56 47 125.5t127 134.5q-52 -14 -117 -14q-119 0 -214.5 42.5t-153.5 113.5t-88.5 159t-30.5 184q0 213 124.5 358.5t311.5 145.5q158 0 267.5 -102t109.5 -260h-643q-5 -50 -5 -70q0 -238 112 -371
t292 -133q70 0 129.5 22t120.5 78l8 -8q-57 -70 -129 -108q-184 -156 -184 -273q0 -102 123 -102q36 0 88 10zM242 662h471q-6 140 -62 217t-151 77q-94 0 -164.5 -80.5t-93.5 -213.5z" />
    <glyph glyph-name="Ecaron" unicode="&#x11a;" horiz-adv-x="1009"
d="M930 264h10q-1 -94 -6.5 -163t-5.5 -107q-190 6 -422 6q-326 0 -412 -4v10q73 12 95 47t22 140v1099q0 49 -5 81t-12 51.5t-24.5 30t-33.5 15t-48 9.5v10q82 -4 262 -4q478 0 570 4q0 -5 1 -36t1 -50q0 -112 -13 -168h-10q0 28 -1.5 49.5t-7.5 40t-12 31.5t-20.5 24
t-27 17.5t-38 11.5t-46 7.5t-58.5 4t-69 2t-84 0.5q-127 0 -173 -12v-610h103t82.5 1.5t68 3t51 6.5t40.5 9.5t27.5 15t22 19.5t14 26.5t12 33.5t8.5 42h10q-4 -126 -4 -190q0 -69 4 -209h-10q-7 37 -11 58.5t-16.5 43.5t-21.5 32.5t-37 21t-49 14t-73 7t-94.5 3.5h-126.5
v-665q37 -13 175 -13h108t82.5 3t67 7.5t46 15t37 24t22 36.5t19 50t11.5 67zM573 1597h-55l-272 342h55l244 -235l246 235h55z" />
    <glyph glyph-name="ecaron" unicode="&#x11b;" horiz-adv-x="950"
d="M887 147l8 -8q-129 -159 -340 -159q-119 0 -214.5 42.5t-153.5 113.5t-88.5 159t-30.5 184q0 213 124.5 358.5t311.5 145.5q158 0 267.5 -102t109.5 -260h-643q-5 -50 -5 -70q0 -238 112 -371t292 -133q70 0 129.5 22t120.5 78zM242 662h471q-6 140 -62 217t-151 77
q-94 0 -164.5 -80.5t-93.5 -213.5zM514 1085h-55l-273 342h56l243 -235l246 235h55z" />
    <glyph glyph-name="Gcircumflex" unicode="&#x11c;" horiz-adv-x="1521"
d="M1221 141v373q0 51 -6 84.5t-12.5 51.5t-25.5 29t-30.5 13.5t-42.5 7.5v11q90 -4 192 -4q80 0 166 4v-11q-41 -8 -57.5 -20t-24.5 -48.5t-8 -117.5v-401q-34 -10 -119.5 -48.5t-174 -61.5t-201.5 -23q-153 0 -284 41.5t-225 114t-160.5 168.5t-99 205.5t-32.5 225.5
q0 152 52 289t148.5 243t246 169t331.5 63q90 0 184 -15t156.5 -32t183.5 -53q-6 -67 -6 -193q0 -66 2 -80h-10q-11 110 -84 186t-179 109t-239 33q-88 0 -172 -23.5t-163.5 -78t-139 -134.5t-95.5 -202.5t-36 -272.5q0 -210 83.5 -375t226 -254t317.5 -89q93 0 186 28.5
t152 87.5zM1145 1597h-55l-246 236l-244 -236h-55l272 342h55z" />
    <glyph glyph-name="gcircumflex" unicode="&#x11d;" horiz-adv-x="940"
d="M946 924l-74 -119q-16 63 -59 63q-30 0 -61 -28q59 -81 59 -191q0 -149 -105.5 -237t-259.5 -88q-25 0 -71 4q-94 -30 -94 -113q0 -19 4.5 -33.5t14.5 -25.5t21 -19.5t30 -14.5t35 -9.5t42.5 -7t45.5 -5.5t51.5 -5t54.5 -5q173 -19 251 -90.5t78 -171.5
q0 -116 -116.5 -202.5t-321.5 -86.5q-111 0 -207 28t-159.5 89t-63.5 143q0 81 60.5 148t185.5 106q-69 13 -105.5 43.5t-36.5 91.5q0 59 46 98.5t110 57.5q-109 35 -167 120t-58 189q0 63 23.5 121t67.5 105t115.5 75.5t159.5 28.5q86 0 162.5 -31.5t128.5 -89.5
q86 96 150 96q39 0 63 -34zM367 45q-166 -45 -166 -233q0 -120 76.5 -182t197.5 -62q112 0 188 57t76 178q0 44 -10.5 78.5t-28 58t-43.5 41t-54.5 27.5t-63.5 17t-67.5 10.5t-68.5 6.5q-8 0 -12.5 0.5t-11.5 1t-12 1.5zM440 350q201 0 201 293q0 313 -207 313
q-188 0 -188 -294q0 -163 48 -237.5t146 -74.5zM741 1085h-55l-246 236l-243 -236h-56l273 342h55z" />
    <glyph glyph-name="Gbreve" unicode="&#x11e;" horiz-adv-x="1521"
d="M1221 141v373q0 51 -6 84.5t-12.5 51.5t-25.5 29t-30.5 13.5t-42.5 7.5v11q90 -4 192 -4q80 0 166 4v-11q-41 -8 -57.5 -20t-24.5 -48.5t-8 -117.5v-401q-34 -10 -119.5 -48.5t-174 -61.5t-201.5 -23q-153 0 -284 41.5t-225 114t-160.5 168.5t-99 205.5t-32.5 225.5
q0 152 52 289t148.5 243t246 169t331.5 63q90 0 184 -15t156.5 -32t183.5 -53q-6 -67 -6 -193q0 -66 2 -80h-10q-11 110 -84 186t-179 109t-239 33q-88 0 -172 -23.5t-163.5 -78t-139 -134.5t-95.5 -202.5t-36 -272.5q0 -210 83.5 -375t226 -254t317.5 -89q93 0 186 28.5
t152 87.5zM1040 1870h45q0 -102 -73.5 -187.5t-192.5 -85.5q-82 0 -145 43.5t-93 104.5t-30 125h45q18 -97 70.5 -147t150.5 -50q101 0 147.5 47t75.5 150z" />
    <glyph glyph-name="gbreve" unicode="&#x11f;" horiz-adv-x="940"
d="M946 924l-74 -119q-16 63 -59 63q-30 0 -61 -28q59 -81 59 -191q0 -149 -105.5 -237t-259.5 -88q-25 0 -71 4q-94 -30 -94 -113q0 -19 4.5 -33.5t14.5 -25.5t21 -19.5t30 -14.5t35 -9.5t42.5 -7t45.5 -5.5t51.5 -5t54.5 -5q173 -19 251 -90.5t78 -171.5
q0 -116 -116.5 -202.5t-321.5 -86.5q-111 0 -207 28t-159.5 89t-63.5 143q0 81 60.5 148t185.5 106q-69 13 -105.5 43.5t-36.5 91.5q0 59 46 98.5t110 57.5q-109 35 -167 120t-58 189q0 63 23.5 121t67.5 105t115.5 75.5t159.5 28.5q86 0 162.5 -31.5t128.5 -89.5
q86 96 150 96q39 0 63 -34zM367 45q-166 -45 -166 -233q0 -120 76.5 -182t197.5 -62q112 0 188 57t76 178q0 44 -10.5 78.5t-28 58t-43.5 41t-54.5 27.5t-63.5 17t-67.5 10.5t-68.5 6.5q-8 0 -12.5 0.5t-11.5 1t-12 1.5zM440 350q201 0 201 293q0 313 -207 313
q-188 0 -188 -294q0 -163 48 -237.5t146 -74.5zM662 1358h45q0 -102 -74 -187.5t-193 -85.5q-82 0 -145 43.5t-93 104.5t-30 125h45q18 -97 70.5 -147t150.5 -50q101 0 148 47t76 150z" />
    <glyph glyph-name="Gdotaccent" unicode="&#x120;" horiz-adv-x="1521"
d="M1221 141v373q0 51 -6 84.5t-12.5 51.5t-25.5 29t-30.5 13.5t-42.5 7.5v11q90 -4 192 -4q80 0 166 4v-11q-41 -8 -57.5 -20t-24.5 -48.5t-8 -117.5v-401q-34 -10 -119.5 -48.5t-174 -61.5t-201.5 -23q-153 0 -284 41.5t-225 114t-160.5 168.5t-99 205.5t-32.5 225.5
q0 152 52 289t148.5 243t246 169t331.5 63q90 0 184 -15t156.5 -32t183.5 -53q-6 -67 -6 -193q0 -66 2 -80h-10q-11 110 -84 186t-179 109t-239 33q-88 0 -172 -23.5t-163.5 -78t-139 -134.5t-95.5 -202.5t-36 -272.5q0 -210 83.5 -375t226 -254t317.5 -89q93 0 186 28.5
t152 87.5zM897 1669q0 -28 -22.5 -50t-51.5 -22t-50 22t-21 50t21 50t50 22t51.5 -22t22.5 -50z" />
    <glyph glyph-name="gdotaccent" unicode="&#x121;" horiz-adv-x="940"
d="M946 924l-74 -119q-16 63 -59 63q-30 0 -61 -28q59 -81 59 -191q0 -149 -105.5 -237t-259.5 -88q-25 0 -71 4q-94 -30 -94 -113q0 -19 4.5 -33.5t14.5 -25.5t21 -19.5t30 -14.5t35 -9.5t42.5 -7t45.5 -5.5t51.5 -5t54.5 -5q173 -19 251 -90.5t78 -171.5
q0 -116 -116.5 -202.5t-321.5 -86.5q-111 0 -207 28t-159.5 89t-63.5 143q0 81 60.5 148t185.5 106q-69 13 -105.5 43.5t-36.5 91.5q0 59 46 98.5t110 57.5q-109 35 -167 120t-58 189q0 63 23.5 121t67.5 105t115.5 75.5t159.5 28.5q86 0 162.5 -31.5t128.5 -89.5
q86 96 150 96q39 0 63 -34zM367 45q-166 -45 -166 -233q0 -120 76.5 -182t197.5 -62q112 0 188 57t76 178q0 44 -10.5 78.5t-28 58t-43.5 41t-54.5 27.5t-63.5 17t-67.5 10.5t-68.5 6.5q-8 0 -12.5 0.5t-11.5 1t-12 1.5zM440 350q201 0 201 293q0 313 -207 313
q-188 0 -188 -294q0 -163 48 -237.5t146 -74.5zM516 1157q0 -28 -22.5 -50t-51.5 -22t-50 22t-21 50t21 50t50 22t51.5 -22t22.5 -50z" />
    <glyph glyph-name="Gcommaaccent" unicode="&#x122;" horiz-adv-x="1515"
d="M1221 141v373q0 51 -6 84.5t-12.5 51.5t-25.5 29t-30.5 13.5t-42.5 7.5v11q90 -4 192 -4q80 0 166 4v-11q-41 -8 -57.5 -20t-24.5 -48.5t-8 -117.5v-401q-34 -10 -119.5 -48.5t-174 -61.5t-201.5 -23q-153 0 -284 41.5t-225 114t-160.5 168.5t-99 205.5t-32.5 225.5
q0 152 52 289t148.5 243t246 169t331.5 63q90 0 184 -15t156.5 -32t183.5 -53q-6 -67 -6 -193q0 -66 2 -80h-10q-11 110 -84 186t-179 109t-239 33q-88 0 -172 -23.5t-163.5 -78t-139 -134.5t-95.5 -202.5t-36 -272.5q0 -210 83.5 -375t226 -254t317.5 -89q93 0 186 28.5
t152 87.5zM836 -467l-9 4q82 67 82 172q0 19 -4 35q-13 -8 -31 -8q-32 0 -49.5 20.5t-17.5 50.5q0 35 20.5 56.5t49.5 21.5q36 0 63 -32t27 -91q0 -73 -35.5 -134t-95.5 -95z" />
    <glyph glyph-name="gcommaaccent" unicode="&#x123;" horiz-adv-x="940"
d="M946 924l-74 -119q-16 63 -59 63q-30 0 -61 -28q59 -81 59 -191q0 -149 -105.5 -237t-259.5 -88q-25 0 -71 4q-94 -30 -94 -113q0 -19 4.5 -33.5t14.5 -25.5t21 -19.5t30 -14.5t35 -9.5t42.5 -7t45.5 -5.5t51.5 -5t54.5 -5q173 -19 251 -90.5t78 -171.5
q0 -116 -116.5 -202.5t-321.5 -86.5q-111 0 -207 28t-159.5 89t-63.5 143q0 81 60.5 148t185.5 106q-69 13 -105.5 43.5t-36.5 91.5q0 59 46 98.5t110 57.5q-109 35 -167 120t-58 189q0 63 23.5 121t67.5 105t115.5 75.5t159.5 28.5q86 0 162.5 -31.5t128.5 -89.5
q86 96 150 96q39 0 63 -34zM367 45q-166 -45 -166 -233q0 -120 76.5 -182t197.5 -62q112 0 188 57t76 178q0 44 -10.5 78.5t-28 58t-43.5 41t-54.5 27.5t-63.5 17t-67.5 10.5t-68.5 6.5q-8 0 -12.5 0.5t-11.5 1t-12 1.5zM440 350q201 0 201 293q0 313 -207 313
q-188 0 -188 -294q0 -163 48 -237.5t146 -74.5zM492 1440l8 -4q-82 -67 -82 -172q0 -19 4 -35q13 8 31 8q32 0 49.5 -21t17.5 -51q0 -36 -20 -57t-49 -21q-36 0 -63.5 32t-27.5 91q0 73 35.5 134.5t96.5 95.5z" />
    <glyph glyph-name="Hcircumflex" unicode="&#x124;" horiz-adv-x="1501"
d="M1395 6v-10q-86 4 -178 4q-89 0 -179 -4v10q33 5 49 11t30.5 25t19 54.5t4.5 96.5v571q-135 2 -404 2q-252 0 -377 -2v-571q0 -61 4.5 -96.5t19 -54.5t30.5 -25t49 -11v-10q-86 4 -178 4q-89 0 -179 -4v10q33 5 49 11t30.5 25t19 54.5t4.5 96.5v1099q0 61 -4.5 96.5
t-19 54.5t-30.5 25t-49 11v10q90 -4 179 -4q92 0 178 4v-10q-33 -5 -49 -11t-30.5 -25t-19 -54.5t-4.5 -96.5v-465q125 -2 377 -2q269 0 404 2v465q0 61 -4.5 96.5t-19 54.5t-30.5 25t-49 11v10q90 -4 179 -4q92 0 178 4v-10q-33 -5 -49 -11t-30.5 -25t-19 -54.5t-4.5 -96.5
v-1099q0 -61 4.5 -96.5t19 -54.5t30.5 -25t49 -11zM1051 1597h-56l-245 236l-244 -236h-55l272 342h55z" />
    <glyph glyph-name="hcircumflex" unicode="&#x125;" horiz-adv-x="1042"
d="M995 6v-10q-90 4 -153 4q-64 0 -154 -4v10q36 7 51.5 18t26 50t10.5 119v446q0 74 -14.5 129t-37.5 87.5t-56.5 52.5t-67 27t-74.5 7q-58 0 -125 -22.5t-122 -61.5v-665q0 -80 10.5 -119t26 -50t51.5 -18v-10q-90 4 -154 4t-154 -4v10q36 7 51.5 18t26 50t10.5 119v1202
q0 59 -10 79t-53 31v11q116 8 195 45v-660q132 82 299 82q329 0 329 -334v-456q0 -80 10.5 -119t26 -50t51.5 -18zM512 1597h-55l-246 236l-244 -236h-55l272 342h56z" />
    <glyph glyph-name="Hbar" unicode="&#x126;" horiz-adv-x="1501"
d="M1395 6v-10q-86 4 -178 4q-89 0 -179 -4v10q33 5 49 11t30.5 25t19 54.5t4.5 96.5v571q-135 2 -404 2q-252 0 -377 -2v-571q0 -61 4.5 -96.5t19 -54.5t30.5 -25t49 -11v-10q-86 4 -178 4q-89 0 -179 -4v10q33 5 49 11t30.5 25t19 54.5t4.5 96.5v890h-100v66q12 0 46 -1
t54 -1v145q0 61 -4.5 96.5t-19 54.5t-30.5 25t-49 11v10q90 -4 179 -4q92 0 178 4v-10q-33 -5 -49 -11t-30.5 -25t-19 -54.5t-4.5 -96.5v-147h781v147q0 61 -4.5 96.5t-19 54.5t-30.5 25t-49 11v10q90 -4 179 -4q92 0 178 4v-10q-33 -5 -49 -11t-30.5 -25t-19 -54.5
t-4.5 -96.5v-145q14 0 39.5 1t36.5 1v-66h-76v-890q0 -61 4.5 -96.5t19 -54.5t30.5 -25t49 -11zM1141 827v258h-781v-258q125 -2 377 -2q269 0 404 2z" />
    <glyph glyph-name="hbar" unicode="&#x127;" horiz-adv-x="1042"
d="M995 6v-10q-90 4 -153 4q-64 0 -154 -4v10q36 7 51.5 18t26 50t10.5 119v446q0 74 -14.5 129t-37.5 87.5t-56.5 52.5t-67 27t-74.5 7q-58 0 -125 -22.5t-122 -61.5v-665q0 -80 10.5 -119t26 -50t51.5 -18v-10q-90 4 -154 4t-154 -4v10q36 7 51.5 18t26 50t10.5 119v1034
q-21 0 -60 -1t-58 -1v61q39 -2 118 -2v111q0 59 -10 79t-53 31v11q116 8 195 45v-279h96q114 0 348 4v-61q-117 2 -348 2h-96v-326q132 82 299 82q329 0 329 -334v-456q0 -80 10.5 -119t26 -50t51.5 -18z" />
    <glyph glyph-name="Itilde" unicode="&#x128;" horiz-adv-x="569"
d="M463 6v-10q-86 4 -178 4q-89 0 -179 -4v10q33 5 49 11t30.5 25t19 54.5t4.5 96.5v1099q0 61 -4.5 96.5t-19 54.5t-30.5 25t-49 11v10q90 -4 179 -4q92 0 178 4v-10q-33 -5 -49 -11t-30.5 -25t-19 -54.5t-4.5 -96.5v-1099q0 -61 4.5 -96.5t19 -54.5t30.5 -25t49 -11z
M563 1776h19q-3 -21 -11 -44t-23 -47.5t-35 -43.5t-49.5 -31.5t-64.5 -12.5q-51 0 -139.5 47.5t-140.5 47.5q-46 0 -68 -20t-41 -75h-20q12 74 59 122t113 48q51 0 141.5 -47t142.5 -47q44 0 74 29.5t43 73.5z" />
    <glyph glyph-name="itilde" unicode="&#x129;" horiz-adv-x="432"
d="M373 6v-10q-90 4 -154 4q-63 0 -153 -4v10q36 7 51.5 18t26 50t10.5 119v614q0 59 -10 79.5t-54 31.5v10q116 8 195 45v-780q0 -80 10.5 -119t26 -50t51.5 -18zM498 1264h18q-4 -28 -16 -56.5t-33 -57.5t-55.5 -47t-77.5 -18q-51 0 -140 47.5t-141 47.5
q-46 0 -67.5 -19.5t-40.5 -75.5h-21q12 74 59 122t113 48q51 0 142 -47t143 -47q44 0 74 29.5t43 73.5z" />
    <glyph glyph-name="Imacron" unicode="&#x12a;" horiz-adv-x="569"
d="M463 6v-10q-86 4 -178 4q-89 0 -179 -4v10q33 5 49 11t30.5 25t19 54.5t4.5 96.5v1099q0 61 -4.5 96.5t-19 54.5t-30.5 25t-49 11v10q90 -4 179 -4q92 0 178 4v-10q-33 -5 -49 -11t-30.5 -25t-19 -54.5t-4.5 -96.5v-1099q0 -61 4.5 -96.5t19 -54.5t30.5 -25t49 -11z
M565 1700v-62q-94 2 -280 2q-187 0 -279 -2v62q184 -4 279 -4q92 0 280 4z" />
    <glyph glyph-name="imacron" unicode="&#x12b;" horiz-adv-x="432"
d="M373 6v-10q-90 4 -154 4q-63 0 -153 -4v10q36 7 51.5 18t26 50t10.5 119v614q0 59 -10 79.5t-54 31.5v10q116 8 195 45v-780q0 -80 10.5 -119t26 -50t51.5 -18zM500 1188v-62q-94 2 -281 2q-186 0 -278 -2v62q184 -4 278 -4q93 0 281 4z" />
    <glyph glyph-name="Ibreve" unicode="&#x12c;" horiz-adv-x="569"
d="M463 6v-10q-86 4 -178 4q-89 0 -179 -4v10q33 5 49 11t30.5 25t19 54.5t4.5 96.5v1099q0 61 -4.5 96.5t-19 54.5t-30.5 25t-49 11v10q90 -4 179 -4q92 0 178 4v-10q-33 -5 -49 -11t-30.5 -25t-19 -54.5t-4.5 -96.5v-1099q0 -61 4.5 -96.5t19 -54.5t30.5 -25t49 -11z
M508 1870h45q0 -102 -73.5 -187.5t-192.5 -85.5q-82 0 -145 43t-93.5 104.5t-30.5 125.5h45q18 -97 71 -147t151 -50q101 0 147.5 47t75.5 150z" />
    <glyph glyph-name="ibreve" unicode="&#x12d;" horiz-adv-x="432"
d="M373 6v-10q-90 4 -154 4q-63 0 -153 -4v10q36 7 51.5 18t26 50t10.5 119v614q0 59 -10 79.5t-54 31.5v10q116 8 195 45v-780q0 -80 10.5 -119t26 -50t51.5 -18zM442 1358h45q0 -102 -73.5 -187.5t-192.5 -85.5q-82 0 -145 43.5t-93 104.5t-30 125h45q18 -97 70.5 -147
t150.5 -50q101 0 147.5 47t75.5 150z" />
    <glyph glyph-name="Iogonek" unicode="&#x12e;" horiz-adv-x="569"
d="M393 -362l2 -27q-55 -27 -129 -27q-71 0 -119.5 30.5t-48.5 90.5q0 65 61.5 146.5t162.5 148.5h-37q-89 0 -179 -4v10q33 5 49 11t30.5 25t19 54.5t4.5 96.5v1099q0 61 -4.5 96.5t-19 54.5t-30.5 25t-49 11v10q90 -4 179 -4q92 0 178 4v-10q-33 -5 -49 -11t-30.5 -25
t-19 -54.5t-4.5 -96.5v-1099q0 -61 4.5 -96.5t19 -54.5t30.5 -25t49 -11v-10q-54 4 -98 4q-90 -74 -136.5 -145t-46.5 -125q0 -103 123 -103q31 0 88 11z" />
    <glyph glyph-name="iogonek" unicode="&#x12f;" horiz-adv-x="432"
d="M354 -360l2 -27q-56 -27 -129 -27q-71 0 -119.5 30.5t-48.5 90.5q0 64 61 144.5t161 148.5h-62q-63 0 -153 -4v10q36 7 51.5 18t26 50t10.5 119v614q0 59 -10 79.5t-54 31.5v10q116 8 195 45v-780q0 -80 10.5 -119t26 -50t51.5 -18v-10l-51 4q-88 -75 -133.5 -144.5
t-45.5 -123.5q0 -103 123 -103q31 0 88 11zM303 1204q0 -29 -21 -49t-53 -20q-29 0 -49 20t-20 49q0 32 20 53t49 21q32 0 53 -21t21 -53z" />
    <glyph glyph-name="Idotaccent" unicode="&#x130;" horiz-adv-x="569"
d="M463 6v-10q-86 4 -178 4q-89 0 -179 -4v10q33 5 49 11t30.5 25t19 54.5t4.5 96.5v1099q0 61 -4.5 96.5t-19 54.5t-30.5 25t-49 11v10q90 -4 179 -4q92 0 178 4v-10q-33 -5 -49 -11t-30.5 -25t-19 -54.5t-4.5 -96.5v-1099q0 -61 4.5 -96.5t19 -54.5t30.5 -25t49 -11z
M358 1669q0 -28 -22 -50t-51 -22t-50.5 22t-21.5 50t21.5 50t50.5 22t51 -22t22 -50z" />
    <glyph glyph-name="dotlessi" unicode="&#x131;" horiz-adv-x="434"
d="M373 6v-10q-90 4 -154 4q-63 0 -153 -4v10q36 7 51.5 18t26 50t10.5 119v614q0 59 -10 79.5t-54 31.5v10q116 8 195 45v-780q0 -80 10.5 -119t26 -50t51.5 -18z" />
    <glyph glyph-name="IJ" unicode="&#x132;" horiz-adv-x="1136"
d="M463 6v-10q-86 4 -178 4q-89 0 -179 -4v10q33 5 49 11t30.5 25t19 54.5t4.5 96.5v1099q0 61 -4.5 96.5t-19 54.5t-30.5 25t-49 11v10q90 -4 179 -4q92 0 178 4v-10q-33 -5 -49 -11t-30.5 -25t-19 -54.5t-4.5 -96.5v-1099q0 -61 4.5 -96.5t19 -54.5t30.5 -25t49 -11z
M612 -408l-2 11q106 20 137 68t31 188v1433q0 40 -3.5 69.5t-13 49t-18.5 31.5t-26.5 19.5t-30.5 10.5t-37 7v10q90 -4 205 -4q111 0 197 4v-10q-20 -4 -28 -6t-23.5 -7t-21.5 -10t-16.5 -14.5t-14.5 -22.5t-9 -31t-6.5 -42t-1.5 -54v-1255q0 -79 -7.5 -138t-28.5 -114
t-56 -92.5t-91.5 -64t-134.5 -36.5z" />
    <glyph glyph-name="ij" unicode="&#x133;" horiz-adv-x="831"
d="M373 6v-10q-90 4 -154 4q-63 0 -153 -4v10q36 7 51.5 18t26 50t10.5 119v614q0 59 -10 79.5t-54 31.5v10q116 8 195 45v-780q0 -80 10.5 -119t26 -50t51.5 -18zM303 1204q0 -29 -21 -49t-53 -20q-29 0 -49 20t-20 49q0 32 20 53t49 21q32 0 53 -21t21 -53zM414 -459l2 15
q102 0 124.5 92.5t22.5 398.5v760q0 60 -10 80t-53 31v10q115 8 194 45v-998q0 -62 -3 -108t-11 -100t-25.5 -91.5t-44.5 -70.5t-69.5 -49.5t-98.5 -16.5q-16 0 -28 2zM713 1204q0 -29 -21 -49t-53 -20q-29 0 -49.5 20t-20.5 49q0 32 20 53t50 21q32 0 53 -21t21 -53z" />
    <glyph glyph-name="Jcircumflex" unicode="&#x134;" horiz-adv-x="567"
d="M43 -408l-2 11q106 20 137 68t31 188v1433q0 40 -3.5 69.5t-13 49t-18.5 31.5t-26.5 19.5t-30.5 10.5t-37 7v10q90 -4 205 -4q110 0 196 4v-10q-20 -4 -28 -6t-23.5 -7t-21.5 -10t-16.5 -14.5t-14.5 -22.5t-9 -31t-6.5 -42t-1.5 -54v-1255q0 -99 -13 -169.5t-46.5 -131
t-97 -96t-160.5 -48.5zM586 1597h-56l-245 236l-244 -236h-55l272 342h55z" />
    <glyph glyph-name="jcircumflex" unicode="&#x135;" horiz-adv-x="405"
d="M-12 -459l2 15q102 0 124.5 92.5t22.5 398.5v760q0 60 -10 80t-53 31v10q115 8 194 45v-998q0 -62 -3 -108t-11 -100t-25.5 -91.5t-44.5 -70.5t-69.5 -49.5t-98.5 -16.5q-16 0 -28 2zM504 1085h-55l-246 236l-244 -236h-55l272 342h55z" />
    <glyph glyph-name="Kcommaaccent" unicode="&#x136;" horiz-adv-x="1167"
d="M1221 6v-10q-86 4 -187 4q-90 0 -180 -4v10q59 5 59 31q0 10 -8 23.5t-17 25t-28 33.5t-29 35l-471 571v-532q0 -61 4.5 -96.5t19 -54.5t30.5 -25t49 -11v-10q-86 4 -178 4q-89 0 -179 -4v10q33 5 49 11t30.5 25t19 54.5t4.5 96.5v1099q0 61 -4.5 96.5t-19 54.5t-30.5 25
t-49 11v10q90 -4 179 -4q92 0 178 4v-10q-33 -5 -49 -11t-30.5 -25t-19 -54.5t-4.5 -96.5v-524l295 328q151 167 207 237t56 105q0 19 -13.5 28.5t-46.5 12.5v10q90 -4 168 -4q96 0 182 4v-10q-83 -16 -193.5 -118.5t-437.5 -446.5q-65 -68 -100 -105l557 -659
q40 -48 55.5 -65.5t41 -40.5t45 -30t45.5 -8zM594 -461l-8 4q82 67 82 172q0 19 -4 35q-13 -8 -31 -8q-32 0 -50 21t-18 51q0 35 20.5 56t49.5 21q36 0 63 -31.5t27 -90.5q0 -73 -35.5 -134.5t-95.5 -95.5z" />
    <glyph glyph-name="kcommaaccent" unicode="&#x137;" horiz-adv-x="917"
d="M969 6v-10q-160 4 -187 4q-10 0 -120 -4v10q36 4 36 17q0 9 -14 26l-408 459v-315q0 -80 11 -119.5t26.5 -50t51.5 -17.5v-10q-90 4 -154 4t-154 -4v10q36 7 51.5 18t26 50t10.5 119v1202q0 59 -10 79t-53 31v11q115 8 194 45v-1026q193 181 273 267.5t80 127.5
q0 16 -10.5 24.5t-38.5 12.5v10q94 -4 145 -4q47 0 145 4v-12q-74 -15 -146.5 -71.5t-340.5 -305.5q62 -70 128 -144.5t106 -120.5t83.5 -95.5t69 -77t53 -56t44.5 -42t36 -25.5t34 -16t32 -5zM465 -461l-8 4q82 67 82 172q0 19 -4 35q-13 -8 -31 -8q-32 0 -50 21t-18 51
q0 35 20.5 56t49.5 21q36 0 63 -31.5t27 -90.5q0 -73 -35.5 -134.5t-95.5 -95.5z" />
    <glyph glyph-name="kgreenlandic" unicode="&#x138;" horiz-adv-x="933"
d="M977 6v-10q-160 4 -186 4q-11 0 -121 -4v10q37 4 37 17q0 7 -15 26l-407 459v-315q0 -80 10.5 -119t26 -50t51.5 -18v-10q-90 4 -154 4q-63 0 -153 -4v10q36 7 51.5 18t26 50t10.5 119v624q0 59 -10 79.5t-54 31.5v10q116 8 195 45v-448q192 180 272 267t80 128
q0 16 -10.5 24.5t-38.5 12.5v10q94 -4 145 -4q48 0 146 4v-12q-74 -15 -147.5 -72.5t-340.5 -304.5q62 -70 128 -144.5t106 -120.5t83.5 -95.5t69 -77t53 -56t44.5 -42t36 -25.5t34 -16t32 -5z" />
    <glyph glyph-name="Lacute" unicode="&#x139;" horiz-adv-x="962"
d="M930 264h10q-1 -94 -6.5 -163t-5.5 -107q-190 6 -422 6q-326 0 -412 -4v10q73 12 95 47t22 140v1099q0 81 -11 119.5t-29.5 49.5t-61.5 18v10q90 -4 178 -4q92 0 178 4v-10q-33 -5 -49 -11t-30.5 -25t-19 -54.5t-4.5 -96.5v-1218q37 -13 175 -13h108t82.5 3t67 7.5t46 15
t37 24t22 36.5t19 50t11.5 67zM594 1829l-332 -248l-22 18l276 312z" />
    <glyph glyph-name="lacute" unicode="&#x13a;" horiz-adv-x="446"
d="M377 6v-10q-90 4 -154 4q-63 0 -153 -4v10q36 7 51.5 18t26 50t10.5 119v1202q0 59 -10 79t-54 31v11q116 8 195 45v-1368q0 -80 10.5 -119t26 -50t51.5 -18zM483 1886l-331 -248l-23 19l277 311z" />
    <glyph glyph-name="Lcommaaccent" unicode="&#x13b;" horiz-adv-x="958"
d="M928 264h10q-1 -94 -6.5 -163t-5.5 -107q-190 6 -422 6q-326 0 -412 -4v10q73 12 95 47t22 140v1099q0 61 -4.5 96.5t-19 54.5t-30.5 25t-49 11v10q90 -4 179 -4q92 0 178 4v-10q-33 -5 -49 -11t-30.5 -25t-19 -54.5t-4.5 -96.5v-1218q37 -13 175 -13h108t82.5 3t67 7.5
t46 15t37 24t22 36.5t19 50t11.5 67zM532 -461l-8 4q82 67 82 172q0 19 -4 35q-13 -8 -31 -8q-32 0 -49.5 21t-17.5 51q0 35 20 56t49 21q36 0 63.5 -31.5t27.5 -90.5q0 -73 -35.5 -134.5t-96.5 -95.5z" />
    <glyph glyph-name="lcommaaccent" unicode="&#x13c;" horiz-adv-x="442"
d="M375 6v-10q-90 4 -154 4q-63 0 -153 -4v10q36 7 51.5 18t26 50t10.5 119v1202q0 59 -10 79t-54 31v11q116 8 195 45v-1368q0 -80 10.5 -119t26 -50t51.5 -18zM170 -461l-8 4q82 67 82 172q0 19 -4 35q-13 -8 -31 -8q-32 0 -50 21t-18 51q0 35 20.5 56t49.5 21
q36 0 63 -31.5t27 -90.5q0 -73 -35.5 -134.5t-95.5 -95.5z" />
    <glyph glyph-name="Lcaron" unicode="&#x13d;" horiz-adv-x="962"
d="M930 264h10q-1 -94 -6.5 -163t-5.5 -107q-190 6 -422 6q-326 0 -412 -4v10q73 12 95 47t22 140v1099q0 81 -11 119.5t-29.5 49.5t-61.5 18v10q90 -4 178 -4q92 0 178 4v-10q-33 -5 -49 -11t-30.5 -25t-19 -54.5t-4.5 -96.5v-1218q37 -13 175 -13h108t82.5 3t67 7.5t46 15
t37 24t22 36.5t19 50t11.5 67zM631 1135l-8 4q82 67 82 172q0 15 -5 35q-15 -9 -30 -9q-32 0 -50 21t-18 51q0 35 20.5 56.5t49.5 21.5q36 0 63 -32t27 -91q0 -73 -35.5 -134t-95.5 -95z" />
    <glyph glyph-name="lcaron" unicode="&#x13e;" horiz-adv-x="446"
d="M377 6v-10q-90 4 -154 4q-63 0 -153 -4v10q36 7 51.5 18t26 50t10.5 119v1202q0 59 -10 79t-54 31v11q116 8 195 45v-1368q0 -80 10.5 -119t26 -50t51.5 -18zM410 1135l-9 4q82 67 82 172q0 19 -4 35q-15 -9 -30 -9q-32 0 -50 21t-18 51q0 35 20.5 56.5t49.5 21.5
q36 0 63 -32t27 -91q0 -73 -35.5 -134t-95.5 -95z" />
    <glyph glyph-name="Ldot" unicode="&#x13f;" horiz-adv-x="993"
d="M930 264h10q-1 -94 -6.5 -163t-5.5 -107q-190 6 -422 6q-326 0 -412 -4v10q73 12 95 47t22 140v1099q0 81 -11 119.5t-29.5 49.5t-61.5 18v10q90 -4 178 -4q92 0 178 4v-10q-33 -5 -49 -11t-30.5 -25t-19 -54.5t-4.5 -96.5v-1218q37 -13 175 -13h108t82.5 3t67 7.5t46 15
t37 24t22 36.5t19 50t11.5 67zM846 741q0 -30 -22.5 -50.5t-55.5 -20.5q-29 0 -50.5 21t-21.5 50q0 33 21 55.5t51 22.5q34 0 56 -22t22 -56z" />
    <glyph glyph-name="ldot" unicode="&#x140;" horiz-adv-x="608"
d="M377 6v-10q-90 4 -154 4q-63 0 -153 -4v10q36 7 51.5 18t26 50t10.5 119v1202q0 59 -10 79t-54 31v11q116 8 195 45v-1368q0 -80 10.5 -119t26 -50t51.5 -18zM602 616q0 -30 -22.5 -50.5t-55.5 -20.5q-29 0 -50 21t-21 50q0 33 20.5 55.5t50.5 22.5q34 0 56 -22t22 -56z
" />
    <glyph glyph-name="Lslash" unicode="&#x141;" horiz-adv-x="962"
d="M930 264h10q-1 -94 -6.5 -163t-5.5 -107q-190 6 -422 6q-326 0 -412 -4v10q73 12 95 47t22 140v276l-164 -88v61l164 88v762q0 81 -11 119.5t-29.5 49.5t-61.5 18v10q90 -4 178 -4q92 0 178 4v-10q-33 -5 -49 -11t-30.5 -25t-19 -54.5t-4.5 -96.5v-680l252 138v-62
l-252 -137v-477q37 -13 175 -13h108t82.5 3t67 7.5t46 15t37 24t22 36.5t19 50t11.5 67z" />
    <glyph glyph-name="lslash" unicode="&#x142;" horiz-adv-x="450"
d="M379 6v-10q-90 4 -154 4q-63 0 -153 -4v10q36 7 51.5 18t26 50t10.5 119v307l-144 -78v61l144 78v834q0 59 -10 79t-54 31v11q116 8 195 45v-928l143 78v-62l-143 -78v-378q0 -80 10.5 -119t26 -50t51.5 -18z" />
    <glyph glyph-name="Nacute" unicode="&#x143;" horiz-adv-x="1667"
d="M1450 -45h-10l-1164 1294v-184q0 -671 11 -824q12 -150 48 -192q19 -22 74 -40h1l1 -1h2q3 -1 5 -2v-10q-90 4 -174 4q-76 0 -162 -4v10q55 20 72 38q36 37 48 168q13 143 13 770v85v453h14l1160 -1289v183q0 682 -14 842q-12 144 -49 184q-19 19 -73 37q-4 1 -6 2v10
q90 -4 174 -4t170 4v-10q-57 -19 -75 -35q-38 -34 -51 -156q-15 -142 -15 -739v-123v-471zM1092 1829l-332 -248l-23 18l277 312z" />
    <glyph glyph-name="nacute" unicode="&#x144;" horiz-adv-x="1048"
d="M1001 6v-10q-90 4 -153 4q-64 0 -154 -4v10q36 7 51.5 18t26 50t10.5 119v446q0 74 -14.5 129t-37.5 87.5t-56.5 52.5t-67 27t-74.5 7q-58 0 -125 -22.5t-122 -61.5v-665q0 -80 10.5 -119t26 -50t51.5 -18v-10q-90 4 -154 4q-63 0 -153 -4v10q36 7 51.5 18t26 50
t10.5 119v624q0 59 -10 79.5t-54 31.5v10q116 8 195 45v-82q132 82 299 82q329 0 329 -334v-456q0 -80 10.5 -119t26 -50t51.5 -18zM786 1317l-331 -248l-23 18l277 312z" />
    <glyph glyph-name="Ncommaaccent" unicode="&#x145;" horiz-adv-x="1665"
d="M1450 -45h-10l-1164 1294v-184q0 -671 11 -824q12 -150 48 -192q19 -22 74 -40h1l1 -1h2q3 -1 5 -2v-10q-90 4 -174 4q-76 0 -162 -4v10q55 20 72 38q36 37 48 168q13 143 13 770v85v453h14l1160 -1289v183q0 682 -14 842q-12 144 -49 184q-19 19 -73 37q-4 1 -6 2v10
q90 -4 174 -4t170 4v-10q-57 -19 -75 -35q-38 -34 -51 -156q-15 -142 -15 -739v-123v-471zM801 -461l-8 4q81 66 81 172q0 19 -4 35q-13 -8 -30 -8q-32 0 -50 21t-18 51q0 35 20.5 56t49.5 21q36 0 63 -31.5t27 -90.5q0 -73 -35.5 -134.5t-95.5 -95.5z" />
    <glyph glyph-name="ncommaaccent" unicode="&#x146;" horiz-adv-x="1044"
d="M997 6v-10q-90 4 -153 4q-64 0 -154 -4v10q36 7 51.5 18t26 50t10.5 119v446q0 74 -14.5 129t-37.5 87.5t-56.5 52.5t-67 27t-74.5 7q-58 0 -125 -22.5t-122 -61.5v-665q0 -80 10.5 -119t26 -50t51.5 -18v-10q-90 4 -154 4t-154 -4v10q36 7 51.5 17.5t26.5 50t11 119.5
v624q0 59 -10 79.5t-54 31.5v10q116 8 195 45v-82q132 82 299 82q329 0 329 -334v-456q0 -80 10.5 -119t26 -50t51.5 -18zM492 -461l-9 4q82 67 82 172q0 19 -4 35q-13 -8 -31 -8q-32 0 -49.5 21t-17.5 51q0 35 20 56t49 21q36 0 63.5 -31.5t27.5 -90.5q0 -73 -35.5 -134.5
t-95.5 -95.5z" />
    <glyph glyph-name="Ncaron" unicode="&#x147;" horiz-adv-x="1667"
d="M1450 -45h-10l-1164 1294v-184q0 -671 11 -824q12 -150 48 -192q19 -22 74 -40h1l1 -1h2q3 -1 5 -2v-10q-90 4 -174 4q-76 0 -162 -4v10q55 20 72 38q36 37 48 168q13 143 13 770v85v453h14l1160 -1289v183q0 682 -14 842q-12 144 -49 184q-19 19 -73 37q-4 1 -6 2v10
q90 -4 174 -4t170 4v-10q-57 -19 -75 -35q-38 -34 -51 -156q-15 -142 -15 -739v-123v-471zM879 1597h-56l-272 342h55l244 -235l246 235h55z" />
    <glyph glyph-name="ncaron" unicode="&#x148;" horiz-adv-x="1048"
d="M1001 6v-10q-90 4 -153 4q-64 0 -154 -4v10q36 7 51.5 18t26 50t10.5 119v446q0 74 -14.5 129t-37.5 87.5t-56.5 52.5t-67 27t-74.5 7q-58 0 -125 -22.5t-122 -61.5v-665q0 -80 10.5 -119t26 -50t51.5 -18v-10q-90 4 -154 4q-63 0 -153 -4v10q36 7 51.5 18t26 50
t10.5 119v624q0 59 -10 79.5t-54 31.5v10q116 8 195 45v-82q132 82 299 82q329 0 329 -334v-456q0 -80 10.5 -119t26 -50t51.5 -18zM555 1085h-55l-273 342h56l243 -235l246 235h55z" />
    <glyph glyph-name="Eng" unicode="&#x14a;" horiz-adv-x="1665"
d="M1194 -408l-2 11q99 19 133.5 82t34.5 174v184l-1084 1206v-184q0 -671 11 -824q12 -150 48 -192q19 -22 74 -40h1l1 -1h2q3 -1 5 -2v-10q-90 4 -174 4q-76 0 -162 -4v10q55 20 72 38q36 37 48 168q13 143 13 770v85v453h14l1160 -1289v183q0 682 -14 842
q-12 144 -49 184q-19 19 -73 37q-4 1 -6 2v10q90 -4 174 -4t170 4v-10q-57 -19 -75 -35q-38 -34 -51 -156q-15 -142 -15 -739v-123v-389q0 -79 -6 -138t-22.5 -114.5t-44.5 -92.5t-74 -63.5t-109 -36.5z" />
    <glyph glyph-name="eng" unicode="&#x14b;" horiz-adv-x="1036"
d="M633 -451l2 15q102 0 124.5 92.5t22.5 398.5v584q0 74 -14.5 129t-37.5 87.5t-56.5 52.5t-67 27t-74.5 7q-58 0 -125 -22.5t-122 -61.5v-665q0 -80 10.5 -119t26 -50t51.5 -18v-10q-90 4 -154 4q-63 0 -153 -4v10q36 7 51.5 18t26 50t10.5 119v624q0 59 -10 79.5
t-54 31.5v10q116 8 195 45v-82q132 82 299 82q329 0 329 -334v-665q0 -62 -2.5 -108t-11 -100t-25.5 -92t-44 -71t-69.5 -49.5t-98.5 -16.5q-17 0 -29 2z" />
    <glyph glyph-name="Omacron" unicode="&#x14c;"
d="M811 -20q-165 0 -305.5 64t-232.5 169.5t-143.5 239.5t-51.5 276q0 146 52.5 283.5t146.5 246t237.5 174.5t312.5 66q148 0 282.5 -58.5t232.5 -159t156 -243t58 -303.5q0 -155 -57 -294t-155 -240.5t-237 -161t-296 -59.5zM811 27q118 0 218 43t176 127t119.5 218.5
t43.5 307.5q0 151 -31.5 274.5t-85 207t-125.5 141t-151 83t-164 25.5q-84 0 -161 -25t-147.5 -81t-122 -138t-82 -204t-30.5 -271q0 -180 42.5 -318t117.5 -222t171.5 -126t211.5 -42zM1096 1700v-62q-94 2 -281 2q-186 0 -278 -2v62q184 -4 278 -4q93 0 281 4z" />
    <glyph glyph-name="omacron" unicode="&#x14d;" horiz-adv-x="1120"
d="M567 -12q-233 0 -366 131t-133 360q0 220 141 362t354 142t351.5 -143.5t138.5 -360.5q0 -207 -134 -349t-352 -142zM559 14q80 0 139.5 28.5t94 73t55.5 110.5t28 128.5t7 139.5q0 80 -9 145.5t-32.5 125.5t-60.5 101t-96 65.5t-136 24.5q-311 0 -311 -495q0 -74 8 -135
t30 -120.5t57 -100.5t92.5 -66t133.5 -25zM840 1188v-62q-94 2 -281 2q-186 0 -278 -2v62q184 -4 278 -4q93 0 281 4z" />
    <glyph glyph-name="Obreve" unicode="&#x14e;"
d="M811 -20q-165 0 -305.5 64t-232.5 169.5t-143.5 239.5t-51.5 276q0 146 52.5 283.5t146.5 246t237.5 174.5t312.5 66q148 0 282.5 -58.5t232.5 -159t156 -243t58 -303.5q0 -155 -57 -294t-155 -240.5t-237 -161t-296 -59.5zM811 27q118 0 218 43t176 127t119.5 218.5
t43.5 307.5q0 151 -31.5 274.5t-85 207t-125.5 141t-151 83t-164 25.5q-84 0 -161 -25t-147.5 -81t-122 -138t-82 -204t-30.5 -271q0 -180 42.5 -318t117.5 -222t171.5 -126t211.5 -42zM1038 1870h45q0 -102 -73.5 -187.5t-192.5 -85.5q-82 0 -145 43.5t-93 104.5t-30 125
h45q18 -97 70.5 -147t150.5 -50q101 0 147.5 47t75.5 150z" />
    <glyph glyph-name="obreve" unicode="&#x14f;" horiz-adv-x="1120"
d="M567 -12q-233 0 -366 131t-133 360q0 220 141 362t354 142t351.5 -143.5t138.5 -360.5q0 -207 -134 -349t-352 -142zM559 14q80 0 139.5 28.5t94 73t55.5 110.5t28 128.5t7 139.5q0 80 -9 145.5t-32.5 125.5t-60.5 101t-96 65.5t-136 24.5q-311 0 -311 -495q0 -74 8 -135
t30 -120.5t57 -100.5t92.5 -66t133.5 -25zM782 1358h45q0 -102 -73.5 -187.5t-192.5 -85.5q-82 0 -145 43.5t-93 104.5t-30 125h45q18 -97 70.5 -147t150.5 -50q101 0 147.5 47t75.5 150z" />
    <glyph glyph-name="Ohungarumlaut" unicode="&#x150;"
d="M811 -20q-165 0 -305.5 64t-232.5 169.5t-143.5 239.5t-51.5 276q0 146 52.5 283.5t146.5 246t237.5 174.5t312.5 66q148 0 282.5 -58.5t232.5 -159t156 -243t58 -303.5q0 -155 -57 -294t-155 -240.5t-237 -161t-296 -59.5zM811 27q118 0 218 43t176 127t119.5 218.5
t43.5 307.5q0 151 -31.5 274.5t-85 207t-125.5 141t-151 83t-164 25.5q-84 0 -161 -25t-147.5 -81t-122 -138t-82 -204t-30.5 -271q0 -180 42.5 -318t117.5 -222t171.5 -126t211.5 -42zM950 1829l-332 -248l-22 18l276 312zM1241 1829l-332 -248l-22 18l276 312z" />
    <glyph glyph-name="ohungarumlaut" unicode="&#x151;" horiz-adv-x="1120"
d="M567 -12q-233 0 -366 131t-133 360q0 220 141 362t354 142t351.5 -143.5t138.5 -360.5q0 -207 -134 -349t-352 -142zM559 14q80 0 139.5 28.5t94 73t55.5 110.5t28 128.5t7 139.5q0 80 -9 145.5t-32.5 125.5t-60.5 101t-96 65.5t-136 24.5q-311 0 -311 -495q0 -74 8 -135
t30 -120.5t57 -100.5t92.5 -66t133.5 -25zM664 1317l-332 -248l-23 18l277 312zM954 1317l-331 -248l-23 18l277 312z" />
    <glyph glyph-name="OE" unicode="&#x152;" horiz-adv-x="2168"
d="M2089 264h10q-1 -94 -6.5 -163t-5.5 -107q-190 6 -422 6q-326 0 -412 -4v10q73 12 95 47t22 140v36q-103 -118 -247.5 -183.5t-311.5 -65.5q-165 0 -305.5 64t-232.5 169.5t-143.5 239.5t-51.5 276q0 146 52.5 283.5t146.5 246t237.5 174.5t312.5 66q159 0 300.5 -65.5
t242.5 -182.5v41q0 49 -5 81t-12 51.5t-24.5 30t-33.5 15t-48 9.5v10q82 -4 262 -4q478 0 570 4q0 -5 1 -36t1 -50q0 -112 -13 -168h-10q0 28 -1.5 49.5t-7.5 40t-12 31.5t-20.5 24t-27 17.5t-38 11.5t-46 7.5t-58.5 4t-69 2t-84 0.5q-126 0 -172 -12v-610q111 0 162 0.5
t108 6.5t75 13t40 28t28 43.5t15 65.5h10q-4 -126 -4 -190q0 -69 4 -209h-10q-5 30 -8.5 48t-12 38t-13.5 30.5t-22 22.5t-28 17t-40 11t-50.5 7.5t-67.5 3.5t-82.5 2h-103.5v-665q37 -13 174 -13h108t82.5 3t67 7.5t46 15t37 24t22 36.5t19 50t11.5 67zM811 27
q118 0 218 43t176 127t119.5 218.5t43.5 307.5q0 151 -31.5 274.5t-85 207t-125.5 141t-151 83t-164 25.5q-84 0 -161 -25t-147.5 -81t-122 -138t-82 -204t-30.5 -271q0 -180 42.5 -318t117.5 -222t171.5 -126t211.5 -42z" />
    <glyph glyph-name="oe" unicode="&#x153;" horiz-adv-x="1767"
d="M1704 147l8 -8q-129 -159 -340 -159q-273 0 -405 208q-65 -94 -167.5 -147t-232.5 -53q-233 0 -366 131t-133 360q0 220 141 362t354 142q127 0 231.5 -55t170.5 -152q58 97 151 152t205 55q158 0 267.5 -102t109.5 -260h-643q-4 -40 -4 -70q0 -238 111.5 -371
t291.5 -133q70 0 129.5 22t120.5 78zM559 14q80 0 139.5 28.5t94 73t55.5 110.5t28 128.5t7 139.5q0 80 -9 145.5t-32.5 125.5t-60.5 101t-96 65.5t-136 24.5q-311 0 -311 -495q0 -74 8 -135t30 -120.5t57 -100.5t92.5 -66t133.5 -25zM1059 662h471q-6 140 -62 217t-151 77
q-94 0 -164.5 -80.5t-93.5 -213.5z" />
    <glyph glyph-name="Racute" unicode="&#x154;" horiz-adv-x="1130"
d="M1135 6v-12q-18 -2 -52 -2q-60 2 -92 6t-72 24t-63.5 44.5t-66 87t-79.5 130.5t-104 195q-3 5 -27.5 54.5t-45.5 82.5t-41 50h-132v-473q0 -61 4.5 -96.5t19 -54.5t30.5 -25t49 -11v-10q-86 4 -178 4q-89 0 -179 -4v10q33 5 49 11t30.5 25t19 54.5t4.5 96.5v1099
q0 103 -19.5 140.5t-78.5 46.5v10q70 -4 196 -4q33 0 113 2t100 2q228 0 356 -113.5t128 -296.5q0 -88 -38 -166t-120 -139t-199 -88q20 -15 77 -118t118.5 -216t143.5 -218t149 -128zM360 709h99q107 0 182 25.5t115.5 74t57.5 107.5t17 137q0 170 -84.5 279.5
t-238.5 109.5q-71 0 -148 -21v-712zM786 1829l-331 -248l-23 18l277 312z" />
    <glyph glyph-name="racute" unicode="&#x155;" horiz-adv-x="641"
d="M373 6v-10q-90 4 -154 4q-63 0 -153 -4v10q36 7 51.5 18t26 50t10.5 119v624q0 59 -10 79.5t-54 31.5v10q116 8 195 45v-94q108 94 204 94q74 0 103 -45.5t29 -124.5h-132q0 107 -75 107q-61 0 -129 -78v-649q0 -80 10.5 -119t26 -50t51.5 -18zM614 1317l-331 -248
l-23 18l277 312z" />
    <glyph glyph-name="Rcommaaccent" unicode="&#x156;" horiz-adv-x="1130"
d="M1135 6v-12q-18 -2 -52 -2q-60 2 -92 6t-72 24t-63.5 44.5t-66 87t-79.5 130.5t-104 195q-3 5 -27.5 54.5t-45.5 82.5t-41 50h-132v-473q0 -61 4.5 -96.5t19 -54.5t30.5 -25t49 -11v-10q-86 4 -178 4q-89 0 -179 -4v10q33 5 49 11t30.5 25t19 54.5t4.5 96.5v1099
q0 103 -19.5 140.5t-78.5 46.5v10q70 -4 196 -4q33 0 113 2t100 2q228 0 356 -113.5t128 -296.5q0 -88 -38 -166t-120 -139t-199 -88q20 -15 77 -118t118.5 -216t143.5 -218t149 -128zM360 709h99q107 0 182 25.5t115.5 74t57.5 107.5t17 137q0 170 -84.5 279.5
t-238.5 109.5q-71 0 -148 -21v-712zM618 -461l-8 4q82 67 82 172q0 19 -4 35q-13 -8 -31 -8q-32 0 -49.5 21t-17.5 51q0 35 20 56t49 21q36 0 63.5 -31.5t27.5 -90.5q0 -73 -35.5 -134.5t-96.5 -95.5z" />
    <glyph glyph-name="rcommaaccent" unicode="&#x157;" horiz-adv-x="634"
d="M369 6v-10q-90 4 -154 4t-154 -4v10q36 7 51.5 17.5t26.5 50t11 119.5v624q0 59 -10 79.5t-54 31.5v10q116 8 195 45v-94q108 94 204 94q74 0 102.5 -45t28.5 -125h-131q0 107 -75 107q-61 0 -129 -78v-649q0 -80 10.5 -119t26 -50t51.5 -18zM178 -461l-8 4q82 67 82 172
q0 19 -4 35q-13 -8 -31 -8q-32 0 -49.5 21t-17.5 51q0 35 20 56t49 21q36 0 63 -31.5t27 -90.5q0 -73 -35.5 -134.5t-95.5 -95.5z" />
    <glyph glyph-name="Rcaron" unicode="&#x158;" horiz-adv-x="1130"
d="M1135 6v-12q-18 -2 -52 -2q-60 2 -92 6t-72 24t-63.5 44.5t-66 87t-79.5 130.5t-104 195q-3 5 -27.5 54.5t-45.5 82.5t-41 50h-132v-473q0 -61 4.5 -96.5t19 -54.5t30.5 -25t49 -11v-10q-86 4 -178 4q-89 0 -179 -4v10q33 5 49 11t30.5 25t19 54.5t4.5 96.5v1099
q0 103 -19.5 140.5t-78.5 46.5v10q70 -4 196 -4q33 0 113 2t100 2q228 0 356 -113.5t128 -296.5q0 -88 -38 -166t-120 -139t-199 -88q20 -15 77 -118t118.5 -216t143.5 -218t149 -128zM360 709h99q107 0 182 25.5t115.5 74t57.5 107.5t17 137q0 170 -84.5 279.5
t-238.5 109.5q-71 0 -148 -21v-712zM553 1597h-55l-273 342h56l243 -235l246 235h55z" />
    <glyph glyph-name="rcaron" unicode="&#x159;" horiz-adv-x="641"
d="M373 6v-10q-90 4 -154 4q-63 0 -153 -4v10q36 7 51.5 18t26 50t10.5 119v624q0 59 -10 79.5t-54 31.5v10q116 8 195 45v-94q108 94 204 94q74 0 103 -45.5t29 -124.5h-132q0 107 -75 107q-61 0 -129 -78v-649q0 -80 10.5 -119t26 -50t51.5 -18zM379 1085h-55l-273 342h55
l244 -235l246 235h55z" />
    <glyph glyph-name="Sacute" unicode="&#x15a;" horiz-adv-x="933"
d="M121 340h10q-4 -36 -4 -51q0 -80 47.5 -140.5t119.5 -89t155 -28.5q115 0 196.5 71.5t81.5 204.5q0 83 -34 152t-88 118t-119.5 94t-131 91.5t-119.5 98.5t-88 127t-34 165q0 164 106.5 265.5t272.5 101.5q64 0 150.5 -16.5t121.5 -16.5q23 0 35 2q-6 -65 -6 -135
q0 -82 2 -113h-13q-23 118 -97 177t-189 59q-106 0 -178 -59t-72 -173q0 -62 21 -116t56 -95t81 -78.5t96.5 -72t101 -69.5t96.5 -77.5t81 -90t56 -112t21 -139.5q0 -188 -121 -301.5t-305 -113.5q-73 0 -162 19t-133 19q-19 0 -31 -2q2 10 2 54q0 23 -5 69t-5 72
q0 72 25 129zM694 1829l-332 -248l-22 18l276 312z" />
    <glyph glyph-name="sacute" unicode="&#x15b;" horiz-adv-x="739"
d="M637 748h-10q-17 87 -75.5 147.5t-154.5 60.5q-78 0 -129 -48t-51 -132q0 -48 25 -86.5t64.5 -65.5t87.5 -52t96.5 -54t88 -64t64.5 -89t25 -123q0 -85 -50 -146t-122.5 -88.5t-155.5 -27.5q-135 0 -258 65q5 29 9.5 114t14.5 130h11q-2 -12 -2 -39q0 -68 20.5 -120.5
t73 -87t131.5 -34.5q84 0 136 51.5t52 145.5q0 53 -24.5 95.5t-63.5 70.5t-86.5 53.5t-95 53t-86.5 60t-63.5 82.5t-24.5 113q0 62 29 112t76.5 79t103 44t113.5 15q113 0 233 -35q-6 -30 -6 -65q0 -3 4 -135zM578 1317l-332 -248l-23 18l277 312z" />
    <glyph glyph-name="Scircumflex" unicode="&#x15c;" horiz-adv-x="933"
d="M121 340h10q-4 -36 -4 -51q0 -80 47.5 -140.5t119.5 -89t155 -28.5q115 0 196.5 71.5t81.5 204.5q0 83 -34 152t-88 118t-119.5 94t-131 91.5t-119.5 98.5t-88 127t-34 165q0 164 106.5 265.5t272.5 101.5q64 0 150.5 -16.5t121.5 -16.5q23 0 35 2q-6 -65 -6 -135
q0 -82 2 -113h-13q-23 118 -97 177t-189 59q-106 0 -178 -59t-72 -173q0 -62 21 -116t56 -95t81 -78.5t96.5 -72t101 -69.5t96.5 -77.5t81 -90t56 -112t21 -139.5q0 -188 -121 -301.5t-305 -113.5q-73 0 -162 19t-133 19q-19 0 -31 -2q2 10 2 54q0 23 -5 69t-5 72
q0 72 25 129zM776 1597h-55l-246 236l-244 -236h-55l273 342h55z" />
    <glyph glyph-name="scircumflex" unicode="&#x15d;" horiz-adv-x="739"
d="M637 748h-10q-17 87 -75.5 147.5t-154.5 60.5q-78 0 -129 -48t-51 -132q0 -48 25 -86.5t64.5 -65.5t87.5 -52t96.5 -54t88 -64t64.5 -89t25 -123q0 -85 -50 -146t-122.5 -88.5t-155.5 -27.5q-135 0 -258 65q5 29 9.5 114t14.5 130h11q-2 -12 -2 -39q0 -68 20.5 -120.5
t73 -87t131.5 -34.5q84 0 136 51.5t52 145.5q0 53 -24.5 95.5t-63.5 70.5t-86.5 53.5t-95 53t-86.5 60t-63.5 82.5t-24.5 113q0 62 29 112t76.5 79t103 44t113.5 15q113 0 233 -35q-6 -30 -6 -65q0 -3 4 -135zM680 1085h-55l-246 236l-244 -236h-55l272 342h56z" />
    <glyph glyph-name="Scedilla" unicode="&#x15e;" horiz-adv-x="935"
d="M344 -297h6q34 -57 109 -57q44 0 75 27t31 75q0 39 -25.5 67.5t-64.5 28.5q-46 0 -86 -37h-4l80 175q-10 -2 -35 -2q-73 0 -162 19t-133 19q-19 0 -31 -2q2 10 2 54q0 23 -5 69t-5 72q0 72 25 129h10q-4 -36 -4 -51q0 -80 47.5 -140.5t119.5 -89t155 -28.5
q115 0 196.5 71.5t81.5 204.5q0 83 -34 152t-88 118t-119.5 94t-131 91.5t-119.5 98.5t-88 127t-34 165q0 164 106.5 265.5t272.5 101.5q64 0 150.5 -16.5t121.5 -16.5q23 0 35 2q-6 -65 -6 -135q0 -82 2 -113h-13q-23 118 -97 177t-189 59q-106 0 -178 -59t-72 -173
q0 -62 21 -116t56 -95t81 -78.5t96.5 -72t101 -69.5t96.5 -77.5t81 -90t56 -112t21 -139.5q0 -169 -100.5 -279.5t-259.5 -131.5l-37 -101q24 8 51 8q57 0 97 -39t40 -102q0 -68 -49 -108.5t-113 -40.5q-51 0 -90.5 26t-50.5 76z" />
    <glyph glyph-name="scedilla" unicode="&#x15f;" horiz-adv-x="743"
d="M262 -297h6q34 -57 109 -57q44 0 75 27t31 75q0 39 -25.5 67.5t-64.5 28.5q-46 0 -86 -37h-4l80 175q-7 0 -20.5 -1t-20.5 -1q-135 0 -258 65q5 28 10 113.5t15 130.5h10q-2 -12 -2 -39q0 -68 20.5 -120.5t73 -87t131.5 -34.5q84 0 136 51.5t52 145.5q0 53 -24.5 95.5
t-63.5 70.5t-86.5 53.5t-95 53t-86.5 60t-63.5 82.5t-24.5 113q0 62 29 112t76.5 79t103 44t113.5 15q113 0 233 -35q-6 -30 -6 -65q0 -3 4 -135h-10q-17 87 -75.5 147.5t-154.5 60.5q-78 0 -129 -48t-51 -132q0 -48 25 -86.5t64.5 -65.5t87.5 -52t96.5 -54t88 -64t64.5 -89
t25 -123q0 -107 -73.5 -173.5t-182.5 -82.5l-37 -103q24 8 51 8q57 0 97 -39t40 -102q0 -68 -49 -108.5t-113 -40.5q-51 0 -90.5 26t-50.5 76z" />
    <glyph glyph-name="Scaron" unicode="&#x160;" horiz-adv-x="933"
d="M121 340h10q-4 -36 -4 -51q0 -80 47.5 -140.5t119.5 -89t155 -28.5q115 0 196.5 71.5t81.5 204.5q0 83 -34 152t-88 118t-119.5 94t-131 91.5t-119.5 98.5t-88 127t-34 165q0 164 106.5 265.5t272.5 101.5q64 0 150.5 -16.5t121.5 -16.5q23 0 35 2q-6 -65 -6 -135
q0 -82 2 -113h-13q-23 118 -97 177t-189 59q-106 0 -178 -59t-72 -173q0 -62 21 -116t56 -95t81 -78.5t96.5 -72t101 -69.5t96.5 -77.5t81 -90t56 -112t21 -139.5q0 -188 -121 -301.5t-305 -113.5q-73 0 -162 19t-133 19q-19 0 -31 -2q2 10 2 54q0 23 -5 69t-5 72
q0 72 25 129zM483 1597h-55l-272 342h55l244 -235l245 235h56z" />
    <glyph glyph-name="scaron" unicode="&#x161;" horiz-adv-x="739"
d="M637 748h-10q-17 87 -75.5 147.5t-154.5 60.5q-78 0 -129 -48t-51 -132q0 -48 25 -86.5t64.5 -65.5t87.5 -52t96.5 -54t88 -64t64.5 -89t25 -123q0 -85 -50 -146t-122.5 -88.5t-155.5 -27.5q-135 0 -258 65q5 29 9.5 114t14.5 130h11q-2 -12 -2 -39q0 -68 20.5 -120.5
t73 -87t131.5 -34.5q84 0 136 51.5t52 145.5q0 53 -24.5 95.5t-63.5 70.5t-86.5 53.5t-95 53t-86.5 60t-63.5 82.5t-24.5 113q0 62 29 112t76.5 79t103 44t113.5 15q113 0 233 -35q-6 -30 -6 -65q0 -3 4 -135zM393 1085h-55l-272 342h55l244 -235l245 235h56z" />
    <glyph glyph-name="Tcommaaccent" unicode="&#x162;" horiz-adv-x="1118"
d="M748 6v-10q-86 4 -179 4q-88 0 -178 -4v10q33 5 49 11t30.5 25t19 54.5t4.5 96.5v1214h-91.5t-76.5 -1t-68.5 -2.5t-55 -5t-49 -8t-38 -12t-34.5 -16.5t-26 -22t-24.5 -28.5t-18.5 -35.5h-10q7 34 31.5 111t38.5 149h10q4 -48 74 -58t370 -10q364 0 460.5 7.5t139.5 44.5
h13q-11 -26 -34.5 -106.5t-29.5 -113.5h-12q4 16 4 31q0 25 -14 38.5t-62 22.5t-126.5 12t-219.5 3v-1214q0 -61 4.5 -96.5t19 -54.5t30.5 -25t49 -11zM518 -461l-8 4q82 67 82 172q0 19 -4 35q-13 -8 -31 -8q-32 0 -50 21t-18 51q0 35 20.5 56t49.5 21q36 0 63 -31.5
t27 -90.5q0 -73 -35.5 -134.5t-95.5 -95.5z" />
    <glyph glyph-name="tcommaaccent" unicode="&#x163;" horiz-adv-x="595"
d="M578 147l10 -6q-33 -81 -94 -121t-142 -40q-38 0 -64.5 4t-56 18t-48 39.5t-30.5 71.5t-12 110v625q0 63 -18 82.5t-82 30.5v10q93 0 158.5 76t91.5 194h12q-31 -181 -31 -268h168q82 0 111 7.5t51 43.5l12 -12q-7 -11 -28 -41t-33.5 -52.5t-22.5 -52.5h-16q4 12 4 23
q0 25 -21.5 34t-76.5 9h-148v-705q0 -105 33.5 -147.5t112.5 -42.5q60 0 97 25t63 85zM309 -461l-8 4q82 67 82 172q0 19 -4 35q-13 -8 -31 -8q-32 0 -49.5 21t-17.5 51q0 35 20 56t49 21q36 0 63 -31.5t27 -90.5q0 -73 -35.5 -134.5t-95.5 -95.5z" />
    <glyph glyph-name="Tcaron" unicode="&#x164;" horiz-adv-x="1118"
d="M750 6v-10q-86 4 -179 4q-88 0 -178 -4v10q33 5 49 11t30.5 25t19 54.5t4.5 96.5v1214h-91.5t-76.5 -1t-68.5 -2.5t-55 -5t-49 -8t-38 -12t-34.5 -16.5t-26 -22t-24.5 -28.5t-18.5 -35.5h-10q7 34 31.5 111t38.5 149h10q4 -48 74 -58t370 -10q364 0 460.5 7.5t139.5 44.5
h13q-11 -26 -34.5 -106.5t-29.5 -113.5h-12q4 16 4 31q0 25 -14 38.5t-62 22.5t-126.5 12t-219.5 3v-1214q0 -61 4.5 -96.5t19 -54.5t30.5 -25t49 -11zM598 1597h-55l-273 342h56l243 -235l246 235h55z" />
    <glyph glyph-name="tcaron" unicode="&#x165;" horiz-adv-x="598"
d="M580 147l10 -6q-33 -81 -94 -121t-142 -40q-38 0 -64.5 4t-56 18t-48 39.5t-30.5 71.5t-12 110v625q0 63 -18 82.5t-82 30.5v10q93 0 158.5 76t91.5 194h12q-31 -181 -31 -268h168q82 0 111 7.5t51 43.5l12 -12q-7 -11 -28 -41t-33.5 -52.5t-22.5 -52.5h-16q4 12 4 23
q0 25 -21.5 34t-76.5 9h-148v-705q0 -105 33.5 -147.5t112.5 -42.5q60 0 97 25t63 85zM473 1133l-8 4q82 67 82 172q0 18 -4 34q-13 -8 -31 -8q-32 0 -50 21t-18 51q0 35 20.5 56.5t49.5 21.5q36 0 63 -32t27 -91q0 -73 -35.5 -134t-95.5 -95z" />
    <glyph glyph-name="Tbar" unicode="&#x166;" horiz-adv-x="1118"
d="M750 6v-10q-86 4 -179 4q-88 0 -178 -4v10q33 5 49 11t30.5 25t19 54.5t4.5 96.5v755q-181 0 -271 -2v68q180 -4 271 -4v397h-91.5t-76.5 -1t-68.5 -2.5t-55 -5t-49 -8t-38 -12t-34.5 -16.5t-26 -22t-24.5 -28.5t-18.5 -35.5h-10q7 34 31.5 111t38.5 149h10q4 -48 74 -58
t370 -10q364 0 460.5 7.5t139.5 44.5h13q-11 -26 -34.5 -106.5t-29.5 -113.5h-12q4 16 4 31q0 25 -14 38.5t-62 22.5t-126.5 12t-219.5 3v-397q89 0 273 4v-68q-92 2 -273 2v-755q0 -61 4.5 -96.5t19 -54.5t30.5 -25t49 -11z" />
    <glyph glyph-name="tbar" unicode="&#x167;" horiz-adv-x="600"
d="M582 147l10 -6q-33 -81 -94 -121t-142 -40q-38 0 -64.5 4t-56 18t-48 39.5t-30.5 71.5t-12 110v447q-41 -2 -118 -2l-2 57q21 0 60 -1t60 -1v125q0 63 -18 82.5t-82 30.5v10q93 0 158.5 76t91.5 194h12q-31 -181 -31 -268h168q82 0 111 7.5t51 43.5l12 -12
q-6 -9 -27.5 -40.5t-33.5 -53.5t-22 -52h-17q4 12 4 23q0 25 -21.5 34t-76.5 9h-148v-209q135 0 205 2v-57q-137 0 -205 2v-443q0 -105 33.5 -147.5t112.5 -42.5q60 0 97 25t63 85z" />
    <glyph glyph-name="Utilde" unicode="&#x168;" horiz-adv-x="1400"
d="M1147 532v672q0 72 -4.5 115t-12 71t-27.5 43.5t-40.5 23.5t-60.5 18q-6 1 -9 2v10q90 -4 187 -4q84 0 170 4v-10q-36 -10 -51.5 -15t-36.5 -17.5t-27.5 -27.5t-15 -44.5t-10 -68t-1.5 -98.5v-645q0 -339 -141 -467q-75 -67 -169 -97t-181 -30q-238 0 -373 107
q-88 69 -126 178.5t-38 277.5v762q0 81 -11 119.5t-29.5 49.5t-61.5 18v10q90 -4 178 -4q107 0 193 4v-10q-47 -6 -68.5 -17t-35 -50.5t-13.5 -119.5v-739q0 -161 23 -260t79 -152q114 -108 291 -108q187 0 293 106q129 126 129 393zM1001 1776h19q-4 -28 -16 -56.5
t-33 -57.5t-55.5 -47t-77.5 -18q-51 0 -140 47.5t-141 47.5q-46 0 -67.5 -19.5t-40.5 -75.5h-21q12 74 59 122t113 48q51 0 142 -47t143 -47q44 0 73.5 29.5t42.5 73.5z" />
    <glyph glyph-name="utilde" unicode="&#x169;" horiz-adv-x="1069"
d="M1030 94l4 -10q-15 -24 -25.5 -38t-28.5 -31.5t-41.5 -26t-51.5 -8.5q-59 0 -87 44.5t-28 143.5q-54 -88 -139.5 -138t-190.5 -50q-147 0 -228 86.5t-81 267.5v483q0 57 -19 79t-81 32v10q169 11 231 45v-639q0 -163 54.5 -236t175.5 -73q188 0 278 182v600q0 59 -15 80
t-75 31v10q157 10 221 45v-788q0 -32 1 -49t5.5 -41t16 -35t30.5 -11q36 0 74 35zM801 1264h18q-4 -28 -16 -56.5t-33 -57.5t-55.5 -47t-77.5 -18q-51 0 -140 47.5t-141 47.5q-46 0 -67.5 -19.5t-40.5 -75.5h-21q12 74 59 122t113 48q51 0 142 -47t143 -47q44 0 74 29.5
t43 73.5z" />
    <glyph glyph-name="Umacron" unicode="&#x16a;" horiz-adv-x="1400"
d="M1147 532v672q0 72 -4.5 115t-12 71t-27.5 43.5t-40.5 23.5t-60.5 18q-6 1 -9 2v10q90 -4 187 -4q84 0 170 4v-10q-36 -10 -51.5 -15t-36.5 -17.5t-27.5 -27.5t-15 -44.5t-10 -68t-1.5 -98.5v-645q0 -339 -141 -467q-75 -67 -169 -97t-181 -30q-238 0 -373 107
q-88 69 -126 178.5t-38 277.5v762q0 81 -11 119.5t-29.5 49.5t-61.5 18v10q90 -4 178 -4q107 0 193 4v-10q-47 -6 -68.5 -17t-35 -50.5t-13.5 -119.5v-739q0 -161 23 -260t79 -152q114 -108 291 -108q187 0 293 106q129 126 129 393zM999 1700v-62q-94 2 -280 2
q-187 0 -279 -2v62q184 -4 279 -4q92 0 280 4z" />
    <glyph glyph-name="umacron" unicode="&#x16b;" horiz-adv-x="1069"
d="M1030 94l4 -10q-15 -24 -25.5 -38t-28.5 -31.5t-41.5 -26t-51.5 -8.5q-59 0 -87 44.5t-28 143.5q-54 -88 -139.5 -138t-190.5 -50q-147 0 -228 86.5t-81 267.5v483q0 57 -19 79t-81 32v10q169 11 231 45v-639q0 -163 54.5 -236t175.5 -73q188 0 278 182v600q0 59 -15 80
t-75 31v10q157 10 221 45v-788q0 -32 1 -49t5.5 -41t16 -35t30.5 -11q36 0 74 35zM782 1188v-62q-94 2 -280 2q-187 0 -279 -2v62q184 -4 279 -4q92 0 280 4z" />
    <glyph glyph-name="Ubreve" unicode="&#x16c;" horiz-adv-x="1400"
d="M1147 532v672q0 72 -4.5 115t-12 71t-27.5 43.5t-40.5 23.5t-60.5 18q-6 1 -9 2v10q90 -4 187 -4q84 0 170 4v-10q-36 -10 -51.5 -15t-36.5 -17.5t-27.5 -27.5t-15 -44.5t-10 -68t-1.5 -98.5v-645q0 -339 -141 -467q-75 -67 -169 -97t-181 -30q-238 0 -373 107
q-88 69 -126 178.5t-38 277.5v762q0 81 -11 119.5t-29.5 49.5t-61.5 18v10q90 -4 178 -4q107 0 193 4v-10q-47 -6 -68.5 -17t-35 -50.5t-13.5 -119.5v-739q0 -161 23 -260t79 -152q114 -108 291 -108q187 0 293 106q129 126 129 393zM956 1870h45q0 -102 -73.5 -187.5
t-192.5 -85.5q-82 0 -145 43.5t-93 104.5t-30 125h45q18 -97 70.5 -147t150.5 -50q101 0 147.5 47t75.5 150z" />
    <glyph glyph-name="ubreve" unicode="&#x16d;" horiz-adv-x="1069"
d="M1030 94l4 -10q-15 -24 -25.5 -38t-28.5 -31.5t-41.5 -26t-51.5 -8.5q-59 0 -87 44.5t-28 143.5q-54 -88 -139.5 -138t-190.5 -50q-147 0 -228 86.5t-81 267.5v483q0 57 -19 79t-81 32v10q169 11 231 45v-639q0 -163 54.5 -236t175.5 -73q188 0 278 182v600q0 59 -15 80
t-75 31v10q157 10 221 45v-788q0 -32 1 -49t5.5 -41t16 -35t30.5 -11q36 0 74 35zM725 1358h45q0 -102 -73.5 -187.5t-192.5 -85.5q-82 0 -145 43.5t-93 104.5t-30 125h45q18 -97 70.5 -147t150.5 -50q101 0 147.5 47t75.5 150z" />
    <glyph glyph-name="Uring" unicode="&#x16e;" horiz-adv-x="1400"
d="M1147 532v672q0 72 -4.5 115t-12 71t-27.5 43.5t-40.5 23.5t-60.5 18q-6 1 -9 2v10q90 -4 187 -4q84 0 170 4v-10q-36 -10 -51.5 -15t-36.5 -17.5t-27.5 -27.5t-15 -44.5t-10 -68t-1.5 -98.5v-645q0 -339 -141 -467q-75 -67 -169 -97t-181 -30q-238 0 -373 107
q-88 69 -126 178.5t-38 277.5v762q0 81 -11 119.5t-29.5 49.5t-61.5 18v10q90 -4 178 -4q107 0 193 4v-10q-47 -6 -68.5 -17t-35 -50.5t-13.5 -119.5v-739q0 -161 23 -260t79 -152q114 -108 291 -108q187 0 293 106q129 126 129 393zM905 1731q0 -70 -50.5 -120t-121.5 -50
t-120.5 49.5t-49.5 120.5t50 120.5t122 49.5q69 0 119.5 -50t50.5 -120zM850 1731q0 46 -34 79t-81 33t-80.5 -33t-33.5 -79t33 -79.5t79 -33.5q49 0 83 33.5t34 79.5z" />
    <glyph glyph-name="uring" unicode="&#x16f;" horiz-adv-x="1069"
d="M1030 94l4 -10q-15 -24 -25.5 -38t-28.5 -31.5t-41.5 -26t-51.5 -8.5q-59 0 -87 44.5t-28 143.5q-54 -88 -139.5 -138t-190.5 -50q-147 0 -228 86.5t-81 267.5v483q0 57 -19 79t-81 32v10q169 11 231 45v-639q0 -163 54.5 -236t175.5 -73q188 0 278 182v600q0 59 -15 80
t-75 31v10q157 10 221 45v-788q0 -32 1 -49t5.5 -41t16 -35t30.5 -11q36 0 74 35zM676 1219q0 -70 -50.5 -120t-121.5 -50q-70 0 -120 49.5t-50 120.5t50 120.5t122 49.5q69 0 119.5 -50t50.5 -120zM621 1219q0 46 -34 79t-81 33t-81 -33t-34 -79t33.5 -79.5t79.5 -33.5
q49 0 83 33.5t34 79.5z" />
    <glyph glyph-name="Uhungarumlaut" unicode="&#x170;" horiz-adv-x="1400"
d="M1147 532v672q0 72 -4.5 115t-12 71t-27.5 43.5t-40.5 23.5t-60.5 18q-6 1 -9 2v10q90 -4 187 -4q84 0 170 4v-10q-36 -10 -51.5 -15t-36.5 -17.5t-27.5 -27.5t-15 -44.5t-10 -68t-1.5 -98.5v-645q0 -339 -141 -467q-75 -67 -169 -97t-181 -30q-238 0 -373 107
q-88 69 -126 178.5t-38 277.5v762q0 81 -11 119.5t-29.5 49.5t-61.5 18v10q90 -4 178 -4q107 0 193 4v-10q-47 -6 -68.5 -17t-35 -50.5t-13.5 -119.5v-739q0 -161 23 -260t79 -152q114 -108 291 -108q187 0 293 106q129 126 129 393zM844 1829l-332 -248l-23 18l277 312z
M1135 1829l-332 -248l-23 18l277 312z" />
    <glyph glyph-name="uhungarumlaut" unicode="&#x171;" horiz-adv-x="1069"
d="M1030 94l4 -10q-15 -24 -25.5 -38t-28.5 -31.5t-41.5 -26t-51.5 -8.5q-59 0 -87 44.5t-28 143.5q-54 -88 -139.5 -138t-190.5 -50q-147 0 -228 86.5t-81 267.5v483q0 57 -19 79t-81 32v10q169 11 231 45v-639q0 -163 54.5 -236t175.5 -73q188 0 278 182v600q0 59 -15 80
t-75 31v10q157 10 221 45v-788q0 -32 1 -49t5.5 -41t16 -35t30.5 -11q36 0 74 35zM631 1317l-332 -248l-23 18l277 312zM922 1317l-332 -248l-23 18l277 312z" />
    <glyph glyph-name="Uogonek" unicode="&#x172;" horiz-adv-x="1406"
d="M1010 -330l2 -26q-55 -27 -129 -27q-71 0 -119.5 30.5t-48.5 90.5q0 55 45 123t123 131q-82 -25 -166 -25q-238 0 -373 107q-88 69 -126 178.5t-38 277.5v762q0 81 -11 119.5t-29.5 49.5t-61.5 18v10q90 -4 178 -4q107 0 193 4v-10q-47 -6 -68.5 -17t-35 -50.5
t-13.5 -119.5v-739q0 -161 23 -260t79 -152q114 -108 291 -108q187 0 293 106q129 126 129 393v672q0 72 -4.5 115t-12 71t-27.5 43.5t-40.5 23.5t-60.5 18q-6 1 -9 2v10q90 -4 187 -4q84 0 170 4v-10q-36 -10 -51.5 -15t-36.5 -17.5t-27.5 -27.5t-15 -44.5t-10 -68
t-1.5 -98.5v-645q0 -339 -141 -467q-39 -36 -84 -61q-90 -74 -137 -145.5t-47 -125.5q0 -102 123 -102q36 0 88 10z" />
    <glyph glyph-name="uogonek" unicode="&#x173;" horiz-adv-x="1069"
d="M993 -358l2 -27q-55 -27 -129 -27q-71 0 -119.5 30.5t-48.5 90.5q0 59 51.5 133t137.5 138q-59 0 -87 44.5t-28 143.5q-54 -88 -139.5 -138t-190.5 -50q-147 0 -228 86.5t-81 267.5v483q0 57 -19 79t-81 32v10q169 11 231 45v-639q0 -163 54.5 -236t175.5 -73
q188 0 278 182v600q0 59 -15 80t-75 31v10q157 10 221 45v-788q0 -32 1 -49t5.5 -41t16 -35t30.5 -11q36 0 74 35l4 -10q-38 -63 -78 -86q-174 -149 -174 -264q0 -103 123 -103q31 0 88 11z" />
    <glyph glyph-name="Wcircumflex" unicode="&#x174;" horiz-adv-x="1871"
d="M1231 -45h-12l-279 741l-295 -741h-12l-508 1370q-29 78 -56.5 109.5t-84.5 44.5v10q86 -4 196 -4q92 0 182 4v-10q-50 -6 -70 -24.5t-20 -53.5q0 -28 25 -101l387 -1042l219 539l-198 528q-32 82 -65 110.5t-99 43.5v10q86 -4 211 -4q80 0 170 4v-10q-82 -11 -82 -70
q0 -34 28 -109l117 -301l39 97q84 206 84 278q0 91 -102 105v10q90 -4 237 -4q49 0 135 4v-10q-57 -11 -91.5 -37t-82.5 -112t-117 -261l-65 -166l248 -645l317 838q76 200 76 274q0 49 -27 75.5t-86 37.5v6q90 -4 256 -4q50 0 136 4v-6q-65 -19 -91 -38q-60 -44 -131 -205
q-31 -70 -69 -171zM1262 1597h-56l-245 236l-244 -236h-55l272 342h55z" />
    <glyph glyph-name="wcircumflex" unicode="&#x175;" horiz-adv-x="1503"
d="M975 -33h-14l-228 662l-287 -662h-14l-338 899q-21 57 -43 73.5t-67 25.5v10q9 0 68 -1t102 -1q45 0 106.5 1t69.5 1v-10q-49 -6 -70.5 -18t-21.5 -38q0 -15 14 -59l235 -655l220 507l-56 164q-18 51 -43.5 68.5t-87.5 30.5v10q129 -6 242 -6q48 0 116.5 3t86.5 3v-10
q-44 -10 -77.5 -40t-68.5 -106l199 -624l237 520q60 130 60 174q0 68 -107 76v10q7 0 60 -1t106 -1q39 0 89.5 1t60.5 1v-10q-27 -6 -40 -11t-35.5 -21.5t-41.5 -45t-47.5 -80.5t-63.5 -129zM1051 1085h-56l-245 236l-244 -236h-55l272 342h55z" />
    <glyph glyph-name="Ycircumflex" unicode="&#x176;" horiz-adv-x="1181"
d="M928 1597h-56l-245 236l-244 -236h-55l272 342h55zM768 6v-10q-86 4 -178 4q-88 0 -178 -4v10q44 8 62 19t29 49t11 119v307l-412 825q-23 45 -33.5 63.5t-28.5 41t-37.5 32.5t-49.5 17v10q86 -4 205 -4q92 0 182 4v-10q-92 -11 -92 -66q0 -39 39 -113l344 -698l254 494
q103 201 116 237t13 72q0 31 -19.5 49t-64.5 25v10q90 -4 149 -4q70 0 156 4v-10q-61 -13 -88.5 -48t-122.5 -217q-47 -89 -76 -145l-282 -539v-337q0 -81 11 -119t29 -49t62 -19z" />
    <glyph glyph-name="ycircumflex" unicode="&#x177;" horiz-adv-x="1060"
d="M473 -453v-10q-7 0 -81.5 1t-127.5 1q-39 0 -71.5 -1t-42.5 -1v10q51 4 80.5 21.5t70 78.5t102.5 193l82 172l-376 850q-19 41 -40 63t-37.5 28t-49.5 12v10q9 0 76 -1t110 -1q45 0 106.5 1t69.5 1v-10q-51 -7 -72.5 -18t-21.5 -38q0 -24 16 -63l297 -668l254 533
q60 130 60 176q0 70 -103 78v10q7 0 58 -1t104 -1q39 0 87 1t58 1v-10q-41 -8 -66 -26t-61.5 -76.5t-95.5 -184.5l-393 -838q-74 -158 -74 -219q0 -37 19.5 -51t62.5 -23zM866 1085h-55l-246 236l-243 -236h-56l273 342h55z" />
    <glyph glyph-name="Ydieresis" unicode="&#x178;" horiz-adv-x="1181"
d="M582 1669q0 -28 -22.5 -50t-51.5 -22t-50.5 22t-21.5 50t21.5 50t50.5 22t51.5 -22t22.5 -50zM770 1597q-29 0 -51.5 22t-22.5 50t22.5 50t51.5 22q28 0 50 -22t22 -50t-22 -50t-50 -22zM768 6v-10q-86 4 -178 4q-88 0 -178 -4v10q44 8 62 19t29 49t11 119v307l-412 825
q-23 45 -33.5 63.5t-28.5 41t-37.5 32.5t-49.5 17v10q86 -4 205 -4q92 0 182 4v-10q-92 -11 -92 -66q0 -39 39 -113l344 -698l254 494q103 201 116 237t13 72q0 31 -19.5 49t-64.5 25v10q90 -4 149 -4q70 0 156 4v-10q-61 -13 -88.5 -48t-122.5 -217q-47 -89 -76 -145
l-282 -539v-337q0 -81 11 -119t29 -49t62 -19z" />
    <glyph glyph-name="Zacute" unicode="&#x179;" horiz-adv-x="1220"
d="M1128 262h11q0 -64 -2 -128t-2 -83q0 -34 2 -57q-279 6 -820 6h-288v10l944 1413h-342q-91 0 -132 -0.5t-105 -3t-90 -8t-66.5 -16t-56.5 -25.5t-37 -38.5t-31 -54t-17 -71.5h-10q0 46 5 137t5 146q186 -4 809 -4h285v-10l-946 -1414h356q116 0 170 1t124.5 7t99 18
t62 34.5t48 56t24.5 84.5zM852 1829l-332 -248l-22 18l276 312z" />
    <glyph glyph-name="zacute" unicode="&#x17a;" horiz-adv-x="954"
d="M872 272h11q0 -52 -7.5 -138t-7.5 -138q-246 4 -632 4h-189v6l666 920h-226h-117t-86.5 -3.5t-68 -7t-44.5 -16t-34 -23.5t-20 -37.5t-18.5 -50.5t-12.5 -69h-10q6 65 6 145q0 55 -4 113q82 -4 405 -4q305 0 422 4v-10l-669 -920h313q135 0 199.5 19.5t90 64t33.5 141.5z
M705 1317l-332 -248l-23 18l277 312z" />
    <glyph glyph-name="Zdotaccent" unicode="&#x17b;" horiz-adv-x="1220"
d="M1128 262h11q0 -64 -2 -128t-2 -83q0 -34 2 -57q-279 6 -820 6h-288v10l944 1413h-342q-91 0 -132 -0.5t-105 -3t-90 -8t-66.5 -16t-56.5 -25.5t-37 -38.5t-31 -54t-17 -71.5h-10q0 46 5 137t5 146q186 -4 809 -4h285v-10l-946 -1414h356q116 0 170 1t124.5 7t99 18
t62 34.5t48 56t24.5 84.5zM686 1669q0 -28 -22.5 -50t-51.5 -22t-50 22t-21 50t21 50t50 22t51.5 -22t22.5 -50z" />
    <glyph glyph-name="zdotaccent" unicode="&#x17c;" horiz-adv-x="954"
d="M872 272h11q0 -52 -7.5 -138t-7.5 -138q-246 4 -632 4h-189v6l666 920h-226h-117t-86.5 -3.5t-68 -7t-44.5 -16t-34 -23.5t-20 -37.5t-18.5 -50.5t-12.5 -69h-10q6 65 6 145q0 55 -4 113q82 -4 405 -4q305 0 422 4v-10l-669 -920h313q135 0 199.5 19.5t90 64t33.5 141.5z
M545 1157q0 -28 -22.5 -50t-51.5 -22t-50.5 22t-21.5 50t21.5 50t50.5 22t51.5 -22t22.5 -50z" />
    <glyph glyph-name="Zcaron" unicode="&#x17d;" horiz-adv-x="1220"
d="M1128 262h11q0 -64 -2 -128t-2 -83q0 -34 2 -57q-279 6 -820 6h-288v10l944 1413h-342q-91 0 -132 -0.5t-105 -3t-90 -8t-66.5 -16t-56.5 -25.5t-37 -38.5t-31 -54t-17 -71.5h-10q0 46 5 137t5 146q186 -4 809 -4h285v-10l-946 -1414h356q116 0 170 1t124.5 7t99 18
t62 34.5t48 56t24.5 84.5zM641 1597h-55l-273 342h56l243 -235l246 235h55z" />
    <glyph glyph-name="zcaron" unicode="&#x17e;" horiz-adv-x="954"
d="M872 272h11q0 -52 -7.5 -138t-7.5 -138q-246 4 -632 4h-189v6l666 920h-226h-117t-86.5 -3.5t-68 -7t-44.5 -16t-34 -23.5t-20 -37.5t-18.5 -50.5t-12.5 -69h-10q6 65 6 145q0 55 -4 113q82 -4 405 -4q305 0 422 4v-10l-669 -920h313q135 0 199.5 19.5t90 64t33.5 141.5z
M514 1085h-55l-273 342h56l243 -235l246 235h55z" />
    <glyph glyph-name="longs" unicode="&#x17f;" horiz-adv-x="425"
d="M367 6v-10q-90 4 -154 4t-154 -4v10q36 7 51.5 18t26 50t10.5 119v739h-34v6l34 35q0 203 28.5 321t121.5 197q94 80 207 80q69 0 112 -31l-86 -110q-59 63 -129 63q-83 0 -102.5 -92.5t-19.5 -331.5v-876q0 -80 10.5 -119t26 -50t51.5 -18z" />
    <glyph glyph-name="florin" unicode="&#x192;" horiz-adv-x="563"
d="M-123 -393l86 110q59 -63 129 -63q22 0 40 6.5t30.5 23t21.5 33t15 49.5t9 59t4.5 74.5t2 82.5t0.5 96v665h-123q-26 0 -33.5 -1.5t-11.5 -8.5h-10q0 15 2 56t2 71h8q0 -46 15 -61t69 -15h82v177q0 105 4.5 172t19 138.5t45.5 124t81 95.5q94 80 206 80q70 0 113 -31
l-86 -110q-59 63 -129 63q-22 0 -40 -6.5t-30.5 -23t-21.5 -33t-15 -49.5t-9 -59t-4.5 -74.5t-2 -82.5t-0.5 -96v-285h125q25 0 33 2t12 9h10q0 -15 -2 -56t-2 -71h-8q0 46 -15 60.5t-69 14.5h-84v-557q0 -105 -4.5 -171.5t-18.5 -138.5t-45 -124.5t-81 -95.5
q-94 -80 -207 -80q-70 0 -113 31z" />
    <glyph glyph-name="OI" unicode="&#x1a2;"
d="M811 -18q-165 0 -305.5 64t-232.5 169.5t-143.5 239.5t-51.5 276q0 146 52.5 283.5t146.5 246t237.5 174.5t312.5 66q148 0 282.5 -58.5t232.5 -159t156 -243t58 -303.5q0 -155 -57 -294t-155 -240.5t-237 -161t-296 -59.5zM811 27q118 0 218 43t176 127t119.5 218.5
t43.5 307.5q0 151 -31.5 274.5t-85 207t-125.5 141t-151 83t-164 25.5q-84 0 -161 -25t-147.5 -81t-122 -138t-82 -204t-30.5 -271q0 -180 42.5 -318t117.5 -222t171.5 -126t211.5 -42zM991 324v-11q-86 4 -178 4q-88 0 -178 -4v11q27 4 40.5 8.5t28 15t20 30t9.5 51.5t4 81
v455q0 49 -4 81t-9.5 51.5t-20 30t-28 15t-40.5 8.5v10q90 -4 178 -4q92 0 178 4v-10q-27 -4 -40.5 -8.5t-28 -15t-20 -30t-9.5 -51.5t-4 -81v-455q0 -49 4 -81t9.5 -51.5t20 -30t28 -15t40.5 -8.5z" />
    <glyph glyph-name="AEacute" unicode="&#x1fc;" horiz-adv-x="1806"
d="M1726 264h11q-1 -94 -7 -163t-6 -107q-190 6 -421 6q-326 0 -412 -4v10q73 12 95 47t22 140v376h-248q-162 0 -242 -2l-227 -331q-56 -81 -70 -108.5t-14 -61.5q0 -52 69 -60l-2 -10q-90 4 -190 4q-107 0 -150 -4l3 10q62 14 98.5 34.5t85.5 75.5t131 173l752 1085
q-8 59 -32.5 77t-86.5 28v10q66 -4 262 -4q477 0 569 4q0 -5 1 -36t1 -50q0 -116 -12 -168h-10q0 28 -1.5 49.5t-8 40t-12 31.5t-20.5 24t-27.5 17.5t-37.5 11.5t-46 7.5t-59 4t-69 2t-84 0.5q-125 0 -172 -12v-610q111 0 162 0.5t108 6.5t75 13t40 28t28 43.5t15 65.5h10
q-4 -126 -4 -190q0 -69 4 -209h-10q-5 30 -8.5 48t-12 38t-13.5 30.5t-22 22.5t-28 17t-40 11t-50.5 7.5t-67.5 3.5t-82.5 2h-103.5v-665q37 -13 174 -13h108t82.5 3t67 7.5t46 15t37 24t22 36.5t19 50t11.5 67zM1008 629v655l-447 -653q66 -2 199 -2h248zM1563 1829
l-332 -248l-23 18l277 312z" />
    <glyph glyph-name="aeacute" unicode="&#x1fd;" horiz-adv-x="1501"
d="M1438 147l8 -8q-129 -159 -340 -159q-140 0 -242 54.5t-162 149.5q-174 -204 -383 -204q-124 0 -193 65.5t-69 159.5q0 110 90.5 185t239.5 75q147 0 238 -70q-7 89 -7 156q0 33 3.5 97t3.5 95q0 101 -44 152t-143 51q-58 0 -109.5 -27t-88 -87t-39.5 -144h-105
q21 135 122.5 215t236.5 80q233 0 284 -160q58 75 139.5 117.5t176.5 42.5q158 0 267.5 -102t109.5 -260h-644q-4 -40 -4 -70q0 -238 112 -371t292 -133q70 0 129.5 22t120.5 78zM686 211q-43 80 -55 143q-53 45 -98.5 58.5t-104.5 13.5q-104 0 -163.5 -63t-59.5 -146
q0 -74 48.5 -127t137.5 -53q159 0 295 174zM793 662h471q-6 140 -62 217t-151 77q-94 0 -164.5 -80.5t-93.5 -213.5zM1059 1317l-332 -248l-22 18l276 312z" />
    <glyph glyph-name="Oslashacute" unicode="&#x1fe;"
d="M508 -94h-64l58 139q-131 60 -228 168t-146.5 241t-49.5 275q0 146 52.5 283.5t146.5 246t237.5 174.5t312.5 66q129 0 250 -45l49 117h64l-57 -139q192 -91 307.5 -276.5t115.5 -420.5q0 -155 -57 -294t-155 -240.5t-237 -161t-296 -59.5q-132 0 -256 43zM526 106
l527 1287q-113 61 -242 61q-84 0 -161 -25t-147.5 -81t-122 -138t-82 -204t-30.5 -271q0 -235 68 -392t190 -237zM1104 1362l-526 -1284q105 -51 233 -51q118 0 218 43t176 127t119.5 218.5t43.5 307.5q0 233 -71.5 393.5t-192.5 245.5zM993 1829l-331 -248l-23 18l276 312z
" />
    <glyph glyph-name="oslashacute" unicode="&#x1ff;" horiz-adv-x="1120"
d="M350 -113h-63l57 140q-133 53 -204.5 169.5t-71.5 282.5q0 220 141 362t354 142q79 0 162 -27l45 111h64l-54 -131q126 -61 199.5 -182t73.5 -275q0 -207 -134 -349t-352 -142q-83 0 -168 20zM362 74l349 846q-67 36 -162 36q-311 0 -311 -495q0 -283 124 -387zM760 887
l-346 -844q63 -29 145 -29q80 0 139.5 28.5t94 73t55.5 110.5t28 128.5t7 139.5q0 286 -123 393zM815 1317l-332 -248l-22 18l276 312z" />
    <glyph glyph-name="dotlessj" unicode="&#x237;" horiz-adv-x="403"
d="M-12 -459l2 15q102 0 124.5 92.5t22.5 398.5v760q0 60 -10 80t-53 31v10q115 8 194 45v-998q0 -62 -3 -108t-11 -100t-25.5 -91.5t-44.5 -70.5t-69.5 -49.5t-98.5 -16.5q-16 0 -28 2z" />
    <glyph glyph-name="circumflex" unicode="&#x2c6;" horiz-adv-x="804"
d="M702 1085h-55l-246 236l-243 -236h-56l273 342h55z" />
    <glyph glyph-name="caron" unicode="&#x2c7;" horiz-adv-x="804"
d="M430 1085h-55l-273 342h56l243 -235l246 235h55z" />
    <glyph glyph-name="breve" unicode="&#x2d8;" horiz-adv-x="739"
d="M592 1358h45q0 -102 -73.5 -187.5t-192.5 -85.5q-82 0 -145 43t-93.5 104.5t-30.5 125.5h45q18 -97 71 -147t151 -50q101 0 147.5 47t75.5 150z" />
    <glyph glyph-name="dotaccent" unicode="&#x2d9;" horiz-adv-x="350"
d="M248 1157q0 -28 -22.5 -50t-51.5 -22t-50.5 22t-21.5 50t21.5 50t50.5 22t51.5 -22t22.5 -50z" />
    <glyph glyph-name="ring" unicode="&#x2da;" horiz-adv-x="546"
d="M444 1219q0 -70 -50.5 -120t-121.5 -50q-70 0 -120 49.5t-50 120.5t50 120.5t122 49.5q69 0 119.5 -50t50.5 -120zM389 1219q0 46 -34 79t-81 33t-80.5 -33t-33.5 -79t33 -79.5t79 -33.5q49 0 83 33.5t34 79.5z" />
    <glyph glyph-name="ogonek" unicode="&#x2db;" horiz-adv-x="681"
d="M520 -371l2 -26q-56 -27 -129 -27q-71 0 -119.5 30.5t-48.5 90.5q0 66 65.5 150t170.5 153h41q-94 -78 -143.5 -150.5t-49.5 -128.5q0 -102 123 -102q36 0 88 10z" />
    <glyph glyph-name="tilde" unicode="&#x2dc;" horiz-adv-x="796"
d="M676 1264h18q-4 -28 -16 -56.5t-33 -57.5t-55.5 -47t-77.5 -18q-51 0 -140 47.5t-141 47.5q-46 0 -67.5 -19.5t-40.5 -75.5h-21q12 74 59 122t113 48q51 0 142 -47t143 -47q44 0 74 29.5t43 73.5z" />
    <glyph glyph-name="hungarumlaut" unicode="&#x2dd;" horiz-adv-x="681"
d="M559 1317l-332 -248l-22 18l276 312zM850 1317l-332 -248l-22 18l276 312z" />
    <glyph glyph-name="uni1E02" unicode="&#x1e02;" horiz-adv-x="1095"
d="M94 -4v10q34 5 51 11.5t35 24.5t24.5 54.5t6.5 96.5v1099q0 49 -5 81.5t-12 51.5t-23 30t-30.5 15.5t-42.5 8.5v10q90 -4 164 -4q61 0 135.5 2t106.5 2q103 0 183 -28.5t127 -77t71 -107t24 -123.5q0 -114 -68 -200t-214 -124q189 -25 292 -147t103 -279
q0 -115 -47 -206.5t-144 -147t-231 -55.5q-58 0 -158 3t-155 3q-103 0 -193 -4zM414 778h-52v-712q93 -17 156 -17q338 0 338 361q0 368 -442 368zM362 1430v-603q394 0 394 314q0 142 -82.5 223.5t-204.5 81.5q-58 0 -107 -16zM563 1669q0 -28 -22.5 -50t-51.5 -22t-50 22
t-21 50t21 50t50 22t51.5 -22t22.5 -50z" />
    <glyph glyph-name="uni1E03" unicode="&#x1e03;" horiz-adv-x="1042"
d="M90 55v6q34 19 40.5 63t6.5 220v1051q0 59 -15 79.5t-75 30.5v11q157 10 221 45v-674q119 96 262 96q110 0 197 -39t140.5 -105t81.5 -148.5t28 -174.5q0 -79 -20 -156.5t-59.5 -145.5t-94.5 -120.5t-129.5 -83t-159.5 -30.5q-70 0 -130.5 20t-112.5 39.5t-101 19.5
q-51 0 -80 -4zM268 844v-543q0 -145 62 -209.5t178 -64.5q79 0 137.5 35t92.5 98t50.5 141.5t16.5 173.5q0 98 -17 180t-52.5 146.5t-95 100.5t-138.5 36q-131 0 -234 -94zM659 1239q0 -28 -22 -50t-51 -22t-50.5 22t-21.5 50t21.5 50t50.5 22t51 -22t22 -50z" />
    <glyph glyph-name="uni1E0A" unicode="&#x1e0a;" horiz-adv-x="1595"
d="M88 -4v10q26 4 36.5 6t29.5 6.5t26 10t19 15t16 22t9.5 30.5t7 42t1.5 55v1099q0 40 -3.5 69.5t-14.5 48.5t-19.5 30.5t-30 19.5t-33.5 11t-42 8v10q90 -4 195 -4q68 0 171 1t152 1q423 0 665.5 -200t242.5 -556q0 -121 -29.5 -229.5t-93 -202t-155 -161t-223 -106
t-290.5 -38.5q-51 0 -201.5 3t-214.5 3q-131 0 -221 -4zM385 1415v-1343q164 -29 338 -29q109 0 198.5 20t169.5 69.5t134.5 128t86 201t31.5 281.5q0 147 -36.5 264t-100.5 197t-155.5 133t-198 77t-231.5 24q-136 0 -236 -23zM831 1669q0 -28 -22 -50t-51 -22t-50.5 22
t-21.5 50t21.5 50t50.5 22t51 -22t22 -50z" />
    <glyph glyph-name="uni1E0B" unicode="&#x1e0b;" horiz-adv-x="1077"
d="M1067 74l6 -11q-58 -83 -158 -83q-63 0 -92.5 27.5t-38.5 88.5q-106 -116 -280 -116q-103 0 -188 40t-138.5 107t-82.5 151.5t-29 176.5q0 149 67.5 271t178.5 189.5t239 67.5q117 0 227 -68v480q0 59 -15 79.5t-75 30.5v11q157 10 221 45v-1287q0 -102 5.5 -149.5
t19.5 -65.5t45 -18q44 0 88 33zM778 215v584q-32 66 -99 104.5t-142 38.5q-127 0 -211 -115.5t-84 -351.5q0 -188 89.5 -307t248.5 -119q29 0 60 7.5t63.5 25t53.5 52t21 81.5zM510 1239q0 -28 -22.5 -50t-51.5 -22t-50 22t-21 50t21 50t50 22t51.5 -22t22.5 -50z" />
    <glyph glyph-name="uni1E1E" unicode="&#x1e1e;" horiz-adv-x="958"
d="M475 6v-10q-86 4 -190 4q-89 0 -179 -4v10q33 5 49 11t30.5 25t19 54.5t4.5 96.5v1099q0 49 -5 81t-12 51.5t-24.5 30t-33.5 15t-48 9.5v10q82 -4 262 -4q478 0 570 4q0 -5 1 -36t1 -50q0 -112 -13 -168h-10q0 28 -1.5 49.5t-8 40t-12 31.5t-20.5 24t-27.5 17.5
t-37.5 11.5t-46 7.5t-59 4t-69 2t-84 0.5q-126 0 -172 -12v-600q288 0 347.5 24t74.5 158h11q-5 -158 -5 -215q0 -17 5 -192h-11q-4 33 -7.5 53t-15 39.5t-20.5 29.5t-36.5 19.5t-49.5 13t-73.5 6t-94.5 3t-125 0.5v-557q0 -49 5 -81.5t12 -51.5t23.5 -30t31.5 -15.5
t43 -8.5zM637 1669q0 -28 -22.5 -50t-51.5 -22t-50 22t-21 50t21 50t50 22t51.5 -22t22.5 -50z" />
    <glyph glyph-name="uni1E1F" unicode="&#x1e1f;" horiz-adv-x="479"
d="M367 6v-10q-90 4 -154 4t-154 -4v10q36 7 51.5 18t26 50t10.5 119v739h-34v6l34 35q0 203 28.5 321t121.5 197q94 80 207 80q69 0 112 -31l-86 -110q-59 63 -129 63q-83 0 -102.5 -92.5t-19.5 -331.5v-96h124q27 0 34.5 1.5t11.5 8.5h10q0 -15 -2 -56t-2 -71h-9
q0 46 -15 61t-69 15h-83v-739q0 -80 10.5 -119t26 -50t51.5 -18zM467 1726q0 -28 -22.5 -49.5t-51.5 -21.5t-50 21.5t-21 49.5t21 50t50 22t51.5 -22t22.5 -50z" />
    <glyph glyph-name="uni1E40" unicode="&#x1e40;" horiz-adv-x="1794"
d="M1782 6v-10q-86 4 -178 4q-113 0 -203 -4v10q62 7 83 22.5t21 49.5q0 12 -16 106l-168 973l-455 -1141h-10l-471 1135l-152 -875q-16 -91 -16 -143q0 -57 23 -86t82 -41v-10q-90 4 -203 4q-49 0 -135 -4v10q80 21 115.5 82.5t62.5 210.5l227 1221h10l502 -1227l498 1227
h10l246 -1360q14 -79 38.5 -109t88.5 -45zM956 1427q0 -28 -22 -49.5t-51 -21.5t-50.5 21.5t-21.5 49.5t21.5 50t50.5 22t51 -22t22 -50z" />
    <glyph glyph-name="uni1E41" unicode="&#x1e41;" horiz-adv-x="1638"
d="M1591 6v-10q-90 4 -153 4q-64 0 -154 -4v10q36 7 51.5 18t26 50t10.5 119v415q0 334 -225 334q-140 0 -295 -108q37 -75 37 -205v-436q0 -80 10.5 -119t26 -50t51.5 -18v-10q-90 4 -154 4q-63 0 -153 -4v10q36 7 51.5 18t26 50t10.5 119v425q0 81 -14 141.5t-35.5 94.5
t-52.5 54.5t-60 27t-64 6.5q-131 0 -247 -80v-669q0 -80 10.5 -119t26 -50t51.5 -18v-10q-90 4 -154 4q-63 0 -153 -4v10q36 7 51.5 18t26 50t10.5 119v624q0 59 -10 79.5t-54 31.5v10q116 8 195 45v-82q132 82 299 82q183 0 254 -123q176 123 360 123q305 0 305 -365v-425
q0 -80 10.5 -119t26 -50t51.5 -18zM895 1157q0 -28 -22.5 -50t-51.5 -22t-50 22t-21 50t21 50t50 22t51.5 -22t22.5 -50z" />
    <glyph glyph-name="uni1E56" unicode="&#x1e56;" horiz-adv-x="1032"
d="M463 6v-10q-86 4 -178 4q-89 0 -179 -4v10q33 5 49 11t30.5 25t19 54.5t4.5 96.5v1099q0 49 -5 81.5t-12 51.5t-23 30t-30.5 15.5t-42.5 8.5v10q90 -4 164 -4q61 0 134 2t108 2q129 0 226.5 -31t155.5 -87t86.5 -127.5t28.5 -158.5q0 -78 -27.5 -150.5t-78 -130.5
t-130.5 -93t-177 -35q-104 0 -162 47l8 16q52 -28 125 -28q134 0 204 94t70 246q0 181 -86 286t-241 105q-73 0 -144 -21v-1228q0 -61 4.5 -96.5t19 -54.5t30.5 -25t49 -11zM600 1669q0 -28 -22.5 -50t-51.5 -22t-50 22t-21 50t21 50t50 22t51.5 -22t22.5 -50z" />
    <glyph glyph-name="uni1E57" unicode="&#x1e57;" horiz-adv-x="1112"
d="M365 -455v-10q-90 4 -154 4t-154 -4v10q36 7 51.5 18t26 50t10.5 119v1085q0 59 -15 80t-75 31v10q157 10 221 45v-98q142 98 306 98q138 0 245 -70t162 -185t55 -253q0 -112 -41 -206t-110 -154t-156 -93.5t-182 -33.5q-152 0 -279 84v-340q0 -80 11 -119.5t26.5 -50
t51.5 -17.5zM276 831v-708q100 -92 259 -92q46 0 88.5 10.5t89 40.5t80 77.5t55.5 128t22 185.5q0 123 -42 227t-123.5 168t-186.5 64q-129 0 -242 -101zM631 1157q0 -28 -22.5 -50t-51.5 -22t-50.5 22t-21.5 50t21.5 50t50.5 22t51.5 -22t22.5 -50z" />
    <glyph glyph-name="uni1E60" unicode="&#x1e60;" horiz-adv-x="933"
d="M121 340h10q-4 -36 -4 -51q0 -80 47.5 -140.5t119.5 -89t155 -28.5q115 0 196.5 71.5t81.5 204.5q0 83 -34 152t-88 118t-119.5 94t-131 91.5t-119.5 98.5t-88 127t-34 165q0 164 106.5 265.5t272.5 101.5q64 0 150.5 -16.5t121.5 -16.5q23 0 35 2q-6 -65 -6 -135
q0 -82 2 -113h-13q-23 118 -97 177t-189 59q-106 0 -178 -59t-72 -173q0 -62 21 -116t56 -95t81 -78.5t96.5 -72t101 -69.5t96.5 -77.5t81 -90t56 -112t21 -139.5q0 -188 -121 -301.5t-305 -113.5q-73 0 -162 19t-133 19q-19 0 -31 -2q2 10 2 54q0 23 -5 69t-5 72
q0 72 25 129zM559 1669q0 -28 -22.5 -50t-51.5 -22t-50 22t-21 50t21 50t50 22t51.5 -22t22.5 -50z" />
    <glyph glyph-name="uni1E61" unicode="&#x1e61;" horiz-adv-x="739"
d="M637 748h-10q-17 87 -75.5 147.5t-154.5 60.5q-78 0 -129 -48t-51 -132q0 -48 25 -86.5t64.5 -65.5t87.5 -52t96.5 -54t88 -64t64.5 -89t25 -123q0 -85 -50 -146t-122.5 -88.5t-155.5 -27.5q-135 0 -258 65q5 29 9.5 114t14.5 130h11q-2 -12 -2 -39q0 -68 20.5 -120.5
t73 -87t131.5 -34.5q84 0 136 51.5t52 145.5q0 53 -24.5 95.5t-63.5 70.5t-86.5 53.5t-95 53t-86.5 60t-63.5 82.5t-24.5 113q0 62 29 112t76.5 79t103 44t113.5 15q113 0 233 -35q-6 -30 -6 -65q0 -3 4 -135zM453 1157q0 -28 -22.5 -50t-51.5 -22t-50.5 22t-21.5 50
t21.5 50t50.5 22t51.5 -22t22.5 -50z" />
    <glyph glyph-name="uni1E6A" unicode="&#x1e6a;" horiz-adv-x="1118"
d="M750 6v-10q-86 4 -179 4q-88 0 -178 -4v10q33 5 49 11t30.5 25t19 54.5t4.5 96.5v1214h-91.5t-76.5 -1t-68.5 -2.5t-55 -5t-49 -8t-38 -12t-34.5 -16.5t-26 -22t-24.5 -28.5t-18.5 -35.5h-10q7 34 31.5 111t38.5 149h10q4 -48 74 -58t370 -10q364 0 460.5 7.5t139.5 44.5
h13q-11 -26 -34.5 -106.5t-29.5 -113.5h-12q4 16 4 31q0 25 -14 38.5t-62 22.5t-126.5 12t-219.5 3v-1214q0 -61 4.5 -96.5t19 -54.5t30.5 -25t49 -11zM643 1669q0 -28 -22.5 -50t-51.5 -22t-50 22t-21 50t21 50t50 22t51.5 -22t22.5 -50z" />
    <glyph glyph-name="uni1E6B" unicode="&#x1e6b;" horiz-adv-x="598"
d="M580 147l10 -6q-33 -81 -94 -121t-142 -40q-38 0 -64.5 4t-56 18t-48 39.5t-30.5 71.5t-12 110v625q0 63 -18 82.5t-82 30.5v10q93 0 158.5 76t91.5 194h12q-31 -181 -31 -268h168q82 0 111 7.5t51 43.5l12 -12q-7 -11 -28 -41t-33.5 -52.5t-22.5 -52.5h-16q4 12 4 23
q0 25 -21.5 34t-76.5 9h-148v-705q0 -105 33.5 -147.5t112.5 -42.5q60 0 97 25t63 85zM354 1370q0 -28 -22 -50t-51 -22t-50.5 22t-21.5 50t21.5 50t50.5 22t51 -22t22 -50z" />
    <glyph glyph-name="Wgrave" unicode="&#x1e80;" horiz-adv-x="1871"
d="M1231 -45h-12l-279 741l-295 -741h-12l-508 1370q-29 78 -56.5 109.5t-84.5 44.5v10q86 -4 196 -4q92 0 182 4v-10q-50 -6 -70 -24.5t-20 -53.5q0 -28 25 -101l387 -1042l219 539l-198 528q-32 82 -65 110.5t-99 43.5v10q86 -4 211 -4q80 0 170 4v-10q-82 -11 -82 -70
q0 -34 28 -109l117 -301l39 97q84 206 84 278q0 91 -102 105v10q90 -4 237 -4q49 0 135 4v-10q-57 -11 -91.5 -37t-82.5 -112t-117 -261l-65 -166l248 -645l317 838q76 200 76 274q0 49 -27 75.5t-86 37.5v6q90 -4 256 -4q50 0 136 4v-6q-65 -19 -91 -38q-60 -44 -131 -205
q-31 -70 -69 -171zM1057 1597l-23 -18l-332 248l78 82z" />
    <glyph glyph-name="wgrave" unicode="&#x1e81;" horiz-adv-x="1503"
d="M975 -33h-14l-228 662l-287 -662h-14l-338 899q-21 57 -43 73.5t-67 25.5v10q9 0 68 -1t102 -1q45 0 106.5 1t69.5 1v-10q-49 -6 -70.5 -18t-21.5 -38q0 -15 14 -59l235 -655l220 507l-56 164q-18 51 -43.5 68.5t-87.5 30.5v10q129 -6 242 -6q48 0 116.5 3t86.5 3v-10
q-44 -10 -77.5 -40t-68.5 -106l199 -624l237 520q60 130 60 174q0 68 -107 76v10q7 0 60 -1t106 -1q39 0 89.5 1t60.5 1v-10q-27 -6 -40 -11t-35.5 -21.5t-41.5 -45t-47.5 -80.5t-63.5 -129zM834 1085l-23 -18l-332 248l78 82z" />
    <glyph glyph-name="Wacute" unicode="&#x1e82;" horiz-adv-x="1871"
d="M1231 -45h-12l-279 741l-295 -741h-12l-508 1370q-29 78 -56.5 109.5t-84.5 44.5v10q86 -4 196 -4q92 0 182 4v-10q-50 -6 -70 -24.5t-20 -53.5q0 -28 25 -101l387 -1042l219 539l-198 528q-32 82 -65 110.5t-99 43.5v10q86 -4 211 -4q80 0 170 4v-10q-82 -11 -82 -70
q0 -34 28 -109l117 -301l39 97q84 206 84 278q0 91 -102 105v10q90 -4 237 -4q49 0 135 4v-10q-57 -11 -91.5 -37t-82.5 -112t-117 -261l-65 -166l248 -645l317 838q76 200 76 274q0 49 -27 75.5t-86 37.5v6q90 -4 256 -4q50 0 136 4v-6q-65 -19 -91 -38q-60 -44 -131 -205
q-31 -70 -69 -171zM1221 1829l-332 -248l-23 18l277 312z" />
    <glyph glyph-name="wacute" unicode="&#x1e83;" horiz-adv-x="1503"
d="M975 -33h-14l-228 662l-287 -662h-14l-338 899q-21 57 -43 73.5t-67 25.5v10q9 0 68 -1t102 -1q45 0 106.5 1t69.5 1v-10q-49 -6 -70.5 -18t-21.5 -38q0 -15 14 -59l235 -655l220 507l-56 164q-18 51 -43.5 68.5t-87.5 30.5v10q129 -6 242 -6q48 0 116.5 3t86.5 3v-10
q-44 -10 -77.5 -40t-68.5 -106l199 -624l237 520q60 130 60 174q0 68 -107 76v10q7 0 60 -1t106 -1q39 0 89.5 1t60.5 1v-10q-27 -6 -40 -11t-35.5 -21.5t-41.5 -45t-47.5 -80.5t-63.5 -129zM1010 1317l-332 -248l-23 18l277 312z" />
    <glyph glyph-name="Wdieresis" unicode="&#x1e84;" horiz-adv-x="1871"
d="M1231 -45h-12l-279 741l-295 -741h-12l-508 1370q-29 78 -56.5 109.5t-84.5 44.5v10q86 -4 196 -4q92 0 182 4v-10q-50 -6 -70 -24.5t-20 -53.5q0 -28 25 -101l387 -1042l219 539l-198 528q-32 82 -65 110.5t-99 43.5v10q86 -4 211 -4q80 0 170 4v-10q-82 -11 -82 -70
q0 -34 28 -109l117 -301l39 97q84 206 84 278q0 91 -102 105v10q90 -4 237 -4q49 0 135 4v-10q-57 -11 -91.5 -37t-82.5 -112t-117 -261l-65 -166l248 -645l317 838q76 200 76 274q0 49 -27 75.5t-86 37.5v6q90 -4 256 -4q50 0 136 4v-6q-65 -19 -91 -38q-60 -44 -131 -205
q-31 -70 -69 -171zM911 1669q0 -28 -22 -50t-51 -22t-50.5 22t-21.5 50t21.5 50t50.5 22t51 -22t22 -50zM1100 1597q-29 0 -51.5 22t-22.5 50t22.5 50t51.5 22q28 0 49.5 -22t21.5 -50t-21.5 -50t-49.5 -22z" />
    <glyph glyph-name="wdieresis" unicode="&#x1e85;" horiz-adv-x="1503"
d="M975 -33h-14l-228 662l-287 -662h-14l-338 899q-21 57 -43 73.5t-67 25.5v10q9 0 68 -1t102 -1q45 0 106.5 1t69.5 1v-10q-49 -6 -70.5 -18t-21.5 -38q0 -15 14 -59l235 -655l220 507l-56 164q-18 51 -43.5 68.5t-87.5 30.5v10q129 -6 242 -6q48 0 116.5 3t86.5 3v-10
q-44 -10 -77.5 -40t-68.5 -106l199 -624l237 520q60 130 60 174q0 68 -107 76v10q7 0 60 -1t106 -1q39 0 89.5 1t60.5 1v-10q-27 -6 -40 -11t-35.5 -21.5t-41.5 -45t-47.5 -80.5t-63.5 -129zM676 1157q0 -28 -22.5 -50t-51.5 -22t-50.5 22t-21.5 50t21.5 50t50.5 22
t51.5 -22t22.5 -50zM864 1085q-29 0 -51 22t-22 50t22 50t51 22q28 0 50 -22t22 -50t-22 -50t-50 -22z" />
    <glyph glyph-name="Ygrave" unicode="&#x1ef2;" horiz-adv-x="1181"
d="M707 1597l-23 -18l-332 248l78 82zM768 6v-10q-86 4 -178 4q-88 0 -178 -4v10q44 8 62 19t29 49t11 119v307l-412 825q-23 45 -33.5 63.5t-28.5 41t-37.5 32.5t-49.5 17v10q86 -4 205 -4q92 0 182 4v-10q-92 -11 -92 -66q0 -39 39 -113l344 -698l254 494q103 201 116 237
t13 72q0 31 -19.5 49t-64.5 25v10q90 -4 149 -4q70 0 156 4v-10q-61 -13 -88.5 -48t-122.5 -217q-47 -89 -76 -145l-282 -539v-337q0 -81 11 -119t29 -49t62 -19z" />
    <glyph glyph-name="ygrave" unicode="&#x1ef3;" horiz-adv-x="1060"
d="M473 -453v-10q-7 0 -81.5 1t-127.5 1q-39 0 -71.5 -1t-42.5 -1v10q51 4 80.5 21.5t70 78.5t102.5 193l82 172l-376 850q-19 41 -40 63t-37.5 28t-49.5 12v10q9 0 76 -1t110 -1q45 0 106.5 1t69.5 1v-10q-51 -7 -72.5 -18t-21.5 -38q0 -24 16 -63l297 -668l254 533
q60 130 60 176q0 70 -103 78v10q7 0 58 -1t104 -1q39 0 87 1t58 1v-10q-41 -8 -66 -26t-61.5 -76.5t-95.5 -184.5l-393 -838q-74 -158 -74 -219q0 -37 19.5 -51t62.5 -23zM635 1085l-23 -18l-331 248l77 82z" />
    <glyph glyph-name="endash" unicode="&#x2013;" horiz-adv-x="862"
d="M745 647v-61q-104 2 -315 2q-209 0 -313 -2v61q208 -4 313 -4q107 0 315 4z" />
    <glyph glyph-name="emdash" unicode="&#x2014;" horiz-adv-x="1320"
d="M1204 647v-61q-182 2 -545 2q-362 0 -542 -2v61q360 -4 542 -4q181 0 545 4z" />
    <glyph glyph-name="quoteleft" unicode="&#x2018;" horiz-adv-x="292"
d="M201 1499l8 -4q-82 -67 -82 -172q0 -19 4 -35q13 8 31 8q32 0 49.5 -20.5t17.5 -50.5q0 -36 -20 -57t-49 -21q-36 0 -63 32t-27 91q0 73 35.5 134t95.5 95z" />
    <glyph glyph-name="quoteright" unicode="&#x2019;" horiz-adv-x="292"
d="M98 1135l-8 4q82 67 82 172q0 19 -4 35q-15 -9 -31 -9q-32 0 -49.5 21t-17.5 51q0 36 20 57t49 21q36 0 63 -32t27 -91q0 -73 -35.5 -134t-95.5 -95z" />
    <glyph glyph-name="quotesinglbase" unicode="&#x201a;" horiz-adv-x="364"
d="M131 -170l-8 4q82 67 82 172q0 19 -4 35q-13 -8 -31 -8q-32 0 -50 20.5t-18 50.5q0 35 20.5 56.5t49.5 21.5q36 0 63 -32t27 -91q0 -73 -35.5 -134t-95.5 -95z" />
    <glyph glyph-name="quotedblleft" unicode="&#x201c;" horiz-adv-x="534"
d="M442 1499l9 -4q-82 -67 -82 -172q0 -19 4 -35q13 8 30 8q32 0 50 -20.5t18 -50.5q0 -35 -20.5 -56.5t-49.5 -21.5q-36 0 -63 32t-27 91q0 73 35.5 134t95.5 95zM201 1499l8 -4q-82 -67 -82 -172q0 -19 4 -35q13 8 31 8q32 0 49.5 -20.5t17.5 -50.5q0 -36 -20 -57t-49 -21
q-36 0 -63 32t-27 91q0 73 35.5 134t95.5 95z" />
    <glyph glyph-name="quotedblright" unicode="&#x201d;" horiz-adv-x="534"
d="M98 1135l-8 4q82 67 82 172q0 19 -4 35q-15 -9 -31 -9q-32 0 -49.5 21t-17.5 51q0 36 20 57t49 21q36 0 63 -32t27 -91q0 -73 -35.5 -134t-95.5 -95zM340 1135l-8 4q82 67 82 172q0 19 -4 35q-15 -9 -31 -9q-32 0 -50 21t-18 51q0 35 20.5 56.5t49.5 21.5q36 0 63 -32
t27 -91q0 -73 -35.5 -134t-95.5 -95z" />
    <glyph glyph-name="quotedblbase" unicode="&#x201e;" horiz-adv-x="606"
d="M131 -170l-8 4q82 67 82 172q0 19 -4 35q-13 -8 -31 -8q-32 0 -50 20.5t-18 50.5q0 35 20.5 56.5t49.5 21.5q36 0 63 -32t27 -91q0 -73 -35.5 -134t-95.5 -95zM373 -170l-8 4q81 66 81 172q0 19 -4 35q-13 -8 -30 -8q-32 0 -50 20.5t-18 50.5q0 35 20.5 56.5t49.5 21.5
q36 0 63 -32t27 -91q0 -73 -35.5 -134t-95.5 -95z" />
    <glyph glyph-name="dagger" unicode="&#x2020;" horiz-adv-x="903"
d="M489 -215h-81q2 182 2 885v387q-268 0 -338 -2v71q144 -4 338 -4q0 101 -1 252.5t-1 186.5h81q-1 -49 -2 -207.5t-2 -231.5q198 0 346 4v-71q-74 2 -346 2v-387q0 -521 4 -885z" />
    <glyph glyph-name="daggerdbl" unicode="&#x2021;" horiz-adv-x="915"
d="M496 -215h-82q2 176 2 852q-268 0 -338 -2v72q180 -5 338 -5v355q-268 0 -338 -2v71q144 -4 338 -4q0 101 -1 252.5t-1 186.5h82q-1 -49 -2 -207.5t-2 -231.5q198 0 346 4v-71q-74 2 -346 2v-355q161 0 346 5v-72q-74 2 -346 2q0 -500 4 -852z" />
    <glyph glyph-name="bullet" unicode="&#x2022;" horiz-adv-x="581"
d="M492 743q0 -79 -60 -135.5t-151 -56.5q-78 0 -135.5 57t-57.5 135q0 91 56.5 151t136.5 60q92 0 151.5 -59.5t59.5 -151.5z" />
    <glyph glyph-name="ellipsis" unicode="&#x2026;" horiz-adv-x="1075"
d="M254 63q0 -30 -22.5 -50.5t-55.5 -20.5q-29 0 -50.5 21t-21.5 50q0 33 21 55.5t51 22.5q34 0 56 -22t22 -56zM612 63q0 -30 -22 -50.5t-55 -20.5q-29 0 -50.5 21t-21.5 50q0 33 21 55.5t51 22.5q34 0 55.5 -22t21.5 -56zM971 63q0 -30 -22.5 -50.5t-55.5 -20.5
q-29 0 -50.5 21t-21.5 50q0 33 21 55.5t51 22.5q34 0 56 -22t22 -56z" />
    <glyph glyph-name="perthousand" unicode="&#x2030;" horiz-adv-x="2658"
d="M2210 -20q-182 0 -285.5 101t-103.5 279q0 172 110 284t275 112q167 0 275 -112.5t108 -283.5q0 -160 -104.5 -270t-274.5 -110zM2204 -2q63 0 109.5 22.5t73 57t43 86.5t21.5 100.5t5 108.5q0 79 -12 140.5t-40.5 113.5t-81 80t-127.5 28q-243 0 -243 -389
q0 -348 252 -348zM422 0h-64l1006 1571h63zM465 784q-182 0 -285.5 101.5t-103.5 279.5q0 172 110 284t275 112q167 0 275 -112.5t108 -283.5q0 -160 -104.5 -270.5t-274.5 -110.5zM459 803q63 0 109.5 22.5t73 57t43 86.5t21.5 100.5t5 108.5q0 79 -12 140.5t-40 113.5
t-80.5 80t-127.5 28q-244 0 -244 -389q0 -348 252 -348zM1325 -20q-182 0 -285.5 101t-103.5 279q0 172 110 284t275 112q167 0 275 -112.5t108 -283.5q0 -160 -104.5 -270t-274.5 -110zM1319 -2q63 0 109.5 22.5t73 57t43 86.5t21.5 100.5t5 108.5q0 79 -12 140.5
t-40 113.5t-80.5 80t-127.5 28q-244 0 -244 -389q0 -348 252 -348z" />
    <glyph glyph-name="guilsinglleft" unicode="&#x2039;" horiz-adv-x="512"
d="M397 188l-342 273v55l342 272v-55l-235 -244l235 -245v-56z" />
    <glyph glyph-name="guilsinglright" unicode="&#x203a;" horiz-adv-x="512"
d="M457 461l-342 -273v56l235 245l-235 244v55l342 -272v-55z" />
    <glyph glyph-name="fraction" unicode="&#x2044;" horiz-adv-x="950"
d="M25 0h-64l1006 1571h63z" />
    <glyph glyph-name="Euro" unicode="&#x20ac;" horiz-adv-x="1640"
d="M1511 330h11q-13 -96 -13 -219q-265 -131 -512 -131q-165 0 -303.5 47.5t-234.5 131t-158.5 190t-87.5 229.5h-139v47h131q-8 49 -8 110q0 57 10 125h-133v47h141q26 121 86.5 225.5t153 187.5t226.5 131t294 48q44 0 87 -3t89 -10.5t77.5 -13t81.5 -18.5t68.5 -17.5
t71 -20t59.5 -17.5q-6 -79 -6 -195q0 -20 1 -47t1 -31h-10q-15 157 -156.5 242.5t-355.5 85.5q-107 0 -202.5 -33t-174.5 -98.5t-134 -171.5t-77 -244h965v-47h-971q-6 -64 -6 -133q0 -53 6 -102h971v-47h-965q18 -112 63.5 -205t108.5 -156t140.5 -106t158.5 -62.5
t164 -19.5q104 0 199.5 30.5t174 100.5t107.5 170z" />
    <glyph glyph-name="trademark" unicode="&#x2122;" horiz-adv-x="1568"
d="M469 831v-12q-9 0 -42 1t-50 1q-21 0 -53.5 -1t-40.5 -1v12q29 5 38 19.5t9 69.5v530q-114 0 -151.5 -9t-57.5 -52h-12l30 141h13q1 -23 31.5 -27t172.5 -4q164 0 209.5 4t65.5 21l12 -4l-29 -123l-12 4q0 36 -23.5 42.5t-156.5 6.5v-530q0 -55 9 -69.5t38 -19.5z
M1456 831v-12q-9 0 -42 1t-50 1q-20 0 -58.5 -1t-48.5 -1v12q31 4 40.5 9.5t9.5 17.5q0 4 -1.5 10.5t-3.5 18t-4 20.5l-77 402l-197 -480h-12l-195 476l-72 -355q-8 -54 -8 -67q0 -25 10 -35.5t39 -16.5v-12q-8 0 -46.5 1t-57.5 1q-18 0 -42 -1t-32 -1v12q38 11 55 37t29 93
l105 567h8l221 -531l240 531h10l121 -633q6 -35 16.5 -45.5t42.5 -18.5z" />
    <glyph glyph-name="Delta" unicode="&#x2206;" horiz-adv-x="1157"
d="M1112 -2h-586h-481v14l567 1508h21l479 -1512v-10zM928 68l-365 1167l-430 -1165q133 -11 397 -11q253 0 398 9z" />
    <glyph glyph-name="product" unicode="&#x220f;" horiz-adv-x="1501"
d="M1395 6v-10q-86 4 -178 4q-89 0 -179 -4v10q33 5 49 11t30.5 25t19 54.5t4.5 96.5v1058q0 76 -13 164q-131 10 -391 10q-249 0 -370 -10q-7 -73 -7 -164v-1058q0 -61 4.5 -96.5t19 -54.5t30.5 -25t49 -11v-10q-86 4 -178 4q-89 0 -179 -4v10q33 5 49 11t30.5 25t19 54.5
t4.5 96.5v1099q0 61 -4.5 96.5t-19 54.5t-30.5 25t-49 11v10q199 -4 631 -4q437 0 658 4v-10q-33 -5 -49 -11t-30.5 -25t-19 -54.5t-4.5 -96.5v-1099q0 -61 4.5 -96.5t19 -54.5t30.5 -25t49 -11z" />
    <glyph glyph-name="minus" unicode="&#x2212;" horiz-adv-x="1030"
d="M895 649v-61q-80 2 -381 2t-379 -2v61q156 -4 379 -4q221 0 381 4z" />
    <glyph glyph-name="integral" unicode="&#x222b;" horiz-adv-x="563"
d="M-123 -393l86 110q59 -63 129 -63q22 0 40 6.5t30.5 23t21.5 33t15 49.5t9 59t4.5 74.5t2 82.5t0.5 96v883q0 105 4.5 172t19 138.5t45.5 124t81 95.5q94 80 206 80q70 0 113 -31l-86 -110q-59 63 -129 63q-22 0 -40 -6.5t-30.5 -23t-21.5 -33t-15 -49.5t-9 -59
t-4.5 -74.5t-2 -82.5t-0.5 -96v-883q0 -105 -4.5 -171.5t-18.5 -138.5t-45 -124.5t-81 -95.5q-94 -80 -207 -80q-70 0 -113 31z" />
    <glyph glyph-name="approxequal" unicode="&#x2248;" horiz-adv-x="1032"
d="M897 809v-70q-54 -27 -93.5 -40t-88.5 -13q-72 0 -212 33t-196 33q-72 0 -170 -50v74q106 45 178 45q64 0 204.5 -32.5t207.5 -32.5q73 0 170 53zM897 547v-70q-104 -51 -188 -51q-73 0 -210 33t-192 33q-71 0 -170 -54v76q106 45 178 45q61 0 200 -32.5t200 -32.5
q74 0 182 53z" />
    <glyph glyph-name="notequal" unicode="&#x2260;" horiz-adv-x="1015"
d="M887 514v-61q-80 2 -381 2h-37l-88 -213h-64l86 213q-217 0 -276 -2v61q132 -4 299 -4l88 211h-8q-301 0 -379 -2v61q156 -4 379 -4h31l88 213h63l-88 -213q155 0 287 4v-61q-68 2 -309 2l-86 -211h14q221 0 381 4z" />
    <glyph glyph-name="lessequal" unicode="&#x2264;" horiz-adv-x="952"
d="M799 279l-682 413v49l682 418v-49l-588 -395l588 -387v-49zM788 131v-59q-80 2 -331 2q-254 0 -330 -2v59q76 -2 330 -2q251 0 331 2z" />
    <glyph glyph-name="greaterequal" unicode="&#x2265;" horiz-adv-x="952"
d="M825 131v-59q-76 2 -329 2q-252 0 -332 -2v59q80 -2 332 -2q253 0 329 2zM836 692l-682 -413v49l587 387l-587 395v49l682 -418v-49z" />
    <glyph glyph-name="LL" unicode="&#xf6bf;" horiz-adv-x="1658"
d="M1626 264h10q-1 -94 -6.5 -163t-5.5 -107q-270 6 -833 6q-464 0 -697 -4v10q73 12 95 47t22 140v1099q0 81 -11 119.5t-29.5 49.5t-61.5 18v10q90 -4 178 -4q92 0 178 4v-10q-33 -5 -49 -11t-30.5 -25t-19 -54.5t-4.5 -96.5v-1218q37 -13 175 -13q61 0 96.5 0.5t77 1.5
t63 4t47 7.5t36.5 12.5t23.5 17.5t16.5 24.5t7 32t3 40v1091q0 81 -11 119.5t-29.5 49.5t-61.5 18v10q90 -4 178 -4q92 0 178 4v-10q-43 -7 -61.5 -18t-29.5 -49.5t-11 -119.5v-1218q37 -13 174 -13h108t82.5 3t67 7.5t46 15t37 24t22 36.5t19 50t11.5 67z" />
    <glyph glyph-name="commaaccent" unicode="&#xf6c3;" horiz-adv-x="323"
d="M111 -461l-9 4q82 67 82 172q0 19 -4 35q-13 -8 -30 -8q-32 0 -50 21t-18 51q0 35 20.5 56t49.5 21q36 0 63 -31.5t27 -90.5q0 -73 -35.5 -134.5t-95.5 -95.5z" />
    <glyph glyph-name="apple" unicode="&#xf8ff;" horiz-adv-x="4085"
d="M1780 -193h-21q72 58 72 127q0 101 -82 119q12 -70 12 -149q0 -57 -27.5 -101.5t-71.5 -70t-95 -38.5t-103 -13q-73 0 -131.5 42t-58.5 111q0 35 15 60.5t37.5 37.5t42 17.5t36.5 5.5q27 0 37 -2q39 76 129 115v6q-8 23 -8 67q-54 -116 -158 -116q-55 0 -91 58t-36 144
q0 60 50 189.5t50 169.5q0 65 -24 65q-31 0 -60 -33.5t-34 -52.5q0 -99 -99 -151q0 -203 -84 -304.5t-246 -101.5q-45 0 -84.5 10.5t-72.5 31.5t-52.5 58.5t-19.5 86.5q0 60 35 108.5t88 48.5q37 0 54.5 -25t17.5 -59q0 -60 -31.5 -106.5t-85.5 -46.5q-8 0 -25 6.5t-22 7.5
q9 -33 38.5 -57.5t57.5 -24.5q31 0 58 14.5t48 44.5t37 60.5t31 78.5t24 82.5t21 86.5q-65 27 -100 90q-27 -10 -41 -10q-160 0 -160 168q0 128 91 229.5t220 101.5q61 0 110 -11t73.5 -24.5t51.5 -24.5t50 -11q17 0 45 4v-11q-74 -19 -145.5 -68.5t-116.5 -111.5
q-8 54 -46.5 86.5t-96.5 32.5q-84 0 -148.5 -69.5t-64.5 -155.5q0 -119 131 -119q23 0 39 8q-15 34 -15 80q0 57 31 97t62 40q23 0 36 -16.5t13 -40.5q0 -45 -31.5 -91.5t-73.5 -72.5q24 -51 90 -80q23 94 52.5 166.5t80.5 134.5q29 35 89 81.5t110 53.5v-16
q-133 -62 -133 -311q0 -49 6 -107q90 46 90 131q0 74 -33 107v4q16 -8 28 -33.5t15 -52.5q17 35 53.5 63.5t86.5 28.5q65 0 100 -61.5t35 -151.5q0 -32 -50 -163t-50 -191q0 -47 26 -47q33 0 61.5 43t50.5 119t37.5 148.5t33.5 164t28 133.5q53 -23 74 -23q19 0 34.5 6
t36.5 21t27 18q-6 -29 -27.5 -123t-35 -155t-25.5 -142t-12 -133v-22l2 -39q47 -11 75.5 -48.5t28.5 -94.5q0 -80 -67 -136zM3963 240l-322 -62l21 -115l-199 160q-71 -164 -184 -280q59 -19 119 -19q82 0 129.5 28.5t76.5 88.5h9q-11 -65 -73 -105t-132 -40q-77 0 -150 28
q-79 -79 -163.5 -124.5t-159.5 -45.5q-77 0 -121.5 65.5t-44.5 207.5q-4 -2 -16 -2q-90 0 -154 81t-64 230q0 45 31.5 105t81 114t117.5 91.5t133 37.5q48 0 80.5 -36.5t32.5 -112.5q0 -66 -47.5 -123t-112.5 -89t-129 -38q-27 -153 -27 -189q0 -24 16 -36.5t42 -12.5
q10 0 16 2v2q0 54 23 117t68.5 111.5t98.5 48.5q20 0 29.5 -17.5t9.5 -40.5q0 -73 -68.5 -152.5t-142.5 -88.5q0 -126 44.5 -187t117.5 -61q62 0 136 41t145 112q-82 38 -131.5 110t-49.5 165q0 71 42 135t110 78v-10q-65 -19 -100 -78.5t-35 -132.5q0 -81 50.5 -146
t131.5 -100q124 137 172 291l-258 78l113 45l-150 307l121 -37l-27 180l117 -131l70 100l69 -221l97 305l47 -79l178 104v-201h109l-234 -231l231 65l-36 -120l174 -19l-168 -80zM2261 -29v-10q-23 0 -43 -14t-20 -37q0 -28 18.5 -45t44.5 -17q83 0 142 85.5t59 170.5
q0 51 -31 101q-84 -180 -199 -180q-47 0 -67.5 34t-20.5 84q0 78 42 123t85 53q33 229 33 314q0 6 -7.5 14t-19.5 8q-11 0 -26.5 -10.5t-31.5 -30.5t-27 -56t-11 -81q0 -61 -66 -394.5t-79 -371.5q-44 23 -74 23q-14 0 -28.5 -5t-23 -10t-23 -16t-19.5 -14q4 25 48 255.5
t80 433.5t36 238q0 41 -12.5 69.5t-32.5 46.5t-44 35.5t-48 43.5t-44 62t-32.5 100t-12.5 149q0 80 52.5 250t52.5 252q0 49 -21 49q-25 0 -66.5 -49t-70.5 -123q-7 -57 -42 -242t-44 -221q-48 25 -74 25q-47 0 -88 -27q2 13 30 170.5t46 272.5t18 151q0 39 -20 39
q-16 0 -32.5 -20t-26.5 -41t-25 -58h-22q11 33 20 54t26 45.5t41.5 36.5t57.5 12q111 0 133 -127q6 8 22 31.5t26.5 36.5t27.5 30t37 25t43 8q66 0 103.5 -78.5t37.5 -181.5q0 -73 -17.5 -151t-39 -133t-39 -123.5t-17.5 -125.5q0 -49 11.5 -83t30 -52.5t41.5 -31t47 -24
t45.5 -27t38 -44.5t22.5 -72q39 65 68 87t65 22q40 0 74 -31.5t54 -77.5t31 -93t11 -83q0 -84 -37 -174q43 -64 43 -131q0 -62 -23.5 -121t-73.5 -101t-114 -42q-38 0 -64 22t-26 58q0 25 19.5 44t44.5 19q12 0 18 -2zM471 717h-12l8 10q27 0 61.5 24t34.5 58q0 8 -2 14
q-48 -18 -110 -18q-24 0 -54 4.5t-63.5 14.5t-55.5 30t-22 47q0 34 40 51t79 17q49 0 112 -32.5t88 -76.5q103 47 103 131q0 51 -25 82q-71 -47 -159 -47q-134 0 -222 95t-88 255q0 39 31 123q-76 50 -76 164q0 107 68 200t162 93q17 0 37 -4v-15q-8 2 -27 2
q-90 0 -155.5 -86t-65.5 -186q0 -99 67 -143q48 109 131.5 228.5t179 204.5t160.5 85q90 0 90 -154q0 -121 -102.5 -234.5t-232.5 -162.5q0 -1 -1 -3.5t-1 -4.5q-64 -247 -64 -332q0 -33 14 -56.5t34.5 -33.5t34.5 -13.5t21 -3.5q74 0 142 52q-38 26 -99 26
q-21 0 -47.5 -5.5t-31.5 -10.5v10q12 9 36.5 17t36.5 8q65 0 119 -33q54 46 86.5 116t32.5 142q0 127 -80 127q-75 0 -124.5 -67.5t-49.5 -145.5q0 -29 12 -56.5t39 -27.5q41 0 65.5 49t24.5 98q0 4 -1 9.5t-2.5 13.5t-2.5 12h17q6 -12 6 -35q0 -54 -32 -109.5t-75 -55.5
q-67 0 -67 108q0 78 52.5 151.5t131.5 73.5q59 0 95 -52.5t36 -127.5q0 -70 -37 -137t-100 -111q35 -35 35 -96q0 -106 -123 -158q2 -4 2 -12q0 -41 -37 -70.5t-78 -29.5zM3346 1288h25q-5 -22 -11 -42t-22 -60.5t-34 -68.5t-46.5 -50.5t-60.5 -22.5q-49 0 -89.5 35.5
t-53.5 104.5q-44 -86 -76.5 -115t-71.5 -29q-41 0 -73.5 30.5t-51 77t-28 93.5t-9.5 88q0 64 50.5 153t123 154.5t127.5 65.5q47 0 68 -55q53 262 65 311q44 -23 74 -23q19 0 34.5 6t37.5 21t27 18q-5 -28 -46.5 -241t-75.5 -402t-34 -225q0 -37 20 -37q25 0 54 40.5
t47.5 86.5t29.5 86zM2693 1194h23q-39 -152 -131 -152q-49 0 -86 34.5t-50 103.5q-44 -84 -76.5 -112t-70.5 -28q-41 0 -73.5 30.5t-51 77t-28 93.5t-9.5 88q0 64 50.5 153t123 154.5t127.5 65.5q51 0 74 -66l14 58q53 -23 76 -23q14 0 28.5 5t22 10t23.5 16t20 14
q-5 -29 -34.5 -175t-51.5 -270t-22 -159q0 -37 18 -37q24 0 43 31.5t41 87.5zM3963 1194h22q-17 -67 -46.5 -109.5t-84.5 -42.5q-49 0 -85.5 34.5t-49.5 103.5q-45 -84 -76 -112t-69 -28q-41 0 -74 30.5t-51.5 77t-28.5 94t-10 87.5q0 64 51 153t124 154.5t128 65.5
q49 0 72 -66l16 58q53 -23 74 -23q14 0 28.5 5t23 10t23 16t19.5 14q-5 -30 -34.5 -175.5t-52 -269.5t-22.5 -159q0 -37 19 -37q17 0 33.5 19.5t26 40t24.5 59.5zM1411 1194h21q-35 -152 -132 -152q-47 0 -84.5 35t-50.5 103q-43 -84 -75 -112t-72 -28t-72.5 30.5t-50.5 77
t-27.5 94t-9.5 87.5q0 64 51 153t123.5 154.5t128.5 65.5q47 0 70 -66l14 58q53 -23 76 -23q15 0 29.5 5t23 10.5t22.5 15.5t21 14q-5 -31 -34.5 -175.5t-52.5 -269t-23 -159.5q0 -37 20 -37q17 0 33.5 19.5t26 40t24.5 59.5zM942 -227h-10q-29 0 -64 9.5t-66.5 35
t-31.5 61.5q0 32 21 47t55 15q52 0 95.5 -35.5t43.5 -81.5q0 -11 -4 -23q69 16 120.5 64.5t51.5 126.5q0 42 -12 84h8q5 -8 10.5 -34.5t5.5 -49.5q0 -82 -56.5 -141.5t-137.5 -73.5q-20 -37 -68 -57.5t-94 -20.5q-48 0 -95.5 13t-85.5 46t-38 80q0 33 20.5 56.5t55.5 23.5
q18 0 32 -4q-98 87 -190.5 124.5t-218.5 37.5q-73 0 -244 -23q50 18 117.5 38.5t91.5 29.5q101 37 180.5 126t79.5 167q0 96 -64 149t-161 53q-203 0 -203 -114q0 -35 38 -56.5t83 -21.5q26 0 56 14t45 25.5t48 38.5v-21q-25 -35 -66.5 -62.5t-82.5 -27.5q-58 0 -101 31
t-43 80q0 41 20 69.5t54 42.5t67.5 19.5t71.5 5.5q124 0 193.5 -64t69.5 -172q0 -44 -24 -90.5t-61.5 -85t-65.5 -62t-52 -40.5l41 -10q118 -25 198 -72t154 -147h-4v-5q-4 1 -21.5 6t-25.5 5q-37 0 -54.5 -19t-17.5 -45q0 -42 38 -72t82 -41.5t83 -11.5q38 0 75.5 17
t57.5 43zM1427 -86q-12 2 -34 2q-43 0 -69 -24t-26 -66q0 -58 48.5 -92.5t113.5 -34.5q59 0 114.5 39t55.5 100q0 28 -9.5 64.5t-25 80.5t-20.5 60q-83 -27 -115 -96q39 -14 61.5 -46t22.5 -57q0 -19 -14.5 -37t-42.5 -18q-26 0 -45 27t-19 57q0 29 4 41zM3099 1575
q-5 104 -41 104q-11 0 -21 -5.5t-17 -17t-12.5 -21.5t-10 -28.5t-6.5 -27t-5.5 -27.5t-3.5 -20q-70 -367 -70 -436q0 -25 19 -25q55 0 85 96t83 408zM3715 1274q4 66 49 278q0 127 -41 127q-52 0 -72 -140q-1 -5 -1 -7q-70 -367 -70 -436q0 -25 18 -25q68 0 117 203z
M2445 1274q4 66 49 278q0 127 -40 127q-14 0 -25 -8.5t-17.5 -19.5t-12.5 -30.5t-8.5 -31.5t-6 -32.5t-4.5 -24.5q-70 -367 -70 -436q0 -25 17 -25q69 0 118 203zM1161 1274q10 109 51 278q0 127 -41 127q-27 0 -48 -52.5t-25 -94.5q-16 -71 -43 -229t-27 -207q0 -25 16 -25
q68 0 117 203zM588 1876q0 -2 -25 -66.5t-57.5 -152.5t-48.5 -139q116 52 197 177.5t81 260.5q0 55 -39 55q-27 0 -48.5 -27t-59.5 -108zM3361 1094h4q-6 -47 -27.5 -85t-52.5 -62.5t-65 -39t-70 -20.5q-2 -60 -61.5 -106t-139.5 -46q-43 0 -81 11t-68.5 44t-30.5 84
q0 43 36.5 83.5t82.5 41.5v-8q-37 -6 -67 -34.5t-30 -65.5q0 -117 162 -117q32 0 60.5 5t56 16.5t44.5 35t19 56.5q-6 -2 -16 -2q-52 0 -87.5 21.5t-35.5 56.5q0 18 17.5 31.5t33.5 13.5q34 0 64 -28t39 -65q70 8 132.5 59t80.5 120zM2726 307q54 7 98 65.5t64 124t20 115.5
t-22 50q-50 0 -91 -104t-69 -251zM2656 999l23 -10q-15 -77 -93 -132.5t-173 -55.5h-25q-34 -37 -109 -37q-70 0 -131 31t-92 90l2 2q102 -113 215 -113q58 0 97 31q-32 5 -66 14.5t-75 28.5t-73 43.5t-53.5 63t-21.5 83.5q0 54 22 78l11 -10q-13 -43 -13 -62q0 -50 29 -90
t75.5 -63.5t94 -37t94.5 -17.5q8 16 8 38q0 52 -41.5 87.5t-99.5 35.5q-50 0 -90 -22l-8 2q32 35 94 35t111 -38t49 -97q0 -20 -7 -41h9q83 0 152 41t85 122zM2785 57v-6q55 0 122 78.5t67 146.5q0 33 -21 33q-63 0 -115.5 -87.5t-52.5 -164.5zM553 852q-24 41 -78.5 70.5
t-99.5 29.5q-90 0 -90 -51q0 -21 15.5 -35.5t40 -21.5t48 -10t47.5 -3q59 0 117 21zM1784 713l-12 2v6q-9 57 -42.5 83.5t-64.5 26.5q-20 0 -52 -16.5t-77 -32.5t-96 -16q-37 0 -56.5 16.5t-19.5 40.5q0 36 31.5 54t66.5 18l131 -14q28 0 50 12t22 39q0 32 -25 49.5
t-59 17.5q-25 0 -45 -9.5t-20 -28.5q0 -15 10 -23t26 -8q22 0 47 14l5 -16q-26 -13 -50 -13q-23 0 -39 11t-16 32q0 24 28 40t56 16q41 0 69.5 -21t28.5 -57q0 -34 -27.5 -51t-58.5 -17l-133 15q-30 0 -58 -15t-28 -45q0 -21 19 -31t41 -10q38 0 113 37t100 37
q60 0 97.5 -40.5t37.5 -102.5zM2269 295q-47 -4 -78.5 -54.5t-31.5 -109.5q0 -28 12 -53t41 -25q11 0 19.5 17t14.5 48t9.5 58.5t7.5 66t6 52.5zM965 -172q0 39 -36.5 67.5t-74.5 28.5q-28 0 -44.5 -14.5t-16.5 -42.5q0 -37 42.5 -55.5t86.5 -18.5q24 0 33.5 6.5t9.5 28.5z
M856 530q37 25 65.5 66t28.5 78q0 45 -32 45q-27 0 -44.5 -24t-22.5 -49.5t-5 -51.5q0 -44 10 -64zM3123 915h8q-6 31 -27 52.5t-50 21.5q-35 0 -35 -28q0 -46 104 -46zM1450 -92q-2 -10 -2 -29q0 -26 9.5 -46.5t25.5 -20.5q33 0 33 26q0 44 -66 70z" />
    <glyph glyph-name="zero.alt" horiz-adv-x="1277"
d="M637 -20q-76 0 -149.5 25t-144.5 82t-124.5 141t-86 212.5t-32.5 284.5q0 117 21.5 228.5t66.5 210.5t108 173.5t151.5 118t191.5 43.5t191.5 -43.5t151.5 -118t108 -173.5t66.5 -210.5t21.5 -228.5q0 -156 -32.5 -284.5t-86 -212.5t-125 -141t-146 -82t-151.5 -25z
M637 27q175 0 261.5 177.5t86.5 545.5q0 361 -85 531.5t-263 170.5q-174 0 -259 -171t-85 -531q0 -367 85.5 -545t258.5 -178zM639 522h-4q-4 101 -50 153t-136 60v4q90 8 136 60t50 153h4q9 -201 186 -213v-4q-177 -12 -186 -213z" />
    <glyph glyph-name="A.alt" horiz-adv-x="1191"
d="M1184 6v-10q-86 4 -178 4q-93 0 -183 -4v10q90 5 90 72q0 24 -24 106l-70 224q-111 2 -332 2q-153 0 -231 -2l-63 -172q-35 -99 -35 -140q0 -79 94 -90v-10q-90 4 -191 4q-53 0 -139 -4v10q57 14 87 34.5t62 75.5t76 173l463 1231h21l430 -1360q32 -101 49.5 -124
t73.5 -30zM741 653l-180 582l-213 -580q63 -2 193 -2h200zM799 471l-39 123h-219q-143 0 -217 -2l-45 -121q70 -2 208 -2q208 0 312 2z" />
    <glyph glyph-name="B.alt" horiz-adv-x="1095"
d="M94 -4v10q34 5 51 11.5t35 24.5t24.5 54.5t6.5 96.5v1099q0 49 -5 81.5t-12 51.5t-23 30t-30.5 15.5t-42.5 8.5v10q90 -4 164 -4q61 0 135.5 2t106.5 2q103 0 183 -28.5t127 -77t71 -107t24 -123.5q0 -114 -68.5 -203t-213.5 -131q189 -21 292 -140t103 -276
q0 -115 -47 -206.5t-144 -147t-231 -55.5q-58 0 -158 3t-155 3q-103 0 -193 -4zM416 801v6q156 8 248 91t92 243q0 142 -82.5 223.5t-204.5 81.5q-58 0 -107 -16v-1364q93 -17 156 -17q338 0 338 361q0 177 -106 284t-334 107z" />
    <glyph glyph-name="C.alt" horiz-adv-x="1482"
d="M1393 0h-11q-6 63 -20 98q-247 -118 -485 -118q-190 0 -345 64t-253 171.5t-150.5 243t-52.5 284.5q0 146 52.5 280t150.5 241t253 171t345 64q236 0 485 -119q14 34 20 99h11q-4 -86 -4 -144q0 -110 12 -186h-10q-29 100 -108 170t-174.5 100.5t-199.5 30.5
q-94 0 -184 -25t-174.5 -81t-148 -137t-102 -202t-38.5 -266q0 -148 38.5 -269.5t102 -202t148 -135.5t174.5 -79t184 -24q104 0 199.5 30.5t174.5 100.5t108 170h10q-12 -76 -12 -187q0 -57 4 -143z" />
    <glyph glyph-name="D.alt" horiz-adv-x="1472"
d="M88 -4v10q26 4 36.5 6t29.5 6.5t26 10t19 15t16 22t9.5 30.5t7 42t1.5 55v1099q0 40 -3.5 69.5t-14.5 48.5t-19.5 30.5t-30 19.5t-33.5 11t-42 8v10q90 -4 195 -4q68 0 171 1t152 1q183 0 332.5 -56.5t248 -155.5t151.5 -233t53 -290q0 -161 -48 -296.5t-143 -239.5
t-248.5 -163t-351.5 -59q-56 0 -155.5 3t-137.5 3q-131 0 -221 -4zM385 1415v-1343q132 -29 215 -29q91 0 167.5 14.5t148 46.5t126 88t95.5 134t62.5 189t21.5 249q0 161 -45.5 289.5t-126 212t-189.5 128t-239 44.5q-136 0 -236 -23z" />
    <glyph glyph-name="E.alt" horiz-adv-x="1009"
d="M930 264h10q-1 -94 -6.5 -163t-5.5 -107q-190 6 -422 6q-326 0 -412 -4v10q73 12 95 47t22 140v1099q0 49 -5 81t-12 51.5t-24.5 30t-33.5 15t-48 9.5v10q82 -4 262 -4q478 0 570 4q0 -5 1 -36t1 -50q0 -112 -13 -168h-10q0 28 -1.5 49.5t-7.5 40t-12 31.5t-20.5 24
t-27 17.5t-38 11.5t-46 7.5t-58.5 4t-69 2t-84 0.5q-127 0 -173 -12v-1337q37 -13 175 -13h108t82.5 3t67 7.5t46 15t37 24t22 36.5t19 50t11.5 67zM639 555h-4q-4 101 -50 153t-136 60v4q90 8 136 60t50 153h4q9 -201 186 -213v-4q-177 -12 -186 -213z" />
    <glyph glyph-name="F.alt" horiz-adv-x="958"
d="M475 6v-10q-86 4 -190 4q-89 0 -179 -4v10q33 5 49 11t30.5 25t19 54.5t4.5 96.5v1099q0 49 -5 81t-12 51.5t-24.5 30t-33.5 15t-48 9.5v10q82 -4 262 -4q478 0 570 4q0 -5 1 -36t1 -50q0 -112 -13 -168h-10q0 28 -1.5 49.5t-8 40t-12 31.5t-20.5 24t-27.5 17.5
t-37.5 11.5t-46 7.5t-59 4t-69 2t-84 0.5q-126 0 -172 -12v-1218q0 -49 5 -81.5t12 -51.5t23.5 -30t31.5 -15.5t43 -8.5zM637 565h-4q-9 198 -187 213v4q178 15 187 213h4q9 -201 186 -213v-4q-177 -12 -186 -213z" />
    <glyph glyph-name="G.alt" horiz-adv-x="1521"
d="M1419 84v-6q-38 10 -82 10q-49 0 -105 -17t-101.5 -37t-124.5 -37t-170 -17q-153 0 -280 42t-214.5 113.5t-148.5 168.5t-89 205.5t-28 225.5q0 152 52 289t148.5 243t246 169t331.5 63q257 0 494 -113q14 34 20 99h10q-6 -94 -6 -297q0 -37 2 -62h-10q-11 111 -82.5 186
t-177.5 108.5t-242 33.5q-88 0 -172 -23.5t-163.5 -78t-139 -134.5t-95.5 -202.5t-36 -272.5q0 -213 72.5 -376t206 -252.5t307.5 -89.5q180 0 279.5 65t99.5 195v229q0 51 -6 84.5t-12.5 51.5t-25.5 29t-30.5 13.5t-42.5 7.5v11q90 -4 192 -4q80 0 166 4v-11
q-41 -8 -57.5 -20t-24.5 -48.5t-8 -117.5v-147q0 -174 6.5 -221.5t40.5 -61.5z" />
    </font>
</defs>
</svg>
